{"glyphs":{"0":{"ha":969,"x_min":64,"x_max":906,"o":"m 486 -17 q 260 47 354 -17 q 115 223 165 110 q 64 486 64 336 q 115 749 64 636 q 260 926 165 863 q 486 989 354 989 q 710 926 617 989 q 855 749 804 863 q 906 486 906 636 q 855 223 906 336 q 710 47 804 110 q 486 -17 617 -17 m 485 133 q 615 176 558 133 q 703 297 672 218 q 735 486 735 376 q 703 675 735 596 q 615 797 672 754 q 485 839 558 839 q 354 797 411 839 q 266 675 297 754 q 235 486 235 596 q 266 297 235 376 q 354 176 297 218 q 485 133 411 133 z "},"1":{"ha":483,"x_min":43,"x_max":386,"o":"m 215 0 l 215 782 l 43 738 l 43 867 l 282 972 l 386 972 l 386 0 l 215 0 z "},"2":{"ha":801,"x_min":75,"x_max":744,"o":"m 75 0 l 75 121 q 253 268 168 194 q 406 414 338 342 q 513 556 474 486 q 551 689 551 625 q 536 767 551 731 q 488 825 521 803 q 401 847 456 847 q 312 824 349 847 q 257 760 275 800 q 239 671 239 721 l 78 671 q 124 847 81 776 q 240 953 167 918 q 406 989 314 989 q 574 953 504 989 q 681 851 643 917 q 718 697 718 786 q 694 569 718 632 q 626 447 669 506 q 530 333 583 388 q 419 228 476 278 q 310 138 363 179 l 744 138 l 744 0 l 75 0 z "},"3":{"ha":832,"x_min":68,"x_max":747,"o":"m 414 -17 q 242 17 319 -17 q 117 122 164 51 q 68 299 71 192 l 232 299 q 255 210 233 250 q 317 148 276 171 q 414 125 357 125 q 506 146 468 125 q 564 203 544 167 q 583 283 583 239 q 557 373 583 338 q 485 426 531 408 q 381 444 439 444 l 308 444 l 308 582 l 381 582 q 506 617 457 582 q 554 721 554 653 q 517 813 554 778 q 413 847 481 847 q 301 806 342 847 q 256 703 260 764 l 92 703 q 137 855 96 790 q 249 954 178 919 q 414 989 319 989 q 581 954 513 989 q 684 861 649 919 q 719 733 719 803 q 699 635 719 679 q 642 560 678 590 q 560 517 607 531 q 656 474 614 506 q 723 392 699 442 q 747 278 747 343 q 709 131 747 199 q 597 24 671 64 q 414 -17 522 -17 z "},"4":{"ha":886,"x_min":60,"x_max":839,"o":"m 542 0 l 542 185 l 60 185 l 60 318 l 518 972 l 707 972 l 707 331 l 839 331 l 839 185 l 707 185 l 707 0 l 542 0 m 239 331 l 551 331 l 551 789 l 551 789 l 239 331 z "},"5":{"ha":858,"x_min":90,"x_max":785,"o":"m 440 -17 q 260 20 336 -17 q 142 122 185 57 q 90 268 99 186 l 253 268 q 315 166 265 207 q 440 125 365 125 q 538 152 497 125 q 601 226 578 179 q 624 331 624 272 q 601 435 624 390 q 538 503 578 479 q 444 528 497 528 q 333 498 379 528 q 265 424 286 468 l 104 424 l 185 972 l 721 972 l 721 826 l 310 826 l 265 586 q 350 643 297 621 q 471 665 403 665 q 606 638 547 665 q 704 565 664 611 q 765 459 744 519 q 785 332 785 399 q 760 194 785 257 q 690 83 736 131 q 581 10 644 36 q 440 -17 518 -17 z "},"6":{"ha":879,"x_min":71,"x_max":796,"o":"m 458 -17 q 276 24 350 -17 q 157 131 201 64 q 92 282 113 199 q 71 453 71 365 q 117 735 71 615 q 248 922 163 856 q 454 989 333 989 q 623 951 554 989 q 731 850 692 913 q 778 714 769 788 l 622 714 q 566 815 610 779 q 453 850 522 850 q 342 811 390 850 q 265 694 293 772 q 233 497 238 617 q 233 492 233 494 q 233 488 233 490 q 293 559 256 528 q 380 608 331 590 q 486 626 429 626 q 638 588 568 626 q 752 479 708 550 q 796 313 796 408 q 754 150 796 225 q 636 29 713 75 q 458 -17 560 -17 m 449 126 q 544 150 503 126 q 610 214 586 174 q 635 306 635 254 q 610 400 635 360 q 544 463 586 440 q 447 485 501 485 q 352 462 394 485 q 285 399 310 439 q 260 307 260 358 q 285 214 260 254 q 352 150 310 174 q 449 126 394 126 z "},"7":{"ha":744,"x_min":39,"x_max":699,"o":"m 165 0 l 528 829 l 39 829 l 39 972 l 699 972 l 699 853 l 339 0 l 165 0 z "},"8":{"ha":868,"x_min":85,"x_max":785,"o":"m 435 -17 q 257 19 336 -17 q 131 119 178 54 q 85 271 85 183 q 106 379 85 329 q 165 466 126 429 q 256 521 204 503 q 148 606 188 551 q 108 729 108 661 q 146 858 108 800 q 256 953 183 917 q 435 989 329 989 q 613 953 540 989 q 722 858 685 917 q 760 729 760 800 q 720 606 760 663 q 613 521 681 550 q 703 465 665 503 q 763 378 742 428 q 785 271 785 329 q 738 119 785 183 q 612 19 690 54 q 435 -17 533 -17 m 435 124 q 573 169 526 124 q 619 283 619 214 q 570 403 619 361 q 435 446 521 446 q 298 403 349 446 q 247 283 247 361 q 295 169 247 214 q 435 124 343 124 m 435 572 q 552 612 510 572 q 594 711 594 651 q 552 816 594 779 q 435 853 510 853 q 317 816 360 853 q 275 711 275 779 q 317 611 275 650 q 435 572 360 572 z "},"9":{"ha":879,"x_min":83,"x_max":807,"o":"m 424 -17 q 256 22 325 -17 q 149 123 188 60 q 103 258 110 186 l 257 258 q 313 158 269 193 q 426 122 357 122 q 538 160 490 122 q 613 276 585 199 q 644 469 642 353 q 644 476 644 472 q 644 485 644 481 q 586 414 624 446 q 499 364 549 382 q 393 346 450 346 q 241 384 313 346 q 126 493 169 422 q 83 660 83 564 q 125 822 83 747 q 243 943 167 897 q 419 989 319 989 q 603 949 529 989 q 722 841 678 908 q 787 690 767 774 q 807 519 807 607 q 762 238 807 358 q 631 50 717 117 q 424 -17 546 -17 m 432 488 q 527 510 485 488 q 594 574 569 533 q 619 665 619 615 q 594 759 619 718 q 527 823 569 800 q 431 846 485 846 q 335 822 376 846 q 269 759 293 799 q 244 667 244 719 q 269 572 244 613 q 335 510 293 532 q 432 488 378 488 z "},"A":{"ha":967,"x_min":35,"x_max":932,"o":"m 35 0 l 390 972 l 576 972 l 932 0 l 756 0 l 482 778 l 482 778 l 208 0 l 35 0 m 193 229 l 238 361 l 717 361 l 761 229 l 193 229 z "},"Á":{"ha":967,"x_min":35,"x_max":932,"o":"m 35 0 l 390 972 l 576 972 l 932 0 l 756 0 l 482 778 l 482 778 l 208 0 l 35 0 m 193 229 l 238 361 l 717 361 l 761 229 l 193 229 m 340 1032 l 325 1144 l 622 1319 l 622 1319 l 642 1189 l 340 1032 z "},"Ă":{"ha":967,"x_min":35,"x_max":932,"o":"m 35 0 l 390 972 l 576 972 l 932 0 l 756 0 l 482 778 l 482 778 l 208 0 l 35 0 m 193 229 l 238 361 l 717 361 l 761 229 l 193 229 m 483 1042 q 371 1067 418 1042 q 298 1140 324 1093 q 272 1247 272 1186 l 272 1269 l 361 1269 q 389 1195 361 1222 q 483 1168 417 1168 q 578 1195 551 1168 q 606 1269 606 1222 l 697 1269 l 697 1247 q 671 1139 697 1185 q 597 1067 644 1093 q 483 1042 550 1042 z "},"Â":{"ha":967,"x_min":35,"x_max":932,"o":"m 35 0 l 390 972 l 576 972 l 932 0 l 756 0 l 482 778 l 482 778 l 208 0 l 35 0 m 193 229 l 238 361 l 717 361 l 761 229 l 193 229 m 283 1039 l 283 1160 l 483 1272 l 685 1160 l 685 1039 l 483 1154 l 283 1039 z "},"Ä":{"ha":967,"x_min":35,"x_max":932,"o":"m 35 0 l 390 972 l 576 972 l 932 0 l 756 0 l 482 778 l 482 778 l 208 0 l 35 0 m 193 229 l 238 361 l 717 361 l 761 229 l 193 229 m 363 1069 q 303 1093 326 1069 q 279 1151 279 1117 q 303 1210 279 1186 q 363 1235 326 1235 q 420 1210 396 1235 q 444 1151 444 1186 q 420 1093 444 1117 q 363 1069 396 1069 m 607 1069 q 549 1093 572 1069 q 525 1151 525 1117 q 549 1210 525 1186 q 607 1235 572 1235 q 665 1210 642 1235 q 689 1151 689 1186 q 665 1093 689 1117 q 607 1069 642 1069 z "},"À":{"ha":967,"x_min":35,"x_max":932,"o":"m 35 0 l 390 972 l 576 972 l 932 0 l 756 0 l 482 778 l 482 778 l 208 0 l 35 0 m 193 229 l 238 361 l 717 361 l 761 229 l 193 229 m 626 1032 l 325 1189 l 344 1319 l 344 1319 l 642 1144 l 626 1032 z "},"Ā":{"ha":967,"x_min":35,"x_max":932,"o":"m 35 0 l 390 972 l 576 972 l 932 0 l 756 0 l 482 778 l 482 778 l 208 0 l 35 0 m 193 229 l 238 361 l 717 361 l 761 229 l 193 229 m 228 1090 l 228 1210 l 740 1210 l 740 1090 l 228 1090 z "},"Ą":{"ha":967,"x_min":35,"x_max":939,"o":"m 35 0 l 390 972 l 576 972 l 932 0 l 756 0 l 482 778 l 482 778 l 208 0 l 35 0 m 193 229 l 238 361 l 717 361 l 761 229 l 193 229 m 821 -290 q 732 -275 774 -290 q 665 -228 690 -260 q 640 -147 640 -197 q 658 -77 640 -110 q 716 -12 675 -44 q 828 51 757 21 l 894 79 l 932 0 l 858 -36 q 788 -84 808 -61 q 768 -132 768 -107 q 788 -175 768 -160 q 842 -190 808 -190 q 888 -185 863 -190 q 939 -169 914 -179 l 939 -271 q 883 -285 914 -279 q 821 -290 853 -290 z "},"Å":{"ha":967,"x_min":35,"x_max":932,"o":"m 35 0 l 390 972 l 576 972 l 932 0 l 756 0 l 482 778 l 482 778 l 208 0 l 35 0 m 193 229 l 238 361 l 717 361 l 761 229 l 193 229 m 483 1046 q 374 1087 419 1046 q 328 1199 328 1128 q 374 1312 328 1271 q 483 1353 419 1353 q 594 1312 549 1353 q 639 1199 639 1271 q 594 1087 639 1128 q 483 1046 549 1046 m 483 1122 q 535 1143 514 1122 q 557 1199 557 1164 q 536 1255 557 1235 q 483 1275 515 1275 q 432 1255 454 1275 q 410 1199 410 1235 q 432 1143 410 1164 q 483 1122 454 1122 z "},"Ã":{"ha":967,"x_min":35,"x_max":932,"o":"m 35 0 l 390 972 l 576 972 l 932 0 l 756 0 l 482 778 l 482 778 l 208 0 l 35 0 m 193 229 l 238 361 l 717 361 l 761 229 l 193 229 m 572 1044 q 506 1060 533 1044 q 456 1092 479 1076 q 404 1108 432 1108 q 365 1093 381 1108 q 344 1046 349 1078 l 254 1046 q 308 1173 267 1132 q 411 1214 350 1214 q 477 1198 450 1214 q 528 1166 504 1182 q 579 1150 551 1150 q 619 1165 603 1150 q 639 1213 635 1181 l 731 1213 q 676 1085 718 1126 q 572 1044 633 1044 z "},"Æ":{"ha":1299,"x_min":35,"x_max":1222,"o":"m 35 0 l 565 972 l 1222 972 l 1222 840 l 842 840 l 842 557 l 1181 557 l 1181 429 l 842 429 l 842 132 l 1222 132 l 1222 0 l 675 0 l 675 843 l 675 843 l 215 0 l 35 0 m 231 197 l 300 326 l 754 326 l 754 197 l 231 197 z "},"Ǽ":{"ha":1299,"x_min":35,"x_max":1222,"o":"m 35 0 l 565 972 l 1222 972 l 1222 840 l 842 840 l 842 557 l 1181 557 l 1181 429 l 842 429 l 842 132 l 1222 132 l 1222 0 l 675 0 l 675 843 l 675 843 l 215 0 l 35 0 m 231 197 l 300 326 l 754 326 l 754 197 l 231 197 m 644 1032 l 629 1144 l 926 1319 l 926 1319 l 946 1189 l 644 1032 z "},"B":{"ha":872,"x_min":99,"x_max":811,"o":"m 99 0 l 99 972 l 479 972 q 651 940 582 972 q 754 852 719 908 q 789 722 789 796 q 757 599 789 649 q 673 522 725 549 q 560 490 621 496 l 581 506 q 698 471 646 504 q 781 384 750 438 q 811 265 811 331 q 774 128 811 189 q 667 34 738 68 q 493 0 596 0 l 99 0 m 265 136 l 468 136 q 596 175 550 136 q 642 283 642 214 q 594 394 642 353 q 465 435 547 435 l 265 435 l 265 136 m 265 561 l 456 561 q 578 598 536 561 q 619 700 619 635 q 578 801 619 764 q 454 838 536 838 l 265 838 l 265 561 z "},"C":{"ha":1017,"x_min":64,"x_max":953,"o":"m 531 -17 q 281 47 386 -17 q 120 223 176 110 q 64 485 64 336 q 120 748 64 635 q 281 925 176 861 q 531 989 386 989 q 814 903 704 989 q 953 663 924 818 l 769 663 q 690 792 750 744 q 529 839 631 839 q 372 797 438 839 q 270 674 306 754 q 235 485 235 594 q 270 297 235 375 q 372 176 306 218 q 529 133 438 133 q 690 177 631 133 q 769 299 750 221 l 953 299 q 815 67 925 151 q 531 -17 704 -17 z "},"Ć":{"ha":1017,"x_min":64,"x_max":953,"o":"m 531 -17 q 281 47 386 -17 q 120 223 176 110 q 64 485 64 336 q 120 748 64 635 q 281 925 176 861 q 531 989 386 989 q 814 903 704 989 q 953 663 924 818 l 769 663 q 690 792 750 744 q 529 839 631 839 q 372 797 438 839 q 270 674 306 754 q 235 485 235 594 q 270 297 235 375 q 372 176 306 218 q 529 133 438 133 q 690 177 631 133 q 769 299 750 221 l 953 299 q 815 67 925 151 q 531 -17 704 -17 m 365 1032 l 350 1144 l 647 1319 l 647 1319 l 667 1189 l 365 1032 z "},"Č":{"ha":1017,"x_min":64,"x_max":953,"o":"m 531 -17 q 281 47 386 -17 q 120 223 176 110 q 64 485 64 336 q 120 748 64 635 q 281 925 176 861 q 531 989 386 989 q 814 903 704 989 q 953 663 924 818 l 769 663 q 690 792 750 744 q 529 839 631 839 q 372 797 438 839 q 270 674 306 754 q 235 485 235 594 q 270 297 235 375 q 372 176 306 218 q 529 133 438 133 q 690 177 631 133 q 769 299 750 221 l 953 299 q 815 67 925 151 q 531 -17 704 -17 m 508 1038 l 308 1150 l 308 1271 l 508 1153 l 710 1271 l 710 1150 l 508 1038 z "},"Ç":{"ha":1017,"x_min":64,"x_max":953,"o":"m 531 -17 q 281 47 386 -17 q 120 223 176 110 q 64 485 64 336 q 120 748 64 635 q 281 925 176 861 q 531 989 386 989 q 814 903 704 989 q 953 663 924 818 l 769 663 q 690 792 750 744 q 529 839 631 839 q 372 797 438 839 q 270 674 306 754 q 235 485 235 594 q 270 297 235 375 q 372 176 306 218 q 529 133 438 133 q 690 177 631 133 q 769 299 750 221 l 953 299 q 815 67 925 151 q 531 -17 704 -17 m 394 -367 l 394 -269 l 544 -269 q 604 -257 585 -269 q 624 -215 624 -244 q 604 -178 624 -190 q 544 -165 585 -165 l 464 -165 l 464 7 l 568 7 l 568 -75 q 658 -90 617 -75 q 724 -137 699 -104 q 749 -219 749 -169 q 724 -301 749 -268 q 659 -350 700 -333 q 569 -367 618 -367 l 394 -367 z "},"Ċ":{"ha":1017,"x_min":64,"x_max":953,"o":"m 531 -17 q 281 47 386 -17 q 120 223 176 110 q 64 485 64 336 q 120 748 64 635 q 281 925 176 861 q 531 989 386 989 q 814 903 704 989 q 953 663 924 818 l 769 663 q 690 792 750 744 q 529 839 631 839 q 372 797 438 839 q 270 674 306 754 q 235 485 235 594 q 270 297 235 375 q 372 176 306 218 q 529 133 438 133 q 690 177 631 133 q 769 299 750 221 l 953 299 q 815 67 925 151 q 531 -17 704 -17 m 508 1061 q 449 1085 474 1061 q 425 1144 425 1110 q 449 1203 425 1179 q 508 1228 474 1228 q 566 1203 542 1228 q 590 1144 590 1179 q 566 1085 590 1110 q 508 1061 542 1061 z "},"D":{"ha":974,"x_min":99,"x_max":910,"o":"m 99 0 l 99 972 l 413 972 q 692 913 582 972 q 856 744 803 853 q 910 485 910 635 q 856 228 910 338 q 692 60 803 119 q 413 0 582 0 l 99 0 m 265 142 l 404 142 q 603 183 531 142 q 708 301 676 224 q 739 485 739 378 q 708 670 739 593 q 603 790 676 747 q 404 832 531 832 l 265 832 l 265 142 z "},"Ď":{"ha":974,"x_min":99,"x_max":910,"o":"m 99 0 l 99 972 l 413 972 q 692 913 582 972 q 856 744 803 853 q 910 485 910 635 q 856 228 910 338 q 692 60 803 119 q 413 0 582 0 l 99 0 m 265 142 l 404 142 q 603 183 531 142 q 708 301 676 224 q 739 485 739 378 q 708 670 739 593 q 603 790 676 747 q 404 832 531 832 l 265 832 l 265 142 m 397 1038 l 197 1150 l 197 1271 l 397 1153 l 599 1271 l 599 1150 l 397 1038 z "},"Đ":{"ha":994,"x_min":8,"x_max":931,"o":"m 8 414 l 8 557 l 535 557 l 535 414 l 8 414 m 118 0 l 118 972 l 432 972 q 713 913 601 972 q 877 744 824 853 q 931 485 931 635 q 877 228 931 338 q 713 60 824 119 q 432 0 601 0 l 118 0 m 285 142 l 424 142 q 624 183 550 142 q 728 301 697 224 q 760 485 760 378 q 728 670 760 593 q 624 790 697 747 q 424 832 550 832 l 285 832 l 285 142 z "},"Ð":{"ha":994,"x_min":8,"x_max":931,"o":"m 8 414 l 8 557 l 535 557 l 535 414 l 8 414 m 118 0 l 118 972 l 432 972 q 713 913 601 972 q 877 744 824 853 q 931 485 931 635 q 877 228 931 338 q 713 60 824 119 q 432 0 601 0 l 118 0 m 285 142 l 424 142 q 624 183 550 142 q 728 301 697 224 q 760 485 760 378 q 728 670 760 593 q 624 790 697 747 q 424 832 550 832 l 285 832 l 285 142 z "},"E":{"ha":803,"x_min":99,"x_max":726,"o":"m 99 0 l 99 972 l 726 972 l 726 838 l 265 838 l 265 558 l 685 558 l 685 426 l 265 426 l 265 135 l 726 135 l 726 0 l 99 0 z "},"É":{"ha":803,"x_min":99,"x_max":726,"o":"m 99 0 l 99 972 l 726 972 l 726 838 l 265 838 l 265 558 l 685 558 l 685 426 l 265 426 l 265 135 l 726 135 l 726 0 l 99 0 m 269 1032 l 254 1144 l 551 1319 l 551 1319 l 571 1189 l 269 1032 z "},"Ĕ":{"ha":803,"x_min":99,"x_max":726,"o":"m 99 0 l 99 972 l 726 972 l 726 838 l 265 838 l 265 558 l 685 558 l 685 426 l 265 426 l 265 135 l 726 135 l 726 0 l 99 0 m 413 1042 q 300 1067 347 1042 q 227 1140 253 1093 q 201 1247 201 1186 l 201 1269 l 290 1269 q 318 1195 290 1222 q 413 1168 346 1168 q 508 1195 481 1168 q 535 1269 535 1222 l 626 1269 l 626 1247 q 600 1139 626 1185 q 526 1067 574 1093 q 413 1042 479 1042 z "},"Ě":{"ha":803,"x_min":99,"x_max":726,"o":"m 99 0 l 99 972 l 726 972 l 726 838 l 265 838 l 265 558 l 685 558 l 685 426 l 265 426 l 265 135 l 726 135 l 726 0 l 99 0 m 413 1038 l 213 1150 l 213 1271 l 413 1153 l 614 1271 l 614 1150 l 413 1038 z "},"Ê":{"ha":803,"x_min":99,"x_max":726,"o":"m 99 0 l 99 972 l 726 972 l 726 838 l 265 838 l 265 558 l 685 558 l 685 426 l 265 426 l 265 135 l 726 135 l 726 0 l 99 0 m 213 1039 l 213 1160 l 413 1272 l 614 1160 l 614 1039 l 413 1154 l 213 1039 z "},"Ë":{"ha":803,"x_min":99,"x_max":726,"o":"m 99 0 l 99 972 l 726 972 l 726 838 l 265 838 l 265 558 l 685 558 l 685 426 l 265 426 l 265 135 l 726 135 l 726 0 l 99 0 m 290 1069 q 231 1093 254 1069 q 207 1151 207 1117 q 231 1210 207 1186 q 290 1235 254 1235 q 348 1210 324 1235 q 372 1151 372 1186 q 348 1093 372 1117 q 290 1069 324 1069 m 535 1069 q 476 1093 500 1069 q 453 1151 453 1117 q 476 1210 453 1186 q 535 1235 500 1235 q 593 1210 569 1235 q 617 1151 617 1186 q 593 1093 617 1117 q 535 1069 569 1069 z "},"Ė":{"ha":803,"x_min":99,"x_max":726,"o":"m 99 0 l 99 972 l 726 972 l 726 838 l 265 838 l 265 558 l 685 558 l 685 426 l 265 426 l 265 135 l 726 135 l 726 0 l 99 0 m 413 1061 q 353 1085 378 1061 q 329 1144 329 1110 q 353 1203 329 1179 q 413 1228 378 1228 q 470 1203 446 1228 q 494 1144 494 1179 q 470 1085 494 1110 q 413 1061 446 1061 z "},"È":{"ha":803,"x_min":99,"x_max":726,"o":"m 99 0 l 99 972 l 726 972 l 726 838 l 265 838 l 265 558 l 685 558 l 685 426 l 265 426 l 265 135 l 726 135 l 726 0 l 99 0 m 556 1032 l 254 1189 l 274 1319 l 274 1319 l 571 1144 l 556 1032 z "},"Ē":{"ha":803,"x_min":99,"x_max":726,"o":"m 99 0 l 99 972 l 726 972 l 726 838 l 265 838 l 265 558 l 685 558 l 685 426 l 265 426 l 265 135 l 726 135 l 726 0 l 99 0 m 156 1090 l 156 1210 l 668 1210 l 668 1090 l 156 1090 z "},"Ę":{"ha":803,"x_min":99,"x_max":733,"o":"m 99 0 l 99 972 l 726 972 l 726 838 l 265 838 l 265 558 l 685 558 l 685 426 l 265 426 l 265 135 l 726 135 l 726 0 l 99 0 m 615 -290 q 526 -275 568 -290 q 460 -228 485 -260 q 435 -147 435 -197 q 452 -77 435 -110 q 510 -12 469 -44 q 622 51 551 21 l 689 79 l 726 0 l 653 -36 q 583 -84 603 -61 q 563 -132 563 -107 q 583 -175 563 -160 q 636 -190 603 -190 q 683 -185 657 -190 q 733 -169 708 -179 l 733 -271 q 678 -285 708 -279 q 615 -290 647 -290 z "},"Ẽ":{"ha":803,"x_min":99,"x_max":726,"o":"m 99 0 l 99 972 l 726 972 l 726 838 l 265 838 l 265 558 l 685 558 l 685 426 l 265 426 l 265 135 l 726 135 l 726 0 l 99 0 m 501 1044 q 435 1060 463 1044 q 385 1092 408 1076 q 333 1108 361 1108 q 294 1093 310 1108 q 274 1046 278 1078 l 183 1046 q 238 1173 196 1132 q 340 1214 279 1214 q 406 1198 379 1214 q 457 1166 433 1182 q 508 1150 481 1150 q 548 1165 532 1150 q 568 1213 564 1181 l 660 1213 q 605 1085 647 1126 q 501 1044 563 1044 z "},"Ə":{"ha":1051,"x_min":64,"x_max":986,"o":"m 521 -17 q 333 16 417 -17 q 188 110 249 49 q 96 257 128 171 q 64 451 64 343 q 65 492 64 471 q 68 535 67 513 l 839 535 l 839 408 l 244 408 q 281 264 246 325 q 377 169 315 203 q 519 136 439 136 q 631 156 579 136 q 722 215 683 176 q 783 310 761 253 q 806 442 806 367 l 806 513 q 769 688 806 615 q 668 798 732 760 q 522 836 604 836 q 363 792 429 836 q 268 669 296 749 l 78 669 q 167 836 106 764 q 319 949 229 908 q 522 989 410 989 q 766 926 661 989 q 928 749 871 863 q 986 485 986 636 q 928 222 986 335 q 766 46 871 108 q 521 -17 661 -17 z "},"F":{"ha":764,"x_min":99,"x_max":719,"o":"m 99 0 l 99 972 l 719 972 l 719 838 l 265 838 l 265 553 l 636 553 l 636 421 l 265 421 l 265 0 l 99 0 z "},"G":{"ha":1072,"x_min":64,"x_max":992,"o":"m 522 -17 q 281 46 385 -17 q 121 220 178 108 q 64 482 64 332 q 122 745 64 631 q 290 924 181 860 q 549 989 399 989 q 830 908 718 989 q 975 682 942 826 l 788 682 q 706 794 767 754 q 547 835 644 835 q 378 792 449 835 q 272 670 308 750 q 235 481 235 590 q 272 292 235 371 q 376 172 308 213 q 536 131 444 131 q 742 207 672 131 q 824 406 811 283 l 572 406 l 572 532 l 992 532 l 992 0 l 839 0 l 825 133 l 825 133 q 751 52 793 86 q 653 1 710 18 q 522 -17 597 -17 z "},"Ğ":{"ha":1072,"x_min":64,"x_max":992,"o":"m 522 -17 q 281 46 385 -17 q 121 220 178 108 q 64 482 64 332 q 122 745 64 631 q 290 924 181 860 q 549 989 399 989 q 830 908 718 989 q 975 682 942 826 l 788 682 q 706 794 767 754 q 547 835 644 835 q 378 792 449 835 q 272 670 308 750 q 235 481 235 590 q 272 292 235 371 q 376 172 308 213 q 536 131 444 131 q 742 207 672 131 q 824 406 811 283 l 572 406 l 572 532 l 992 532 l 992 0 l 839 0 l 825 133 l 825 133 q 751 52 793 86 q 653 1 710 18 q 522 -17 597 -17 m 536 1042 q 424 1067 471 1042 q 351 1140 376 1093 q 325 1247 325 1186 l 325 1269 l 414 1269 q 442 1195 414 1222 q 536 1168 469 1168 q 631 1195 604 1168 q 658 1269 658 1222 l 750 1269 l 750 1247 q 724 1139 750 1185 q 650 1067 697 1093 q 536 1042 603 1042 z "},"Ģ":{"ha":1072,"x_min":64,"x_max":992,"o":"m 522 -17 q 281 46 385 -17 q 121 220 178 108 q 64 482 64 332 q 122 745 64 631 q 290 924 181 860 q 549 989 399 989 q 830 908 718 989 q 975 682 942 826 l 788 682 q 706 794 767 754 q 547 835 644 835 q 378 792 449 835 q 272 670 308 750 q 235 481 235 590 q 272 292 235 371 q 376 172 308 213 q 536 131 444 131 q 742 207 672 131 q 824 406 811 283 l 572 406 l 572 532 l 992 532 l 992 0 l 839 0 l 825 133 l 825 133 q 751 52 793 86 q 653 1 710 18 q 522 -17 597 -17 m 461 -372 l 461 -301 q 512 -281 496 -301 q 528 -218 528 -260 l 528 -197 l 456 -197 l 456 -64 l 600 -64 q 615 -131 611 -97 q 619 -192 619 -164 q 579 -326 619 -279 q 461 -372 539 -372 z "},"Ġ":{"ha":1072,"x_min":64,"x_max":992,"o":"m 522 -17 q 281 46 385 -17 q 121 220 178 108 q 64 482 64 332 q 122 745 64 631 q 290 924 181 860 q 549 989 399 989 q 830 908 718 989 q 975 682 942 826 l 788 682 q 706 794 767 754 q 547 835 644 835 q 378 792 449 835 q 272 670 308 750 q 235 481 235 590 q 272 292 235 371 q 376 172 308 213 q 536 131 444 131 q 742 207 672 131 q 824 406 811 283 l 572 406 l 572 532 l 992 532 l 992 0 l 839 0 l 825 133 l 825 133 q 751 52 793 86 q 653 1 710 18 q 522 -17 597 -17 m 536 1061 q 477 1085 501 1061 q 453 1144 453 1110 q 477 1203 453 1179 q 536 1228 501 1228 q 594 1203 569 1228 q 618 1144 618 1179 q 594 1085 618 1110 q 536 1061 569 1061 z "},"H":{"ha":978,"x_min":99,"x_max":879,"o":"m 713 0 l 713 972 l 879 972 l 879 0 l 713 0 m 99 0 l 99 972 l 265 972 l 265 0 l 99 0 m 240 428 l 240 564 l 744 564 l 744 428 l 240 428 z "},"Ħ":{"ha":1064,"x_min":44,"x_max":1019,"o":"m 44 686 l 44 822 l 1019 822 l 1019 686 l 44 686 m 756 0 l 756 972 l 922 972 l 922 0 l 756 0 m 142 0 l 142 972 l 308 972 l 308 0 l 142 0 m 283 428 l 283 564 l 788 564 l 788 428 l 283 428 z "},"I":{"ha":363,"x_min":99,"x_max":265,"o":"m 99 0 l 99 972 l 265 972 l 265 0 l 99 0 z "},"Ĳ":{"ha":1046,"x_min":99,"x_max":949,"o":"m 99 0 l 99 972 l 265 972 l 265 0 l 99 0 m 657 -17 q 495 19 564 -17 q 389 122 426 54 q 351 285 351 189 l 518 285 q 532 204 518 239 q 576 151 546 169 q 653 132 606 132 q 728 150 700 132 q 769 201 756 168 q 782 276 782 233 l 782 972 l 949 972 l 949 276 q 870 59 949 135 q 657 -17 792 -17 z "},"Í":{"ha":363,"x_min":22,"x_max":340,"o":"m 99 0 l 99 972 l 265 972 l 265 0 l 99 0 m 38 1032 l 22 1144 l 319 1319 l 319 1319 l 339 1189 l 38 1032 z "},"Ĭ":{"ha":363,"x_min":-31,"x_max":394,"o":"m 99 0 l 99 972 l 265 972 l 265 0 l 99 0 m 181 1042 q 68 1067 115 1042 q -5 1140 21 1093 q -31 1247 -31 1186 l -31 1269 l 58 1269 q 86 1195 58 1222 q 181 1168 114 1168 q 276 1195 249 1168 q 303 1269 303 1222 l 394 1269 l 394 1247 q 368 1139 394 1185 q 294 1067 342 1093 q 181 1042 247 1042 z "},"Î":{"ha":363,"x_min":-19,"x_max":382,"o":"m 99 0 l 99 972 l 265 972 l 265 0 l 99 0 m -19 1039 l -19 1160 l 181 1272 l 382 1160 l 382 1039 l 181 1154 l -19 1039 z "},"Ï":{"ha":363,"x_min":-24,"x_max":388,"o":"m 99 0 l 99 972 l 265 972 l 265 0 l 99 0 m 60 1069 q 0 1093 24 1069 q -24 1151 -24 1117 q 0 1210 -24 1186 q 60 1235 24 1235 q 117 1210 93 1235 q 142 1151 142 1186 q 117 1093 142 1117 q 60 1069 93 1069 m 304 1069 q 246 1093 269 1069 q 222 1151 222 1117 q 246 1210 222 1186 q 304 1235 269 1235 q 363 1210 339 1235 q 386 1151 386 1186 q 363 1093 386 1117 q 304 1069 339 1069 z "},"İ":{"ha":363,"x_min":99,"x_max":265,"o":"m 99 0 l 99 972 l 265 972 l 265 0 l 99 0 m 182 1061 q 123 1085 147 1061 q 99 1144 99 1110 q 123 1203 99 1179 q 182 1228 147 1228 q 240 1203 215 1228 q 264 1144 264 1179 q 240 1085 264 1110 q 182 1061 215 1061 z "},"Ì":{"ha":363,"x_min":22,"x_max":340,"o":"m 99 0 l 99 972 l 265 972 l 265 0 l 99 0 m 324 1032 l 22 1189 l 42 1319 l 42 1319 l 339 1144 l 324 1032 z "},"Ī":{"ha":363,"x_min":-75,"x_max":438,"o":"m 99 0 l 99 972 l 265 972 l 265 0 l 99 0 m -75 1090 l -75 1210 l 438 1210 l 438 1090 l -75 1090 z "},"Į":{"ha":363,"x_min":-28,"x_max":271,"o":"m 99 0 l 99 972 l 265 972 l 265 0 l 99 0 m 153 -289 q 64 -274 106 -289 q -3 -227 22 -258 q -28 -146 -28 -196 q -10 -76 -28 -108 q 48 -10 7 -43 q 160 53 89 22 l 226 81 l 264 1 l 190 -35 q 120 -83 140 -60 q 100 -131 100 -106 q 120 -174 100 -158 q 174 -189 140 -189 q 220 -183 194 -189 q 271 -168 246 -178 l 271 -269 q 215 -283 246 -278 q 153 -289 185 -289 z "},"Ĩ":{"ha":363,"x_min":-49,"x_max":428,"o":"m 99 0 l 99 972 l 265 972 l 265 0 l 99 0 m 269 1044 q 203 1060 231 1044 q 153 1092 176 1076 q 101 1108 129 1108 q 62 1093 78 1108 q 42 1046 46 1078 l -49 1046 q 6 1173 -36 1132 q 108 1214 47 1214 q 174 1198 147 1214 q 225 1166 201 1182 q 276 1150 249 1150 q 316 1165 300 1150 q 336 1213 332 1181 l 428 1213 q 373 1085 415 1126 q 269 1044 331 1044 z "},"J":{"ha":735,"x_min":40,"x_max":638,"o":"m 346 -17 q 184 19 253 -17 q 78 122 115 54 q 40 285 40 189 l 207 285 q 221 204 207 239 q 265 151 235 169 q 342 132 294 132 q 417 150 389 132 q 458 201 444 168 q 471 276 471 233 l 471 972 l 638 972 l 638 276 q 559 59 638 135 q 346 -17 481 -17 z "},"K":{"ha":879,"x_min":99,"x_max":847,"o":"m 99 0 l 99 972 l 265 972 l 265 571 l 632 972 l 839 972 l 479 586 l 847 0 l 644 0 l 361 458 l 265 354 l 265 0 l 99 0 z "},"Ķ":{"ha":879,"x_min":99,"x_max":847,"o":"m 99 0 l 99 972 l 265 972 l 265 571 l 632 972 l 839 972 l 479 586 l 847 0 l 644 0 l 361 458 l 265 354 l 265 0 l 99 0 m 364 -372 l 364 -301 q 415 -281 399 -301 q 431 -218 431 -260 l 431 -197 l 358 -197 l 358 -64 l 503 -64 q 518 -131 514 -97 q 522 -192 522 -164 q 482 -326 522 -279 q 364 -372 442 -372 z "},"L":{"ha":763,"x_min":99,"x_max":699,"o":"m 99 0 l 99 972 l 265 972 l 265 131 l 699 131 l 699 0 l 99 0 z "},"Ĺ":{"ha":763,"x_min":31,"x_max":699,"o":"m 99 0 l 99 972 l 265 972 l 265 131 l 699 131 l 699 0 l 99 0 m 46 1032 l 31 1144 l 328 1319 l 328 1319 l 347 1189 l 46 1032 z "},"Ľ":{"ha":763,"x_min":99,"x_max":699,"o":"m 99 0 l 99 972 l 265 972 l 265 131 l 699 131 l 699 0 l 99 0 m 421 710 l 421 779 q 471 792 456 779 q 486 832 486 806 l 486 857 l 421 857 l 421 996 l 560 996 q 572 927 568 957 q 576 865 576 897 q 537 749 576 789 q 421 710 497 710 z "},"Ļ":{"ha":763,"x_min":99,"x_max":699,"o":"m 99 0 l 99 972 l 265 972 l 265 131 l 699 131 l 699 0 l 99 0 m 356 -372 l 356 -301 q 406 -281 390 -301 q 422 -218 422 -260 l 422 -197 l 350 -197 l 350 -64 l 494 -64 q 510 -131 506 -97 q 514 -192 514 -164 q 474 -326 514 -279 q 356 -372 433 -372 z "},"Ŀ":{"ha":763,"x_min":99,"x_max":699,"o":"m 99 0 l 99 972 l 265 972 l 265 131 l 699 131 l 699 0 l 99 0 m 522 386 q 446 415 475 386 q 417 485 417 444 q 446 558 417 529 q 522 586 475 586 q 597 558 568 586 q 626 485 626 529 q 597 415 626 444 q 522 386 568 386 z "},"Ł":{"ha":797,"x_min":31,"x_max":733,"o":"m 31 376 l 31 514 l 447 657 l 447 519 l 31 376 m 132 0 l 132 972 l 299 972 l 299 131 l 733 131 l 733 0 l 132 0 z "},"M":{"ha":1213,"x_min":99,"x_max":1114,"o":"m 99 0 l 99 972 l 296 972 l 607 344 l 607 344 l 915 972 l 1114 972 l 1114 0 l 947 0 l 947 686 l 947 686 l 672 136 l 542 136 l 265 685 l 265 685 l 265 0 l 99 0 z "},"N":{"ha":997,"x_min":99,"x_max":900,"o":"m 99 0 l 99 972 l 265 972 l 733 269 l 733 269 l 733 972 l 900 972 l 900 0 l 733 0 l 265 701 l 265 701 l 265 0 l 99 0 z "},"Ń":{"ha":997,"x_min":99,"x_max":900,"o":"m 99 0 l 99 972 l 265 972 l 733 269 l 733 269 l 733 972 l 900 972 l 900 0 l 733 0 l 265 701 l 265 701 l 265 0 l 99 0 m 356 1032 l 340 1144 l 638 1319 l 638 1319 l 657 1189 l 356 1032 z "},"Ň":{"ha":997,"x_min":99,"x_max":900,"o":"m 99 0 l 99 972 l 265 972 l 733 269 l 733 269 l 733 972 l 900 972 l 900 0 l 733 0 l 265 701 l 265 701 l 265 0 l 99 0 m 499 1038 l 299 1150 l 299 1271 l 499 1153 l 700 1271 l 700 1150 l 499 1038 z "},"Ņ":{"ha":997,"x_min":99,"x_max":900,"o":"m 99 0 l 99 972 l 265 972 l 733 269 l 733 269 l 733 972 l 900 972 l 900 0 l 733 0 l 265 701 l 265 701 l 265 0 l 99 0 m 424 -372 l 424 -301 q 474 -281 458 -301 q 490 -218 490 -260 l 490 -197 l 418 -197 l 418 -64 l 563 -64 q 578 -131 574 -97 q 582 -192 582 -164 q 542 -326 582 -279 q 424 -372 501 -372 z "},"Ñ":{"ha":997,"x_min":99,"x_max":900,"o":"m 99 0 l 99 972 l 265 972 l 733 269 l 733 269 l 733 972 l 900 972 l 900 0 l 733 0 l 265 701 l 265 701 l 265 0 l 99 0 m 588 1044 q 522 1060 549 1044 q 471 1092 494 1076 q 419 1108 447 1108 q 380 1093 396 1108 q 360 1046 364 1078 l 269 1046 q 324 1173 282 1132 q 426 1214 365 1214 q 492 1198 465 1214 q 543 1166 519 1182 q 594 1150 567 1150 q 634 1165 618 1150 q 654 1213 650 1181 l 746 1213 q 691 1085 733 1126 q 588 1044 649 1044 z "},"Ŋ":{"ha":997,"x_min":99,"x_max":900,"o":"m 99 0 l 99 972 l 265 972 l 733 269 l 733 269 l 733 972 l 900 972 l 900 -82 q 872 -212 900 -162 q 794 -283 844 -261 q 671 -306 743 -306 l 590 -306 l 590 -164 l 646 -164 q 713 -145 693 -164 q 733 -82 733 -126 l 733 0 l 265 701 l 265 701 l 265 0 l 99 0 z "},"O":{"ha":1085,"x_min":64,"x_max":1021,"o":"m 542 -17 q 294 47 401 -17 q 125 223 186 110 q 64 486 64 336 q 125 748 64 635 q 294 925 186 861 q 542 989 401 989 q 793 925 685 989 q 961 748 901 861 q 1021 486 1021 635 q 961 223 1021 336 q 793 47 901 110 q 542 -17 685 -17 m 543 133 q 706 176 636 133 q 813 297 775 218 q 850 486 850 376 q 813 675 850 596 q 706 797 775 754 q 543 839 636 839 q 381 797 450 839 q 273 675 311 754 q 235 486 235 596 q 273 297 235 376 q 381 176 311 218 q 543 133 450 133 z "},"Ó":{"ha":1085,"x_min":64,"x_max":1021,"o":"m 542 -17 q 294 47 401 -17 q 125 223 186 110 q 64 486 64 336 q 125 748 64 635 q 294 925 186 861 q 542 989 401 989 q 793 925 685 989 q 961 748 901 861 q 1021 486 1021 635 q 961 223 1021 336 q 793 47 901 110 q 542 -17 685 -17 m 543 133 q 706 176 636 133 q 813 297 775 218 q 850 486 850 376 q 813 675 850 596 q 706 797 775 754 q 543 839 636 839 q 381 797 450 839 q 273 675 311 754 q 235 486 235 596 q 273 297 235 376 q 381 176 311 218 q 543 133 450 133 m 400 1032 l 385 1144 l 682 1319 l 682 1319 l 701 1189 l 400 1032 z "},"Ŏ":{"ha":1085,"x_min":64,"x_max":1021,"o":"m 542 -17 q 294 47 401 -17 q 125 223 186 110 q 64 486 64 336 q 125 748 64 635 q 294 925 186 861 q 542 989 401 989 q 793 925 685 989 q 961 748 901 861 q 1021 486 1021 635 q 961 223 1021 336 q 793 47 901 110 q 542 -17 685 -17 m 543 133 q 706 176 636 133 q 813 297 775 218 q 850 486 850 376 q 813 675 850 596 q 706 797 775 754 q 543 839 636 839 q 381 797 450 839 q 273 675 311 754 q 235 486 235 596 q 273 297 235 376 q 381 176 311 218 q 543 133 450 133 m 543 1042 q 431 1067 478 1042 q 358 1140 383 1093 q 332 1247 332 1186 l 332 1269 l 421 1269 q 449 1195 421 1222 q 543 1168 476 1168 q 638 1195 611 1168 q 665 1269 665 1222 l 757 1269 l 757 1247 q 731 1139 757 1185 q 657 1067 704 1093 q 543 1042 610 1042 z "},"Ô":{"ha":1085,"x_min":64,"x_max":1021,"o":"m 542 -17 q 294 47 401 -17 q 125 223 186 110 q 64 486 64 336 q 125 748 64 635 q 294 925 186 861 q 542 989 401 989 q 793 925 685 989 q 961 748 901 861 q 1021 486 1021 635 q 961 223 1021 336 q 793 47 901 110 q 542 -17 685 -17 m 543 133 q 706 176 636 133 q 813 297 775 218 q 850 486 850 376 q 813 675 850 596 q 706 797 775 754 q 543 839 636 839 q 381 797 450 839 q 273 675 311 754 q 235 486 235 596 q 273 297 235 376 q 381 176 311 218 q 543 133 450 133 m 343 1039 l 343 1160 l 543 1272 l 744 1160 l 744 1039 l 543 1154 l 343 1039 z "},"Ö":{"ha":1085,"x_min":64,"x_max":1021,"o":"m 542 -17 q 294 47 401 -17 q 125 223 186 110 q 64 486 64 336 q 125 748 64 635 q 294 925 186 861 q 542 989 401 989 q 793 925 685 989 q 961 748 901 861 q 1021 486 1021 635 q 961 223 1021 336 q 793 47 901 110 q 542 -17 685 -17 m 543 133 q 706 176 636 133 q 813 297 775 218 q 850 486 850 376 q 813 675 850 596 q 706 797 775 754 q 543 839 636 839 q 381 797 450 839 q 273 675 311 754 q 235 486 235 596 q 273 297 235 376 q 381 176 311 218 q 543 133 450 133 m 421 1069 q 361 1093 385 1069 q 338 1151 338 1117 q 361 1210 338 1186 q 421 1235 385 1235 q 478 1210 454 1235 q 503 1151 503 1186 q 478 1093 503 1117 q 421 1069 454 1069 m 665 1069 q 607 1093 631 1069 q 583 1151 583 1117 q 607 1210 583 1186 q 665 1235 631 1235 q 724 1210 700 1235 q 747 1151 747 1186 q 724 1093 747 1117 q 665 1069 700 1069 z "},"Ò":{"ha":1085,"x_min":64,"x_max":1021,"o":"m 542 -17 q 294 47 401 -17 q 125 223 186 110 q 64 486 64 336 q 125 748 64 635 q 294 925 186 861 q 542 989 401 989 q 793 925 685 989 q 961 748 901 861 q 1021 486 1021 635 q 961 223 1021 336 q 793 47 901 110 q 542 -17 685 -17 m 543 133 q 706 176 636 133 q 813 297 775 218 q 850 486 850 376 q 813 675 850 596 q 706 797 775 754 q 543 839 636 839 q 381 797 450 839 q 273 675 311 754 q 235 486 235 596 q 273 297 235 376 q 381 176 311 218 q 543 133 450 133 m 686 1032 l 385 1189 l 404 1319 l 404 1319 l 701 1144 l 686 1032 z "},"Ő":{"ha":1085,"x_min":64,"x_max":1021,"o":"m 542 -17 q 294 47 401 -17 q 125 223 186 110 q 64 486 64 336 q 125 748 64 635 q 294 925 186 861 q 542 989 401 989 q 793 925 685 989 q 961 748 901 861 q 1021 486 1021 635 q 961 223 1021 336 q 793 47 901 110 q 542 -17 685 -17 m 543 133 q 706 176 636 133 q 813 297 775 218 q 850 486 850 376 q 813 675 850 596 q 706 797 775 754 q 543 839 636 839 q 381 797 450 839 q 273 675 311 754 q 235 486 235 596 q 273 297 235 376 q 381 176 311 218 q 543 133 450 133 m 589 1040 l 700 1282 l 838 1282 l 696 1040 l 589 1040 m 360 1040 l 457 1282 l 593 1282 l 467 1040 l 360 1040 z "},"Ō":{"ha":1085,"x_min":64,"x_max":1021,"o":"m 542 -17 q 294 47 401 -17 q 125 223 186 110 q 64 486 64 336 q 125 748 64 635 q 294 925 186 861 q 542 989 401 989 q 793 925 685 989 q 961 748 901 861 q 1021 486 1021 635 q 961 223 1021 336 q 793 47 901 110 q 542 -17 685 -17 m 543 133 q 706 176 636 133 q 813 297 775 218 q 850 486 850 376 q 813 675 850 596 q 706 797 775 754 q 543 839 636 839 q 381 797 450 839 q 273 675 311 754 q 235 486 235 596 q 273 297 235 376 q 381 176 311 218 q 543 133 450 133 m 286 1090 l 286 1210 l 799 1210 l 799 1090 l 286 1090 z "},"Ø":{"ha":1079,"x_min":39,"x_max":1040,"o":"m 39 0 l 879 972 l 1040 972 l 201 0 l 39 0 m 542 -17 q 292 47 400 -17 q 124 223 185 110 q 64 486 64 336 q 124 748 64 635 q 292 925 185 861 q 542 989 400 989 q 792 925 685 989 q 960 748 900 861 q 1021 486 1021 635 q 960 223 1021 336 q 792 47 900 110 q 542 -17 685 -17 m 542 133 q 705 176 636 133 q 812 297 774 218 q 850 486 850 376 q 812 675 850 596 q 705 797 774 754 q 542 839 636 839 q 380 797 449 839 q 272 675 311 754 q 233 486 233 596 q 272 297 233 376 q 380 176 311 218 q 542 133 449 133 z "},"Õ":{"ha":1085,"x_min":64,"x_max":1021,"o":"m 542 -17 q 294 47 401 -17 q 125 223 186 110 q 64 486 64 336 q 125 748 64 635 q 294 925 186 861 q 542 989 401 989 q 793 925 685 989 q 961 748 901 861 q 1021 486 1021 635 q 961 223 1021 336 q 793 47 901 110 q 542 -17 685 -17 m 543 133 q 706 176 636 133 q 813 297 775 218 q 850 486 850 376 q 813 675 850 596 q 706 797 775 754 q 543 839 636 839 q 381 797 450 839 q 273 675 311 754 q 235 486 235 596 q 273 297 235 376 q 381 176 311 218 q 543 133 450 133 m 632 1044 q 566 1060 593 1044 q 515 1092 539 1076 q 464 1108 492 1108 q 424 1093 440 1108 q 404 1046 408 1078 l 314 1046 q 368 1173 326 1132 q 471 1214 410 1214 q 537 1198 510 1214 q 588 1166 564 1182 q 639 1150 611 1150 q 678 1165 663 1150 q 699 1213 694 1181 l 790 1213 q 735 1085 778 1126 q 632 1044 693 1044 z "},"Œ":{"ha":1532,"x_min":64,"x_max":1456,"o":"m 538 -17 q 349 19 436 -17 q 199 123 263 56 q 99 282 135 190 q 64 486 64 374 q 99 690 64 597 q 199 849 135 782 q 349 952 263 915 q 536 989 435 989 q 719 950 633 989 q 858 839 804 911 l 858 972 l 1456 972 l 1456 838 l 1025 838 l 1025 558 l 1414 558 l 1414 426 l 1025 426 l 1025 135 l 1456 135 l 1456 0 l 858 0 l 858 131 q 772 50 822 83 q 660 0 721 17 q 538 -17 600 -17 m 546 133 q 705 176 635 133 q 817 297 775 218 q 858 486 858 376 q 817 675 858 596 q 705 797 775 754 q 546 839 635 839 q 388 797 458 839 q 276 675 317 754 q 235 486 235 596 q 276 297 235 376 q 388 176 317 218 q 546 133 458 133 z "},"P":{"ha":839,"x_min":99,"x_max":793,"o":"m 99 0 l 99 972 l 449 972 q 642 933 565 972 q 756 826 718 893 q 793 674 793 760 q 757 526 793 593 q 644 417 721 458 q 449 376 568 376 l 265 376 l 265 0 l 99 0 m 265 513 l 439 513 q 581 556 538 513 q 624 674 624 600 q 581 793 624 750 q 439 836 538 836 l 265 836 l 265 513 z "},"Þ":{"ha":839,"x_min":99,"x_max":793,"o":"m 99 0 l 99 972 l 265 972 l 265 782 l 450 782 q 642 743 567 782 q 756 638 718 704 q 793 486 793 571 q 757 339 793 406 q 645 232 721 272 q 450 192 569 192 l 265 192 l 265 0 l 99 0 m 265 326 l 442 326 q 581 369 538 326 q 624 486 624 413 q 581 603 624 561 q 442 646 538 646 l 265 646 l 265 326 z "},"Q":{"ha":1085,"x_min":64,"x_max":1021,"o":"m 781 -146 l 435 396 l 626 396 l 978 -146 l 781 -146 m 542 -17 q 294 47 401 -17 q 125 223 186 110 q 64 486 64 336 q 125 748 64 635 q 294 925 186 861 q 542 989 401 989 q 793 925 685 989 q 961 748 901 861 q 1021 486 1021 635 q 961 223 1021 336 q 793 47 901 110 q 542 -17 685 -17 m 543 133 q 706 176 636 133 q 813 297 775 218 q 850 486 850 376 q 813 675 850 596 q 706 797 775 754 q 543 839 636 839 q 381 797 450 839 q 273 675 311 754 q 235 486 235 596 q 273 297 235 376 q 381 176 311 218 q 543 133 450 133 z "},"R":{"ha":861,"x_min":99,"x_max":796,"o":"m 99 0 l 99 972 l 447 972 q 638 933 563 972 q 751 827 714 893 q 788 678 788 761 q 751 533 788 600 q 639 426 715 467 q 443 386 563 386 l 265 386 l 265 0 l 99 0 m 606 0 l 401 429 l 582 429 l 796 0 l 606 0 m 265 510 l 436 510 q 573 555 529 510 q 617 674 617 600 q 574 790 617 746 q 436 833 531 833 l 265 833 l 265 510 z "},"Ŕ":{"ha":861,"x_min":99,"x_max":796,"o":"m 99 0 l 99 972 l 447 972 q 638 933 563 972 q 751 827 714 893 q 788 678 788 761 q 751 533 788 600 q 639 426 715 467 q 443 386 563 386 l 265 386 l 265 0 l 99 0 m 606 0 l 401 429 l 582 429 l 796 0 l 606 0 m 265 510 l 436 510 q 573 555 529 510 q 617 674 617 600 q 574 790 617 746 q 436 833 531 833 l 265 833 l 265 510 m 275 1032 l 260 1144 l 557 1319 l 557 1319 l 576 1189 l 275 1032 z "},"Ř":{"ha":861,"x_min":99,"x_max":796,"o":"m 99 0 l 99 972 l 447 972 q 638 933 563 972 q 751 827 714 893 q 788 678 788 761 q 751 533 788 600 q 639 426 715 467 q 443 386 563 386 l 265 386 l 265 0 l 99 0 m 606 0 l 401 429 l 582 429 l 796 0 l 606 0 m 265 510 l 436 510 q 573 555 529 510 q 617 674 617 600 q 574 790 617 746 q 436 833 531 833 l 265 833 l 265 510 m 418 1038 l 218 1150 l 218 1271 l 418 1153 l 619 1271 l 619 1150 l 418 1038 z "},"Ŗ":{"ha":861,"x_min":99,"x_max":796,"o":"m 99 0 l 99 972 l 447 972 q 638 933 563 972 q 751 827 714 893 q 788 678 788 761 q 751 533 788 600 q 639 426 715 467 q 443 386 563 386 l 265 386 l 265 0 l 99 0 m 606 0 l 401 429 l 582 429 l 796 0 l 606 0 m 265 510 l 436 510 q 573 555 529 510 q 617 674 617 600 q 574 790 617 746 q 436 833 531 833 l 265 833 l 265 510 m 343 -372 l 343 -301 q 394 -281 378 -301 q 410 -218 410 -260 l 410 -197 l 338 -197 l 338 -64 l 482 -64 q 497 -131 493 -97 q 501 -192 501 -164 q 461 -326 501 -279 q 343 -372 421 -372 z "},"S":{"ha":829,"x_min":63,"x_max":765,"o":"m 425 -17 q 238 21 319 -17 q 110 128 156 58 q 63 293 64 197 l 239 293 q 262 206 239 244 q 326 146 285 168 q 425 124 367 124 q 512 140 475 124 q 569 185 549 156 q 589 256 589 215 q 567 331 589 301 q 508 382 546 361 q 422 419 471 403 q 319 453 374 435 q 146 552 204 492 q 88 714 88 613 q 128 860 88 799 q 241 955 168 921 q 410 989 314 989 q 580 954 507 989 q 695 858 653 919 q 739 710 738 796 l 561 710 q 542 777 560 746 q 490 828 524 808 q 407 849 456 849 q 333 835 365 850 q 281 794 300 821 q 263 726 263 767 q 280 662 263 688 q 331 619 297 636 q 408 586 364 601 q 506 553 453 571 q 637 495 578 529 q 731 407 696 461 q 765 267 765 353 q 726 127 765 192 q 613 23 688 63 q 425 -17 538 -17 z "},"Ś":{"ha":829,"x_min":63,"x_max":765,"o":"m 425 -17 q 238 21 319 -17 q 110 128 156 58 q 63 293 64 197 l 239 293 q 262 206 239 244 q 326 146 285 168 q 425 124 367 124 q 512 140 475 124 q 569 185 549 156 q 589 256 589 215 q 567 331 589 301 q 508 382 546 361 q 422 419 471 403 q 319 453 374 435 q 146 552 204 492 q 88 714 88 613 q 128 860 88 799 q 241 955 168 921 q 410 989 314 989 q 580 954 507 989 q 695 858 653 919 q 739 710 738 796 l 561 710 q 542 777 560 746 q 490 828 524 808 q 407 849 456 849 q 333 835 365 850 q 281 794 300 821 q 263 726 263 767 q 280 662 263 688 q 331 619 297 636 q 408 586 364 601 q 506 553 453 571 q 637 495 578 529 q 731 407 696 461 q 765 267 765 353 q 726 127 765 192 q 613 23 688 63 q 425 -17 538 -17 m 268 1032 l 253 1144 l 550 1319 l 550 1319 l 569 1189 l 268 1032 z "},"Š":{"ha":829,"x_min":63,"x_max":765,"o":"m 425 -17 q 238 21 319 -17 q 110 128 156 58 q 63 293 64 197 l 239 293 q 262 206 239 244 q 326 146 285 168 q 425 124 367 124 q 512 140 475 124 q 569 185 549 156 q 589 256 589 215 q 567 331 589 301 q 508 382 546 361 q 422 419 471 403 q 319 453 374 435 q 146 552 204 492 q 88 714 88 613 q 128 860 88 799 q 241 955 168 921 q 410 989 314 989 q 580 954 507 989 q 695 858 653 919 q 739 710 738 796 l 561 710 q 542 777 560 746 q 490 828 524 808 q 407 849 456 849 q 333 835 365 850 q 281 794 300 821 q 263 726 263 767 q 280 662 263 688 q 331 619 297 636 q 408 586 364 601 q 506 553 453 571 q 637 495 578 529 q 731 407 696 461 q 765 267 765 353 q 726 127 765 192 q 613 23 688 63 q 425 -17 538 -17 m 411 1038 l 211 1150 l 211 1271 l 411 1153 l 613 1271 l 613 1150 l 411 1038 z "},"Ş":{"ha":829,"x_min":63,"x_max":765,"o":"m 425 -17 q 238 21 319 -17 q 110 128 156 58 q 63 293 64 197 l 239 293 q 262 206 239 244 q 326 146 285 168 q 425 124 367 124 q 512 140 475 124 q 569 185 549 156 q 589 256 589 215 q 567 331 589 301 q 508 382 546 361 q 422 419 471 403 q 319 453 374 435 q 146 552 204 492 q 88 714 88 613 q 128 860 88 799 q 241 955 168 921 q 410 989 314 989 q 580 954 507 989 q 695 858 653 919 q 739 710 738 796 l 561 710 q 542 777 560 746 q 490 828 524 808 q 407 849 456 849 q 333 835 365 850 q 281 794 300 821 q 263 726 263 767 q 280 662 263 688 q 331 619 297 636 q 408 586 364 601 q 506 553 453 571 q 637 495 578 529 q 731 407 696 461 q 765 267 765 353 q 726 127 765 192 q 613 23 688 63 q 425 -17 538 -17 m 308 -367 l 308 -269 l 458 -269 q 518 -257 499 -269 q 538 -215 538 -244 q 518 -178 538 -190 q 458 -165 499 -165 l 378 -165 l 378 7 l 482 7 l 482 -75 q 572 -90 531 -75 q 638 -137 613 -104 q 663 -219 663 -169 q 638 -301 663 -268 q 573 -350 614 -333 q 483 -367 532 -367 l 308 -367 z "},"Ș":{"ha":829,"x_min":63,"x_max":765,"o":"m 425 -17 q 238 21 319 -17 q 110 128 156 58 q 63 293 64 197 l 239 293 q 262 206 239 244 q 326 146 285 168 q 425 124 367 124 q 512 140 475 124 q 569 185 549 156 q 589 256 589 215 q 567 331 589 301 q 508 382 546 361 q 422 419 471 403 q 319 453 374 435 q 146 552 204 492 q 88 714 88 613 q 128 860 88 799 q 241 955 168 921 q 410 989 314 989 q 580 954 507 989 q 695 858 653 919 q 739 710 738 796 l 561 710 q 542 777 560 746 q 490 828 524 808 q 407 849 456 849 q 333 835 365 850 q 281 794 300 821 q 263 726 263 767 q 280 662 263 688 q 331 619 297 636 q 408 586 364 601 q 506 553 453 571 q 637 495 578 529 q 731 407 696 461 q 765 267 765 353 q 726 127 765 192 q 613 23 688 63 q 425 -17 538 -17 m 347 -372 l 347 -301 q 398 -281 382 -301 q 414 -218 414 -260 l 414 -197 l 342 -197 l 342 -64 l 486 -64 q 501 -131 497 -97 q 506 -192 506 -164 q 465 -326 506 -279 q 347 -372 425 -372 z "},"ẞ":{"ha":996,"x_min":99,"x_max":932,"o":"m 632 -7 q 409 71 486 -7 q 332 299 332 149 l 496 299 q 527 178 496 226 q 633 131 558 131 q 715 153 685 131 q 759 215 746 176 q 772 300 772 254 q 724 441 772 394 q 585 488 675 488 l 435 488 l 435 599 l 663 831 l 353 831 q 285 811 306 831 q 265 746 265 792 l 265 0 l 99 0 l 99 749 q 126 878 99 829 q 204 950 153 928 q 326 972 256 972 l 860 972 l 860 846 l 614 600 l 636 600 q 797 563 731 600 q 897 460 863 526 q 932 306 932 393 q 896 137 932 207 q 793 30 860 67 q 632 -7 726 -7 z "},"T":{"ha":815,"x_min":39,"x_max":776,"o":"m 325 0 l 325 838 l 39 838 l 39 972 l 776 972 l 776 838 l 490 838 l 490 0 l 325 0 z "},"Ť":{"ha":815,"x_min":39,"x_max":776,"o":"m 325 0 l 325 838 l 39 838 l 39 972 l 776 972 l 776 838 l 490 838 l 490 0 l 325 0 m 407 1038 l 207 1150 l 207 1271 l 407 1153 l 608 1271 l 608 1150 l 407 1038 z "},"Ţ":{"ha":815,"x_min":39,"x_max":776,"o":"m 325 0 l 325 838 l 39 838 l 39 972 l 776 972 l 776 838 l 490 838 l 490 0 l 325 0 m 292 -367 l 292 -269 l 442 -269 q 501 -257 482 -269 q 521 -215 521 -244 q 501 -178 521 -190 q 442 -165 482 -165 l 361 -165 l 361 7 l 465 7 l 465 -75 q 555 -90 514 -75 q 621 -137 596 -104 q 646 -219 646 -169 q 622 -301 646 -268 q 557 -350 597 -333 q 468 -367 517 -367 l 292 -367 z "},"Ț":{"ha":815,"x_min":39,"x_max":776,"o":"m 325 0 l 325 838 l 39 838 l 39 972 l 776 972 l 776 838 l 490 838 l 490 0 l 325 0 m 331 -372 l 331 -301 q 381 -281 365 -301 q 397 -218 397 -260 l 397 -197 l 325 -197 l 325 -64 l 469 -64 q 485 -131 481 -97 q 489 -192 489 -164 q 449 -326 489 -279 q 331 -372 408 -372 z "},"U":{"ha":939,"x_min":89,"x_max":850,"o":"m 467 -17 q 276 25 361 -17 q 140 153 190 67 q 89 369 89 239 l 89 972 l 256 972 l 256 368 q 282 238 256 289 q 356 160 308 186 q 469 135 404 135 q 584 160 536 135 q 658 238 632 186 q 683 368 683 289 l 683 972 l 850 972 l 850 369 q 799 153 850 239 q 660 25 747 67 q 467 -17 572 -17 z "},"Ú":{"ha":939,"x_min":89,"x_max":850,"o":"m 467 -17 q 276 25 361 -17 q 140 153 190 67 q 89 369 89 239 l 89 972 l 256 972 l 256 368 q 282 238 256 289 q 356 160 308 186 q 469 135 404 135 q 584 160 536 135 q 658 238 632 186 q 683 368 683 289 l 683 972 l 850 972 l 850 369 q 799 153 850 239 q 660 25 747 67 q 467 -17 572 -17 m 325 1032 l 310 1144 l 607 1319 l 607 1319 l 626 1189 l 325 1032 z "},"Ŭ":{"ha":939,"x_min":89,"x_max":850,"o":"m 467 -17 q 276 25 361 -17 q 140 153 190 67 q 89 369 89 239 l 89 972 l 256 972 l 256 368 q 282 238 256 289 q 356 160 308 186 q 469 135 404 135 q 584 160 536 135 q 658 238 632 186 q 683 368 683 289 l 683 972 l 850 972 l 850 369 q 799 153 850 239 q 660 25 747 67 q 467 -17 572 -17 m 468 1042 q 356 1067 403 1042 q 283 1140 308 1093 q 257 1247 257 1186 l 257 1269 l 346 1269 q 374 1195 346 1222 q 468 1168 401 1168 q 563 1195 536 1168 q 590 1269 590 1222 l 682 1269 l 682 1247 q 656 1139 682 1185 q 582 1067 629 1093 q 468 1042 535 1042 z "},"Û":{"ha":939,"x_min":89,"x_max":850,"o":"m 467 -17 q 276 25 361 -17 q 140 153 190 67 q 89 369 89 239 l 89 972 l 256 972 l 256 368 q 282 238 256 289 q 356 160 308 186 q 469 135 404 135 q 584 160 536 135 q 658 238 632 186 q 683 368 683 289 l 683 972 l 850 972 l 850 369 q 799 153 850 239 q 660 25 747 67 q 467 -17 572 -17 m 268 1039 l 268 1160 l 468 1272 l 669 1160 l 669 1039 l 468 1154 l 268 1039 z "},"Ü":{"ha":939,"x_min":89,"x_max":850,"o":"m 467 -17 q 276 25 361 -17 q 140 153 190 67 q 89 369 89 239 l 89 972 l 256 972 l 256 368 q 282 238 256 289 q 356 160 308 186 q 469 135 404 135 q 584 160 536 135 q 658 238 632 186 q 683 368 683 289 l 683 972 l 850 972 l 850 369 q 799 153 850 239 q 660 25 747 67 q 467 -17 572 -17 m 347 1069 q 288 1093 311 1069 q 264 1151 264 1117 q 288 1210 264 1186 q 347 1235 311 1235 q 405 1210 381 1235 q 429 1151 429 1186 q 405 1093 429 1117 q 347 1069 381 1069 m 592 1069 q 533 1093 557 1069 q 510 1151 510 1117 q 533 1210 510 1186 q 592 1235 557 1235 q 650 1210 626 1235 q 674 1151 674 1186 q 650 1093 674 1117 q 592 1069 626 1069 z "},"Ù":{"ha":939,"x_min":89,"x_max":850,"o":"m 467 -17 q 276 25 361 -17 q 140 153 190 67 q 89 369 89 239 l 89 972 l 256 972 l 256 368 q 282 238 256 289 q 356 160 308 186 q 469 135 404 135 q 584 160 536 135 q 658 238 632 186 q 683 368 683 289 l 683 972 l 850 972 l 850 369 q 799 153 850 239 q 660 25 747 67 q 467 -17 572 -17 m 611 1032 l 310 1189 l 329 1319 l 329 1319 l 626 1144 l 611 1032 z "},"Ű":{"ha":939,"x_min":89,"x_max":850,"o":"m 467 -17 q 276 25 361 -17 q 140 153 190 67 q 89 369 89 239 l 89 972 l 256 972 l 256 368 q 282 238 256 289 q 356 160 308 186 q 469 135 404 135 q 584 160 536 135 q 658 238 632 186 q 683 368 683 289 l 683 972 l 850 972 l 850 369 q 799 153 850 239 q 660 25 747 67 q 467 -17 572 -17 m 515 1040 l 626 1282 l 764 1282 l 622 1040 l 515 1040 m 286 1040 l 383 1282 l 519 1282 l 393 1040 l 286 1040 z "},"Ū":{"ha":939,"x_min":89,"x_max":850,"o":"m 467 -17 q 276 25 361 -17 q 140 153 190 67 q 89 369 89 239 l 89 972 l 256 972 l 256 368 q 282 238 256 289 q 356 160 308 186 q 469 135 404 135 q 584 160 536 135 q 658 238 632 186 q 683 368 683 289 l 683 972 l 850 972 l 850 369 q 799 153 850 239 q 660 25 747 67 q 467 -17 572 -17 m 213 1090 l 213 1210 l 725 1210 l 725 1090 l 213 1090 z "},"Ų":{"ha":939,"x_min":89,"x_max":850,"o":"m 467 -17 q 276 25 361 -17 q 140 153 190 67 q 89 369 89 239 l 89 972 l 256 972 l 256 368 q 282 238 256 289 q 356 160 308 186 q 469 135 404 135 q 584 160 536 135 q 658 238 632 186 q 683 368 683 289 l 683 972 l 850 972 l 850 369 q 799 153 850 239 q 660 25 747 67 q 467 -17 572 -17 m 464 -289 q 375 -274 417 -289 q 308 -227 333 -258 q 283 -146 283 -196 q 301 -76 283 -108 q 359 -10 318 -43 q 471 53 400 22 l 538 81 l 575 1 l 501 -35 q 431 -83 451 -60 q 411 -131 411 -106 q 431 -174 411 -158 q 485 -189 451 -189 q 531 -183 506 -189 q 582 -168 557 -178 l 582 -269 q 526 -283 557 -278 q 464 -289 496 -289 z "},"Ů":{"ha":939,"x_min":89,"x_max":850,"o":"m 467 -17 q 276 25 361 -17 q 140 153 190 67 q 89 369 89 239 l 89 972 l 256 972 l 256 368 q 282 238 256 289 q 356 160 308 186 q 469 135 404 135 q 584 160 536 135 q 658 238 632 186 q 683 368 683 289 l 683 972 l 850 972 l 850 369 q 799 153 850 239 q 660 25 747 67 q 467 -17 572 -17 m 469 1046 q 360 1087 406 1046 q 314 1199 314 1128 q 360 1312 314 1271 q 469 1353 406 1353 q 580 1312 535 1353 q 625 1199 625 1271 q 580 1087 625 1128 q 469 1046 535 1046 m 469 1122 q 522 1143 500 1122 q 543 1199 543 1164 q 522 1255 543 1235 q 469 1275 501 1275 q 418 1255 440 1275 q 396 1199 396 1235 q 418 1143 396 1164 q 469 1122 440 1122 z "},"Ũ":{"ha":939,"x_min":89,"x_max":850,"o":"m 467 -17 q 276 25 361 -17 q 140 153 190 67 q 89 369 89 239 l 89 972 l 256 972 l 256 368 q 282 238 256 289 q 356 160 308 186 q 469 135 404 135 q 584 160 536 135 q 658 238 632 186 q 683 368 683 289 l 683 972 l 850 972 l 850 369 q 799 153 850 239 q 660 25 747 67 q 467 -17 572 -17 m 557 1044 q 491 1060 518 1044 q 440 1092 464 1076 q 389 1108 417 1108 q 349 1093 365 1108 q 329 1046 333 1078 l 239 1046 q 293 1173 251 1132 q 396 1214 335 1214 q 462 1198 435 1214 q 513 1166 489 1182 q 564 1150 536 1150 q 603 1165 588 1150 q 624 1213 619 1181 l 715 1213 q 660 1085 703 1126 q 557 1044 618 1044 z "},"V":{"ha":965,"x_min":24,"x_max":942,"o":"m 381 0 l 24 972 l 203 972 l 482 171 l 482 171 l 765 972 l 942 972 l 583 0 l 381 0 z "},"W":{"ha":1393,"x_min":36,"x_max":1358,"o":"m 294 0 l 36 972 l 214 972 l 396 190 l 396 190 l 607 972 l 792 972 l 996 189 l 996 189 l 1179 972 l 1358 972 l 1093 0 l 896 0 l 696 736 l 696 736 l 490 0 l 294 0 z "},"Ẃ":{"ha":1393,"x_min":36,"x_max":1358,"o":"m 294 0 l 36 972 l 214 972 l 396 190 l 396 190 l 607 972 l 792 972 l 996 189 l 996 189 l 1179 972 l 1358 972 l 1093 0 l 896 0 l 696 736 l 696 736 l 490 0 l 294 0 m 554 1032 l 539 1144 l 836 1319 l 836 1319 l 856 1189 l 554 1032 z "},"Ŵ":{"ha":1393,"x_min":36,"x_max":1358,"o":"m 294 0 l 36 972 l 214 972 l 396 190 l 396 190 l 607 972 l 792 972 l 996 189 l 996 189 l 1179 972 l 1358 972 l 1093 0 l 896 0 l 696 736 l 696 736 l 490 0 l 294 0 m 497 1039 l 497 1160 l 697 1272 l 899 1160 l 899 1039 l 697 1154 l 497 1039 z "},"Ẅ":{"ha":1393,"x_min":36,"x_max":1358,"o":"m 294 0 l 36 972 l 214 972 l 396 190 l 396 190 l 607 972 l 792 972 l 996 189 l 996 189 l 1179 972 l 1358 972 l 1093 0 l 896 0 l 696 736 l 696 736 l 490 0 l 294 0 m 576 1069 q 517 1093 540 1069 q 493 1151 493 1117 q 517 1210 493 1186 q 576 1235 540 1235 q 634 1210 610 1235 q 658 1151 658 1186 q 634 1093 658 1117 q 576 1069 610 1069 m 821 1069 q 763 1093 786 1069 q 739 1151 739 1117 q 763 1210 739 1186 q 821 1235 786 1235 q 879 1210 856 1235 q 903 1151 903 1186 q 879 1093 903 1117 q 821 1069 856 1069 z "},"Ẁ":{"ha":1393,"x_min":36,"x_max":1358,"o":"m 294 0 l 36 972 l 214 972 l 396 190 l 396 190 l 607 972 l 792 972 l 996 189 l 996 189 l 1179 972 l 1358 972 l 1093 0 l 896 0 l 696 736 l 696 736 l 490 0 l 294 0 m 840 1032 l 539 1189 l 558 1319 l 558 1319 l 856 1144 l 840 1032 z "},"X":{"ha":903,"x_min":46,"x_max":857,"o":"m 49 0 l 351 492 l 46 972 l 238 972 l 458 624 l 458 624 l 663 972 l 851 972 l 549 485 l 857 0 l 665 0 l 442 353 l 442 353 l 238 0 l 49 0 z "},"Y":{"ha":858,"x_min":22,"x_max":838,"o":"m 346 0 l 346 350 l 22 972 l 211 972 l 449 478 l 413 478 l 650 972 l 838 972 l 513 350 l 513 0 l 346 0 z "},"Ý":{"ha":858,"x_min":22,"x_max":838,"o":"m 346 0 l 346 350 l 22 972 l 211 972 l 449 478 l 413 478 l 650 972 l 838 972 l 513 350 l 513 0 l 346 0 m 286 1032 l 271 1144 l 568 1319 l 568 1319 l 588 1189 l 286 1032 z "},"Ŷ":{"ha":858,"x_min":22,"x_max":838,"o":"m 346 0 l 346 350 l 22 972 l 211 972 l 449 478 l 413 478 l 650 972 l 838 972 l 513 350 l 513 0 l 346 0 m 229 1039 l 229 1160 l 429 1272 l 631 1160 l 631 1039 l 429 1154 l 229 1039 z "},"Ÿ":{"ha":858,"x_min":22,"x_max":838,"o":"m 346 0 l 346 350 l 22 972 l 211 972 l 449 478 l 413 478 l 650 972 l 838 972 l 513 350 l 513 0 l 346 0 m 308 1069 q 249 1093 272 1069 q 225 1151 225 1117 q 249 1210 225 1186 q 308 1235 272 1235 q 366 1210 342 1235 q 390 1151 390 1186 q 366 1093 390 1117 q 308 1069 342 1069 m 553 1069 q 494 1093 518 1069 q 471 1151 471 1117 q 494 1210 471 1186 q 553 1235 518 1235 q 611 1210 588 1235 q 635 1151 635 1186 q 611 1093 635 1117 q 553 1069 588 1069 z "},"Ỳ":{"ha":858,"x_min":22,"x_max":838,"o":"m 346 0 l 346 350 l 22 972 l 211 972 l 449 478 l 413 478 l 650 972 l 838 972 l 513 350 l 513 0 l 346 0 m 572 1032 l 271 1189 l 290 1319 l 290 1319 l 588 1144 l 572 1032 z "},"Ỹ":{"ha":858,"x_min":22,"x_max":838,"o":"m 346 0 l 346 350 l 22 972 l 211 972 l 449 478 l 413 478 l 650 972 l 838 972 l 513 350 l 513 0 l 346 0 m 518 1044 q 452 1060 479 1044 q 401 1092 425 1076 q 350 1108 378 1108 q 310 1093 326 1108 q 290 1046 294 1078 l 200 1046 q 254 1173 213 1132 q 357 1214 296 1214 q 423 1198 396 1214 q 474 1166 450 1182 q 525 1150 497 1150 q 565 1165 549 1150 q 585 1213 581 1181 l 676 1213 q 622 1085 664 1126 q 518 1044 579 1044 z "},"Z":{"ha":788,"x_min":67,"x_max":721,"o":"m 67 0 l 67 128 l 525 832 l 69 832 l 69 972 l 718 972 l 718 844 l 257 140 l 721 140 l 721 0 l 67 0 z "},"Ź":{"ha":788,"x_min":67,"x_max":721,"o":"m 67 0 l 67 128 l 525 832 l 69 832 l 69 972 l 718 972 l 718 844 l 257 140 l 721 140 l 721 0 l 67 0 m 250 1032 l 235 1144 l 532 1319 l 532 1319 l 551 1189 l 250 1032 z "},"Ž":{"ha":788,"x_min":67,"x_max":721,"o":"m 67 0 l 67 128 l 525 832 l 69 832 l 69 972 l 718 972 l 718 844 l 257 140 l 721 140 l 721 0 l 67 0 m 393 1038 l 193 1150 l 193 1271 l 393 1153 l 594 1271 l 594 1150 l 393 1038 z "},"Ż":{"ha":788,"x_min":67,"x_max":721,"o":"m 67 0 l 67 128 l 525 832 l 69 832 l 69 972 l 718 972 l 718 844 l 257 140 l 721 140 l 721 0 l 67 0 m 394 1061 q 335 1085 360 1061 q 311 1144 311 1110 q 335 1203 311 1179 q 394 1228 360 1228 q 452 1203 428 1228 q 476 1144 476 1179 q 452 1085 476 1110 q 394 1061 428 1061 z "},"a":{"ha":797,"x_min":71,"x_max":713,"o":"m 326 -17 q 183 13 240 -17 q 99 90 126 42 q 71 196 71 139 q 105 311 71 263 q 206 387 139 360 q 369 414 272 414 l 546 414 q 531 506 546 469 q 483 561 515 543 q 401 579 451 579 q 304 553 344 579 q 254 475 264 528 l 90 475 q 140 603 99 550 q 251 687 182 657 q 401 717 319 717 q 569 683 500 717 q 676 585 639 649 q 713 433 713 522 l 713 0 l 571 0 l 554 113 l 554 113 q 519 61 540 85 q 469 20 497 38 q 406 -7 442 3 q 326 -17 371 -17 m 364 115 q 435 130 404 115 q 490 172 467 144 q 525 232 513 199 q 542 303 538 265 l 542 306 l 388 306 q 307 293 339 306 q 261 259 275 281 q 247 208 247 238 q 261 158 247 179 q 301 126 275 138 q 364 115 328 115 z "},"á":{"ha":797,"x_min":71,"x_max":713,"o":"m 326 -17 q 183 13 240 -17 q 99 90 126 42 q 71 196 71 139 q 105 311 71 263 q 206 387 139 360 q 369 414 272 414 l 546 414 q 531 506 546 469 q 483 561 515 543 q 401 579 451 579 q 304 553 344 579 q 254 475 264 528 l 90 475 q 140 603 99 550 q 251 687 182 657 q 401 717 319 717 q 569 683 500 717 q 676 585 639 649 q 713 433 713 522 l 713 0 l 571 0 l 554 113 l 554 113 q 519 61 540 85 q 469 20 497 38 q 406 -7 442 3 q 326 -17 371 -17 m 364 115 q 435 130 404 115 q 490 172 467 144 q 525 232 513 199 q 542 303 538 265 l 542 306 l 388 306 q 307 293 339 306 q 261 259 275 281 q 247 208 247 238 q 261 158 247 179 q 301 126 275 138 q 364 115 328 115 m 250 760 l 235 872 l 532 1046 l 532 1046 l 551 917 l 250 760 z "},"ă":{"ha":797,"x_min":71,"x_max":713,"o":"m 326 -17 q 183 13 240 -17 q 99 90 126 42 q 71 196 71 139 q 105 311 71 263 q 206 387 139 360 q 369 414 272 414 l 546 414 q 531 506 546 469 q 483 561 515 543 q 401 579 451 579 q 304 553 344 579 q 254 475 264 528 l 90 475 q 140 603 99 550 q 251 687 182 657 q 401 717 319 717 q 569 683 500 717 q 676 585 639 649 q 713 433 713 522 l 713 0 l 571 0 l 554 113 l 554 113 q 519 61 540 85 q 469 20 497 38 q 406 -7 442 3 q 326 -17 371 -17 m 364 115 q 435 130 404 115 q 490 172 467 144 q 525 232 513 199 q 542 303 538 265 l 542 306 l 388 306 q 307 293 339 306 q 261 259 275 281 q 247 208 247 238 q 261 158 247 179 q 301 126 275 138 q 364 115 328 115 m 393 782 q 281 808 328 782 q 208 879 233 833 q 182 986 182 925 l 182 1008 l 271 1008 q 299 934 271 961 q 393 907 326 907 q 488 934 461 907 q 515 1008 515 961 l 607 1008 l 607 986 q 581 878 607 925 q 507 807 554 832 q 393 782 460 782 z "},"â":{"ha":797,"x_min":71,"x_max":713,"o":"m 326 -17 q 183 13 240 -17 q 99 90 126 42 q 71 196 71 139 q 105 311 71 263 q 206 387 139 360 q 369 414 272 414 l 546 414 q 531 506 546 469 q 483 561 515 543 q 401 579 451 579 q 304 553 344 579 q 254 475 264 528 l 90 475 q 140 603 99 550 q 251 687 182 657 q 401 717 319 717 q 569 683 500 717 q 676 585 639 649 q 713 433 713 522 l 713 0 l 571 0 l 554 113 l 554 113 q 519 61 540 85 q 469 20 497 38 q 406 -7 442 3 q 326 -17 371 -17 m 364 115 q 435 130 404 115 q 490 172 467 144 q 525 232 513 199 q 542 303 538 265 l 542 306 l 388 306 q 307 293 339 306 q 261 259 275 281 q 247 208 247 238 q 261 158 247 179 q 301 126 275 138 q 364 115 328 115 m 193 764 l 193 885 l 393 996 l 594 885 l 594 764 l 393 879 l 193 764 z "},"ä":{"ha":797,"x_min":71,"x_max":713,"o":"m 326 -17 q 183 13 240 -17 q 99 90 126 42 q 71 196 71 139 q 105 311 71 263 q 206 387 139 360 q 369 414 272 414 l 546 414 q 531 506 546 469 q 483 561 515 543 q 401 579 451 579 q 304 553 344 579 q 254 475 264 528 l 90 475 q 140 603 99 550 q 251 687 182 657 q 401 717 319 717 q 569 683 500 717 q 676 585 639 649 q 713 433 713 522 l 713 0 l 571 0 l 554 113 l 554 113 q 519 61 540 85 q 469 20 497 38 q 406 -7 442 3 q 326 -17 371 -17 m 364 115 q 435 130 404 115 q 490 172 467 144 q 525 232 513 199 q 542 303 538 265 l 542 306 l 388 306 q 307 293 339 306 q 261 259 275 281 q 247 208 247 238 q 261 158 247 179 q 301 126 275 138 q 364 115 328 115 m 271 792 q 211 815 235 792 q 188 874 188 839 q 211 933 188 908 q 271 957 235 957 q 328 933 304 957 q 353 874 353 908 q 328 815 353 839 q 271 792 304 792 m 515 792 q 457 815 481 792 q 433 874 433 839 q 457 933 433 908 q 515 957 481 957 q 574 933 550 957 q 597 874 597 908 q 574 815 597 839 q 515 792 550 792 z "},"à":{"ha":797,"x_min":71,"x_max":713,"o":"m 326 -17 q 183 13 240 -17 q 99 90 126 42 q 71 196 71 139 q 105 311 71 263 q 206 387 139 360 q 369 414 272 414 l 546 414 q 531 506 546 469 q 483 561 515 543 q 401 579 451 579 q 304 553 344 579 q 254 475 264 528 l 90 475 q 140 603 99 550 q 251 687 182 657 q 401 717 319 717 q 569 683 500 717 q 676 585 639 649 q 713 433 713 522 l 713 0 l 571 0 l 554 113 l 554 113 q 519 61 540 85 q 469 20 497 38 q 406 -7 442 3 q 326 -17 371 -17 m 364 115 q 435 130 404 115 q 490 172 467 144 q 525 232 513 199 q 542 303 538 265 l 542 306 l 388 306 q 307 293 339 306 q 261 259 275 281 q 247 208 247 238 q 261 158 247 179 q 301 126 275 138 q 364 115 328 115 m 536 760 l 235 917 l 254 1046 l 254 1046 l 551 872 l 536 760 z "},"ā":{"ha":797,"x_min":71,"x_max":713,"o":"m 326 -17 q 183 13 240 -17 q 99 90 126 42 q 71 196 71 139 q 105 311 71 263 q 206 387 139 360 q 369 414 272 414 l 546 414 q 531 506 546 469 q 483 561 515 543 q 401 579 451 579 q 304 553 344 579 q 254 475 264 528 l 90 475 q 140 603 99 550 q 251 687 182 657 q 401 717 319 717 q 569 683 500 717 q 676 585 639 649 q 713 433 713 522 l 713 0 l 571 0 l 554 113 l 554 113 q 519 61 540 85 q 469 20 497 38 q 406 -7 442 3 q 326 -17 371 -17 m 364 115 q 435 130 404 115 q 490 172 467 144 q 525 232 513 199 q 542 303 538 265 l 542 306 l 388 306 q 307 293 339 306 q 261 259 275 281 q 247 208 247 238 q 261 158 247 179 q 301 126 275 138 q 364 115 328 115 m 136 825 l 136 943 l 649 943 l 649 825 l 136 825 z "},"ą":{"ha":797,"x_min":71,"x_max":719,"o":"m 326 -17 q 183 13 240 -17 q 99 90 126 42 q 71 196 71 139 q 105 311 71 263 q 206 387 139 360 q 369 414 272 414 l 546 414 q 531 506 546 469 q 483 561 515 543 q 401 579 451 579 q 304 553 344 579 q 254 475 264 528 l 90 475 q 140 603 99 550 q 251 687 182 657 q 401 717 319 717 q 569 683 500 717 q 676 585 639 649 q 713 433 713 522 l 713 0 l 571 0 l 554 113 l 554 113 q 519 61 540 85 q 469 20 497 38 q 406 -7 442 3 q 326 -17 371 -17 m 364 115 q 435 130 404 115 q 490 172 467 144 q 525 232 513 199 q 542 303 538 265 l 542 306 l 388 306 q 307 293 339 306 q 261 259 275 281 q 247 208 247 238 q 261 158 247 179 q 301 126 275 138 q 364 115 328 115 m 601 -290 q 513 -275 554 -290 q 446 -228 471 -260 q 421 -147 421 -197 q 438 -77 421 -110 q 497 -12 456 -44 q 608 51 538 21 l 675 79 l 713 0 l 639 -36 q 569 -84 589 -61 q 549 -132 549 -107 q 569 -175 549 -160 q 622 -190 589 -190 q 669 -185 643 -190 q 719 -169 694 -179 l 719 -271 q 664 -285 694 -279 q 601 -290 633 -290 z "},"å":{"ha":797,"x_min":71,"x_max":713,"o":"m 326 -17 q 183 13 240 -17 q 99 90 126 42 q 71 196 71 139 q 105 311 71 263 q 206 387 139 360 q 369 414 272 414 l 546 414 q 531 506 546 469 q 483 561 515 543 q 401 579 451 579 q 304 553 344 579 q 254 475 264 528 l 90 475 q 140 603 99 550 q 251 687 182 657 q 401 717 319 717 q 569 683 500 717 q 676 585 639 649 q 713 433 713 522 l 713 0 l 571 0 l 554 113 l 554 113 q 519 61 540 85 q 469 20 497 38 q 406 -7 442 3 q 326 -17 371 -17 m 364 115 q 435 130 404 115 q 490 172 467 144 q 525 232 513 199 q 542 303 538 265 l 542 306 l 388 306 q 307 293 339 306 q 261 259 275 281 q 247 208 247 238 q 261 158 247 179 q 301 126 275 138 q 364 115 328 115 m 393 792 q 283 832 329 792 q 238 944 238 872 q 283 1056 238 1015 q 393 1097 329 1097 q 503 1056 458 1097 q 549 944 549 1015 q 503 832 549 872 q 393 792 458 792 m 393 868 q 445 889 424 868 q 467 944 467 910 q 446 1001 467 981 q 393 1021 425 1021 q 342 1001 364 1021 q 319 944 319 981 q 342 889 319 910 q 393 868 364 868 z "},"ã":{"ha":797,"x_min":71,"x_max":713,"o":"m 326 -17 q 183 13 240 -17 q 99 90 126 42 q 71 196 71 139 q 105 311 71 263 q 206 387 139 360 q 369 414 272 414 l 546 414 q 531 506 546 469 q 483 561 515 543 q 401 579 451 579 q 304 553 344 579 q 254 475 264 528 l 90 475 q 140 603 99 550 q 251 687 182 657 q 401 717 319 717 q 569 683 500 717 q 676 585 639 649 q 713 433 713 522 l 713 0 l 571 0 l 554 113 l 554 113 q 519 61 540 85 q 469 20 497 38 q 406 -7 442 3 q 326 -17 371 -17 m 364 115 q 435 130 404 115 q 490 172 467 144 q 525 232 513 199 q 542 303 538 265 l 542 306 l 388 306 q 307 293 339 306 q 261 259 275 281 q 247 208 247 238 q 261 158 247 179 q 301 126 275 138 q 364 115 328 115 m 474 792 q 408 808 435 792 q 357 840 381 824 q 306 856 333 856 q 266 840 282 856 q 246 793 250 825 l 156 793 q 210 919 168 879 q 313 960 251 960 q 378 944 351 960 q 429 912 406 928 q 481 896 453 896 q 520 912 504 896 q 540 958 536 928 l 632 958 q 577 833 619 874 q 474 792 535 792 z "},"æ":{"ha":1299,"x_min":71,"x_max":1238,"o":"m 338 -17 q 190 13 250 -17 q 101 90 131 42 q 71 197 71 139 q 104 313 71 264 q 203 389 138 363 q 365 415 269 415 l 549 415 q 534 507 549 471 q 488 561 519 543 q 406 579 456 579 q 313 553 353 579 q 265 478 274 528 l 100 478 q 150 605 108 551 q 259 688 192 658 q 406 717 326 717 q 554 689 492 717 q 654 611 617 661 q 763 689 700 661 q 901 717 826 717 q 1079 671 1004 717 q 1196 548 1154 625 q 1238 375 1238 471 q 1238 344 1238 361 q 1235 310 1238 328 l 718 310 q 747 206 722 249 q 813 142 772 164 q 899 121 853 121 q 1000 150 961 121 q 1058 226 1039 179 l 1224 226 q 1161 103 1206 158 q 1051 15 1117 47 q 901 -17 985 -17 q 737 22 811 -17 q 617 128 663 61 q 548 53 589 86 q 456 1 507 19 q 338 -17 404 -17 m 361 115 q 449 140 411 115 q 512 206 488 164 q 543 296 536 247 l 543 308 l 386 308 q 306 297 338 308 q 261 263 275 285 q 247 213 247 240 q 261 160 247 182 q 301 127 275 139 q 361 115 326 115 m 721 417 l 1071 417 q 1019 538 1067 494 q 901 581 971 581 q 820 562 858 581 q 756 507 782 543 q 721 417 729 471 z "},"ǽ":{"ha":1299,"x_min":71,"x_max":1238,"o":"m 338 -17 q 190 13 250 -17 q 101 90 131 42 q 71 197 71 139 q 104 313 71 264 q 203 389 138 363 q 365 415 269 415 l 549 415 q 534 507 549 471 q 488 561 519 543 q 406 579 456 579 q 313 553 353 579 q 265 478 274 528 l 100 478 q 150 605 108 551 q 259 688 192 658 q 406 717 326 717 q 554 689 492 717 q 654 611 617 661 q 763 689 700 661 q 901 717 826 717 q 1079 671 1004 717 q 1196 548 1154 625 q 1238 375 1238 471 q 1238 344 1238 361 q 1235 310 1238 328 l 718 310 q 747 206 722 249 q 813 142 772 164 q 899 121 853 121 q 1000 150 961 121 q 1058 226 1039 179 l 1224 226 q 1161 103 1206 158 q 1051 15 1117 47 q 901 -17 985 -17 q 737 22 811 -17 q 617 128 663 61 q 548 53 589 86 q 456 1 507 19 q 338 -17 404 -17 m 361 115 q 449 140 411 115 q 512 206 488 164 q 543 296 536 247 l 543 308 l 386 308 q 306 297 338 308 q 261 263 275 285 q 247 213 247 240 q 261 160 247 182 q 301 127 275 139 q 361 115 326 115 m 721 417 l 1071 417 q 1019 538 1067 494 q 901 581 971 581 q 820 562 858 581 q 756 507 782 543 q 721 417 729 471 m 507 760 l 492 872 l 789 1046 l 789 1046 l 808 917 l 507 760 z "},"b":{"ha":897,"x_min":93,"x_max":829,"o":"m 493 -17 q 393 -2 438 -17 q 315 38 349 13 q 260 97 282 64 l 260 97 l 242 0 l 93 0 l 93 1000 l 260 1000 l 260 597 q 350 683 293 649 q 492 717 407 717 q 666 669 590 717 q 785 538 742 621 q 829 349 829 456 q 786 161 829 244 q 667 31 743 78 q 493 -17 592 -17 m 458 128 q 563 156 517 128 q 634 234 608 185 q 660 350 660 283 q 634 465 660 415 q 563 543 608 515 q 458 571 517 571 q 353 543 399 571 q 283 465 308 515 q 257 350 257 415 q 283 234 257 283 q 353 156 308 185 q 458 128 399 128 z "},"c":{"ha":828,"x_min":69,"x_max":760,"o":"m 425 -17 q 241 30 322 -17 q 115 159 160 76 q 69 347 69 242 q 115 540 69 457 q 241 669 160 622 q 426 717 322 717 q 646 648 557 717 q 760 460 735 579 l 585 460 q 527 543 571 513 q 424 574 483 574 q 330 547 372 574 q 263 471 288 521 q 239 350 239 421 q 253 254 239 296 q 292 184 267 213 q 351 140 318 156 q 424 125 385 125 q 497 138 464 125 q 552 178 529 151 q 585 240 575 204 l 760 240 q 646 53 735 124 q 425 -17 557 -17 z "},"ć":{"ha":828,"x_min":69,"x_max":760,"o":"m 425 -17 q 241 30 322 -17 q 115 159 160 76 q 69 347 69 242 q 115 540 69 457 q 241 669 160 622 q 426 717 322 717 q 646 648 557 717 q 760 460 735 579 l 585 460 q 527 543 571 513 q 424 574 483 574 q 330 547 372 574 q 263 471 288 521 q 239 350 239 421 q 253 254 239 296 q 292 184 267 213 q 351 140 318 156 q 424 125 385 125 q 497 138 464 125 q 552 178 529 151 q 585 240 575 204 l 760 240 q 646 53 735 124 q 425 -17 557 -17 m 271 760 l 256 872 l 553 1046 l 553 1046 l 572 917 l 271 760 z "},"č":{"ha":828,"x_min":69,"x_max":760,"o":"m 425 -17 q 241 30 322 -17 q 115 159 160 76 q 69 347 69 242 q 115 540 69 457 q 241 669 160 622 q 426 717 322 717 q 646 648 557 717 q 760 460 735 579 l 585 460 q 527 543 571 513 q 424 574 483 574 q 330 547 372 574 q 263 471 288 521 q 239 350 239 421 q 253 254 239 296 q 292 184 267 213 q 351 140 318 156 q 424 125 385 125 q 497 138 464 125 q 552 178 529 151 q 585 240 575 204 l 760 240 q 646 53 735 124 q 425 -17 557 -17 m 414 782 l 214 893 l 214 1014 l 414 896 l 615 1014 l 615 893 l 414 782 z "},"ç":{"ha":828,"x_min":69,"x_max":760,"o":"m 425 -17 q 241 30 322 -17 q 115 159 160 76 q 69 347 69 242 q 115 540 69 457 q 241 669 160 622 q 426 717 322 717 q 646 648 557 717 q 760 460 735 579 l 585 460 q 527 543 571 513 q 424 574 483 574 q 330 547 372 574 q 263 471 288 521 q 239 350 239 421 q 253 254 239 296 q 292 184 267 213 q 351 140 318 156 q 424 125 385 125 q 497 138 464 125 q 552 178 529 151 q 585 240 575 204 l 760 240 q 646 53 735 124 q 425 -17 557 -17 m 300 -367 l 300 -269 l 450 -269 q 510 -257 490 -269 q 529 -215 529 -244 q 510 -178 529 -190 q 450 -165 490 -165 l 369 -165 l 369 7 l 474 7 l 474 -75 q 563 -90 522 -75 q 629 -137 604 -104 q 654 -219 654 -169 q 630 -301 654 -268 q 565 -350 606 -333 q 475 -367 524 -367 l 300 -367 z "},"ċ":{"ha":828,"x_min":69,"x_max":760,"o":"m 425 -17 q 241 30 322 -17 q 115 159 160 76 q 69 347 69 242 q 115 540 69 457 q 241 669 160 622 q 426 717 322 717 q 646 648 557 717 q 760 460 735 579 l 585 460 q 527 543 571 513 q 424 574 483 574 q 330 547 372 574 q 263 471 288 521 q 239 350 239 421 q 253 254 239 296 q 292 184 267 213 q 351 140 318 156 q 424 125 385 125 q 497 138 464 125 q 552 178 529 151 q 585 240 575 204 l 760 240 q 646 53 735 124 q 425 -17 557 -17 m 414 793 q 355 817 379 793 q 331 875 331 840 q 355 934 331 910 q 414 958 379 958 q 472 934 447 958 q 496 875 496 910 q 472 817 496 840 q 414 793 447 793 z "},"d":{"ha":897,"x_min":69,"x_max":806,"o":"m 404 -17 q 231 31 307 -17 q 112 161 154 78 q 69 350 69 244 q 113 538 69 456 q 233 669 156 621 q 407 717 310 717 q 545 687 486 717 q 639 603 604 657 l 639 1000 l 806 1000 l 806 0 l 656 0 l 639 101 l 639 101 q 585 44 617 71 q 508 0 553 17 q 404 -17 464 -17 m 439 128 q 544 156 499 128 q 615 235 590 185 q 640 350 640 285 q 615 465 640 415 q 544 543 590 515 q 439 571 499 571 q 336 543 382 571 q 265 465 290 515 q 239 350 239 415 q 265 235 239 285 q 336 156 290 185 q 439 128 382 128 z "},"ď":{"ha":1035,"x_min":69,"x_max":1021,"o":"m 404 -17 q 231 31 307 -17 q 112 161 154 78 q 69 350 69 244 q 113 538 69 456 q 233 669 156 621 q 407 717 310 717 q 545 687 486 717 q 639 603 604 657 l 639 1000 l 806 1000 l 806 0 l 656 0 l 639 101 l 639 101 q 585 44 617 71 q 508 0 553 17 q 404 -17 464 -17 m 439 128 q 544 156 499 128 q 615 235 590 185 q 640 350 640 285 q 615 465 640 415 q 544 543 590 515 q 439 571 499 571 q 336 543 382 571 q 265 465 290 515 q 239 350 239 415 q 265 235 239 285 q 336 156 290 185 q 439 128 382 128 m 865 738 l 865 807 q 915 820 900 807 q 931 860 931 833 l 931 885 l 865 885 l 865 1024 l 1004 1024 q 1017 955 1013 985 q 1021 893 1021 925 q 981 777 1021 817 q 865 738 942 738 z "},"đ":{"ha":947,"x_min":69,"x_max":907,"o":"m 446 786 l 446 892 l 907 892 l 907 786 l 446 786 m 404 -17 q 231 31 307 -17 q 112 161 154 78 q 69 350 69 244 q 113 538 69 456 q 233 669 156 621 q 407 717 310 717 q 545 687 486 717 q 639 603 604 657 l 639 1000 l 806 1000 l 806 0 l 656 0 l 639 101 l 639 101 q 585 44 617 71 q 508 0 553 17 q 404 -17 464 -17 m 439 128 q 544 156 499 128 q 615 235 590 185 q 640 350 640 285 q 615 465 640 415 q 544 543 590 515 q 439 571 499 571 q 336 543 382 571 q 265 465 290 515 q 239 350 239 415 q 265 235 239 285 q 336 156 290 185 q 439 128 382 128 z "},"ð":{"ha":881,"x_min":69,"x_max":811,"o":"m 436 -17 q 246 31 329 -17 q 116 160 163 79 q 69 344 69 242 q 115 530 69 449 q 242 657 161 611 q 426 703 324 703 q 533 687 483 703 q 625 635 583 671 q 582 726 607 681 q 525 814 557 771 q 456 897 493 857 q 376 972 419 936 l 535 972 q 661 838 608 910 q 747 690 714 765 q 795 538 779 614 q 811 392 811 463 q 762 175 811 267 q 628 33 713 83 q 436 -17 543 -17 m 440 125 q 540 151 494 125 q 613 227 586 178 q 640 344 640 276 q 613 461 640 413 q 540 536 586 510 q 440 563 494 563 q 340 536 385 563 q 267 461 294 510 q 239 344 239 413 q 267 227 239 276 q 340 151 294 178 q 440 125 386 125 m 350 749 l 350 851 l 754 985 l 754 882 l 350 749 z "},"e":{"ha":822,"x_min":69,"x_max":761,"o":"m 421 -17 q 238 28 317 -17 q 114 156 158 74 q 69 344 69 238 q 113 539 69 456 q 237 669 157 622 q 422 717 317 717 q 601 671 525 717 q 719 548 678 625 q 761 375 761 471 q 761 344 761 361 q 758 310 761 328 l 189 310 l 189 417 l 593 417 q 542 537 590 493 q 421 581 493 581 q 326 557 369 581 q 258 487 283 533 q 233 369 233 440 l 233 329 q 258 217 233 264 q 324 145 282 169 q 419 121 367 121 q 516 146 478 121 q 572 213 554 171 l 742 213 q 678 95 722 147 q 568 13 633 43 q 421 -17 503 -17 z "},"é":{"ha":822,"x_min":69,"x_max":761,"o":"m 421 -17 q 238 28 317 -17 q 114 156 158 74 q 69 344 69 238 q 113 539 69 456 q 237 669 157 622 q 422 717 317 717 q 601 671 525 717 q 719 548 678 625 q 761 375 761 471 q 761 344 761 361 q 758 310 761 328 l 189 310 l 189 417 l 593 417 q 542 537 590 493 q 421 581 493 581 q 326 557 369 581 q 258 487 283 533 q 233 369 233 440 l 233 329 q 258 217 233 264 q 324 145 282 169 q 419 121 367 121 q 516 146 478 121 q 572 213 554 171 l 742 213 q 678 95 722 147 q 568 13 633 43 q 421 -17 503 -17 m 274 760 l 258 872 l 556 1046 l 556 1046 l 575 917 l 274 760 z "},"ĕ":{"ha":822,"x_min":69,"x_max":761,"o":"m 421 -17 q 238 28 317 -17 q 114 156 158 74 q 69 344 69 238 q 113 539 69 456 q 237 669 157 622 q 422 717 317 717 q 601 671 525 717 q 719 548 678 625 q 761 375 761 471 q 761 344 761 361 q 758 310 761 328 l 189 310 l 189 417 l 593 417 q 542 537 590 493 q 421 581 493 581 q 326 557 369 581 q 258 487 283 533 q 233 369 233 440 l 233 329 q 258 217 233 264 q 324 145 282 169 q 419 121 367 121 q 516 146 478 121 q 572 213 554 171 l 742 213 q 678 95 722 147 q 568 13 633 43 q 421 -17 503 -17 m 417 782 q 304 808 351 782 q 231 879 257 833 q 206 986 206 925 l 206 1008 l 294 1008 q 322 934 294 961 q 417 907 350 907 q 512 934 485 907 q 539 1008 539 961 l 631 1008 l 631 986 q 604 878 631 925 q 531 807 578 832 q 417 782 483 782 z "},"ě":{"ha":822,"x_min":69,"x_max":761,"o":"m 421 -17 q 238 28 317 -17 q 114 156 158 74 q 69 344 69 238 q 113 539 69 456 q 237 669 157 622 q 422 717 317 717 q 601 671 525 717 q 719 548 678 625 q 761 375 761 471 q 761 344 761 361 q 758 310 761 328 l 189 310 l 189 417 l 593 417 q 542 537 590 493 q 421 581 493 581 q 326 557 369 581 q 258 487 283 533 q 233 369 233 440 l 233 329 q 258 217 233 264 q 324 145 282 169 q 419 121 367 121 q 516 146 478 121 q 572 213 554 171 l 742 213 q 678 95 722 147 q 568 13 633 43 q 421 -17 503 -17 m 417 782 l 217 893 l 217 1014 l 417 896 l 618 1014 l 618 893 l 417 782 z "},"ê":{"ha":822,"x_min":69,"x_max":761,"o":"m 421 -17 q 238 28 317 -17 q 114 156 158 74 q 69 344 69 238 q 113 539 69 456 q 237 669 157 622 q 422 717 317 717 q 601 671 525 717 q 719 548 678 625 q 761 375 761 471 q 761 344 761 361 q 758 310 761 328 l 189 310 l 189 417 l 593 417 q 542 537 590 493 q 421 581 493 581 q 326 557 369 581 q 258 487 283 533 q 233 369 233 440 l 233 329 q 258 217 233 264 q 324 145 282 169 q 419 121 367 121 q 516 146 478 121 q 572 213 554 171 l 742 213 q 678 95 722 147 q 568 13 633 43 q 421 -17 503 -17 m 217 764 l 217 885 l 417 996 l 618 885 l 618 764 l 417 879 l 217 764 z "},"ë":{"ha":822,"x_min":69,"x_max":761,"o":"m 421 -17 q 238 28 317 -17 q 114 156 158 74 q 69 344 69 238 q 113 539 69 456 q 237 669 157 622 q 422 717 317 717 q 601 671 525 717 q 719 548 678 625 q 761 375 761 471 q 761 344 761 361 q 758 310 761 328 l 189 310 l 189 417 l 593 417 q 542 537 590 493 q 421 581 493 581 q 326 557 369 581 q 258 487 283 533 q 233 369 233 440 l 233 329 q 258 217 233 264 q 324 145 282 169 q 419 121 367 121 q 516 146 478 121 q 572 213 554 171 l 742 213 q 678 95 722 147 q 568 13 633 43 q 421 -17 503 -17 m 296 792 q 236 815 260 792 q 213 874 213 839 q 236 933 213 908 q 296 957 260 957 q 353 933 329 957 q 378 874 378 908 q 353 815 378 839 q 296 792 329 792 m 540 792 q 482 815 506 792 q 458 874 458 839 q 482 933 458 908 q 540 957 506 957 q 599 933 575 957 q 622 874 622 908 q 599 815 622 839 q 540 792 575 792 z "},"ė":{"ha":822,"x_min":69,"x_max":761,"o":"m 421 -17 q 238 28 317 -17 q 114 156 158 74 q 69 344 69 238 q 113 539 69 456 q 237 669 157 622 q 422 717 317 717 q 601 671 525 717 q 719 548 678 625 q 761 375 761 471 q 761 344 761 361 q 758 310 761 328 l 189 310 l 189 417 l 593 417 q 542 537 590 493 q 421 581 493 581 q 326 557 369 581 q 258 487 283 533 q 233 369 233 440 l 233 329 q 258 217 233 264 q 324 145 282 169 q 419 121 367 121 q 516 146 478 121 q 572 213 554 171 l 742 213 q 678 95 722 147 q 568 13 633 43 q 421 -17 503 -17 m 418 793 q 359 817 383 793 q 335 875 335 840 q 359 934 335 910 q 418 958 383 958 q 476 934 451 958 q 500 875 500 910 q 476 817 500 840 q 418 793 451 793 z "},"è":{"ha":822,"x_min":69,"x_max":761,"o":"m 421 -17 q 238 28 317 -17 q 114 156 158 74 q 69 344 69 238 q 113 539 69 456 q 237 669 157 622 q 422 717 317 717 q 601 671 525 717 q 719 548 678 625 q 761 375 761 471 q 761 344 761 361 q 758 310 761 328 l 189 310 l 189 417 l 593 417 q 542 537 590 493 q 421 581 493 581 q 326 557 369 581 q 258 487 283 533 q 233 369 233 440 l 233 329 q 258 217 233 264 q 324 145 282 169 q 419 121 367 121 q 516 146 478 121 q 572 213 554 171 l 742 213 q 678 95 722 147 q 568 13 633 43 q 421 -17 503 -17 m 560 760 l 258 917 l 278 1046 l 278 1046 l 575 872 l 560 760 z "},"ē":{"ha":822,"x_min":69,"x_max":761,"o":"m 421 -17 q 238 28 317 -17 q 114 156 158 74 q 69 344 69 238 q 113 539 69 456 q 237 669 157 622 q 422 717 317 717 q 601 671 525 717 q 719 548 678 625 q 761 375 761 471 q 761 344 761 361 q 758 310 761 328 l 189 310 l 189 417 l 593 417 q 542 537 590 493 q 421 581 493 581 q 326 557 369 581 q 258 487 283 533 q 233 369 233 440 l 233 329 q 258 217 233 264 q 324 145 282 169 q 419 121 367 121 q 516 146 478 121 q 572 213 554 171 l 742 213 q 678 95 722 147 q 568 13 633 43 q 421 -17 503 -17 m 161 825 l 161 943 l 674 943 l 674 825 l 161 825 z "},"ę":{"ha":822,"x_min":69,"x_max":761,"o":"m 421 -17 q 238 28 317 -17 q 114 156 158 74 q 69 344 69 238 q 113 539 69 456 q 237 669 157 622 q 422 717 317 717 q 601 671 525 717 q 719 548 678 625 q 761 375 761 471 q 761 344 761 361 q 758 310 761 328 l 189 310 l 189 417 l 593 417 q 542 537 590 493 q 421 581 493 581 q 326 557 369 581 q 258 487 283 533 q 233 369 233 440 l 233 329 q 258 217 233 264 q 324 145 282 169 q 419 121 367 121 q 516 146 478 121 q 572 213 554 171 l 742 213 q 678 95 722 147 q 568 13 633 43 q 421 -17 503 -17 m 451 -275 q 363 -260 404 -275 q 296 -213 321 -244 q 271 -132 271 -182 q 288 -62 271 -94 q 347 3 306 -29 q 458 67 388 36 l 525 94 l 563 15 l 489 -21 q 419 -69 439 -46 q 399 -117 399 -92 q 419 -160 399 -144 q 472 -175 439 -175 q 519 -169 493 -175 q 569 -154 544 -164 l 569 -256 q 514 -269 544 -264 q 451 -275 483 -275 z "},"ẽ":{"ha":822,"x_min":69,"x_max":761,"o":"m 421 -17 q 238 28 317 -17 q 114 156 158 74 q 69 344 69 238 q 113 539 69 456 q 237 669 157 622 q 422 717 317 717 q 601 671 525 717 q 719 548 678 625 q 761 375 761 471 q 761 344 761 361 q 758 310 761 328 l 189 310 l 189 417 l 593 417 q 542 537 590 493 q 421 581 493 581 q 326 557 369 581 q 258 487 283 533 q 233 369 233 440 l 233 329 q 258 217 233 264 q 324 145 282 169 q 419 121 367 121 q 516 146 478 121 q 572 213 554 171 l 742 213 q 678 95 722 147 q 568 13 633 43 q 421 -17 503 -17 m 497 792 q 431 808 458 792 q 381 840 404 824 q 329 856 357 856 q 290 840 306 856 q 269 793 274 825 l 179 793 q 233 919 192 879 q 336 960 275 960 q 402 944 375 960 q 453 912 429 928 q 504 896 476 896 q 544 912 528 896 q 564 958 560 928 l 656 958 q 601 833 643 874 q 497 792 558 792 z "},"ə":{"ha":822,"x_min":61,"x_max":754,"o":"m 401 717 q 585 671 506 717 q 709 544 664 625 q 754 354 754 463 q 710 162 754 246 q 586 31 665 78 q 400 -17 507 -17 q 221 28 297 -17 q 103 151 144 74 q 61 324 61 229 q 62 355 61 339 q 64 390 63 371 l 633 390 l 633 282 l 229 282 q 281 163 232 207 q 401 119 329 119 q 497 143 454 119 q 565 214 539 167 q 590 329 590 261 l 590 369 q 565 483 590 436 q 498 554 540 529 q 403 579 456 579 q 307 554 344 579 q 250 488 269 529 l 81 488 q 145 604 101 553 q 254 686 189 656 q 401 717 319 717 z "},"f":{"ha":503,"x_min":28,"x_max":453,"o":"m 128 0 l 128 776 q 155 906 128 857 q 233 978 182 956 q 356 1000 285 1000 l 439 1000 l 439 858 l 381 858 q 315 840 335 858 q 294 775 294 821 l 294 0 l 128 0 m 28 560 l 28 700 l 453 700 l 453 560 l 28 560 z "},"g":{"ha":813,"x_min":58,"x_max":758,"o":"m 388 -322 q 215 -298 289 -322 q 99 -224 140 -274 q 58 -101 58 -175 q 80 -17 58 -58 q 145 59 101 24 q 257 121 189 94 l 331 40 q 238 -17 264 17 q 211 -85 211 -50 q 234 -145 211 -121 q 297 -182 257 -169 q 386 -194 336 -194 q 471 -181 435 -194 q 527 -144 507 -168 q 547 -87 547 -121 q 518 -20 547 -46 q 403 11 489 6 q 274 27 329 17 q 178 51 218 38 q 111 83 139 65 q 65 118 83 100 l 65 150 l 211 303 l 335 263 l 171 103 l 214 183 q 242 165 228 174 q 280 151 257 157 q 340 139 303 144 q 438 128 378 133 q 589 94 531 121 q 675 24 647 68 q 703 -83 703 -21 q 669 -199 703 -144 q 565 -287 635 -253 q 388 -322 496 -322 m 388 210 q 237 244 300 210 q 140 335 174 278 q 107 463 107 393 q 140 590 107 533 q 237 682 174 647 q 388 717 300 717 q 538 682 475 717 q 633 590 600 647 q 667 463 667 533 q 633 335 667 393 q 538 244 600 278 q 388 210 475 210 m 388 339 q 483 371 447 339 q 519 463 519 403 q 483 553 519 522 q 388 585 447 585 q 290 553 328 585 q 253 463 253 522 q 290 371 253 403 q 388 339 328 339 m 503 578 l 471 700 l 758 700 l 758 594 l 503 578 z "},"ğ":{"ha":813,"x_min":58,"x_max":758,"o":"m 388 -322 q 215 -298 289 -322 q 99 -224 140 -274 q 58 -101 58 -175 q 80 -17 58 -58 q 145 59 101 24 q 257 121 189 94 l 331 40 q 238 -17 264 17 q 211 -85 211 -50 q 234 -145 211 -121 q 297 -182 257 -169 q 386 -194 336 -194 q 471 -181 435 -194 q 527 -144 507 -168 q 547 -87 547 -121 q 518 -20 547 -46 q 403 11 489 6 q 274 27 329 17 q 178 51 218 38 q 111 83 139 65 q 65 118 83 100 l 65 150 l 211 303 l 335 263 l 171 103 l 214 183 q 242 165 228 174 q 280 151 257 157 q 340 139 303 144 q 438 128 378 133 q 589 94 531 121 q 675 24 647 68 q 703 -83 703 -21 q 669 -199 703 -144 q 565 -287 635 -253 q 388 -322 496 -322 m 388 210 q 237 244 300 210 q 140 335 174 278 q 107 463 107 393 q 140 590 107 533 q 237 682 174 647 q 388 717 300 717 q 538 682 475 717 q 633 590 600 647 q 667 463 667 533 q 633 335 667 393 q 538 244 600 278 q 388 210 475 210 m 388 339 q 483 371 447 339 q 519 463 519 403 q 483 553 519 522 q 388 585 447 585 q 290 553 328 585 q 253 463 253 522 q 290 371 253 403 q 388 339 328 339 m 503 578 l 471 700 l 758 700 l 758 594 l 503 578 m 386 782 q 274 808 321 782 q 201 879 226 833 q 175 986 175 925 l 175 1008 l 264 1008 q 292 934 264 961 q 386 907 319 907 q 481 934 454 907 q 508 1008 508 961 l 600 1008 l 600 986 q 574 878 600 925 q 500 807 547 832 q 386 782 453 782 z "},"ģ":{"ha":813,"x_min":58,"x_max":758,"o":"m 388 -322 q 215 -298 289 -322 q 99 -224 140 -274 q 58 -101 58 -175 q 80 -17 58 -58 q 145 59 101 24 q 257 121 189 94 l 331 40 q 238 -17 264 17 q 211 -85 211 -50 q 234 -145 211 -121 q 297 -182 257 -169 q 386 -194 336 -194 q 471 -181 435 -194 q 527 -144 507 -168 q 547 -87 547 -121 q 518 -20 547 -46 q 403 11 489 6 q 274 27 329 17 q 178 51 218 38 q 111 83 139 65 q 65 118 83 100 l 65 150 l 211 303 l 335 263 l 171 103 l 214 183 q 242 165 228 174 q 280 151 257 157 q 340 139 303 144 q 438 128 378 133 q 589 94 531 121 q 675 24 647 68 q 703 -83 703 -21 q 669 -199 703 -144 q 565 -287 635 -253 q 388 -322 496 -322 m 388 210 q 237 244 300 210 q 140 335 174 278 q 107 463 107 393 q 140 590 107 533 q 237 682 174 647 q 388 717 300 717 q 538 682 475 717 q 633 590 600 647 q 667 463 667 533 q 633 335 667 393 q 538 244 600 278 q 388 210 475 210 m 388 339 q 483 371 447 339 q 519 463 519 403 q 483 553 519 522 q 388 585 447 585 q 290 553 328 585 q 253 463 253 522 q 290 371 253 403 q 388 339 328 339 m 503 578 l 471 700 l 758 700 l 758 594 l 503 578 m 465 1072 l 465 1001 q 416 989 432 1001 q 400 950 400 976 l 400 924 l 465 924 l 465 786 l 326 786 q 314 855 318 825 q 310 915 310 885 q 349 1033 310 993 q 465 1072 389 1072 z "},"ġ":{"ha":813,"x_min":58,"x_max":758,"o":"m 388 -322 q 215 -298 289 -322 q 99 -224 140 -274 q 58 -101 58 -175 q 80 -17 58 -58 q 145 59 101 24 q 257 121 189 94 l 331 40 q 238 -17 264 17 q 211 -85 211 -50 q 234 -145 211 -121 q 297 -182 257 -169 q 386 -194 336 -194 q 471 -181 435 -194 q 527 -144 507 -168 q 547 -87 547 -121 q 518 -20 547 -46 q 403 11 489 6 q 274 27 329 17 q 178 51 218 38 q 111 83 139 65 q 65 118 83 100 l 65 150 l 211 303 l 335 263 l 171 103 l 214 183 q 242 165 228 174 q 280 151 257 157 q 340 139 303 144 q 438 128 378 133 q 589 94 531 121 q 675 24 647 68 q 703 -83 703 -21 q 669 -199 703 -144 q 565 -287 635 -253 q 388 -322 496 -322 m 388 210 q 237 244 300 210 q 140 335 174 278 q 107 463 107 393 q 140 590 107 533 q 237 682 174 647 q 388 717 300 717 q 538 682 475 717 q 633 590 600 647 q 667 463 667 533 q 633 335 667 393 q 538 244 600 278 q 388 210 475 210 m 388 339 q 483 371 447 339 q 519 463 519 403 q 483 553 519 522 q 388 585 447 585 q 290 553 328 585 q 253 463 253 522 q 290 371 253 403 q 388 339 328 339 m 503 578 l 471 700 l 758 700 l 758 594 l 503 578 m 388 793 q 328 817 353 793 q 304 875 304 840 q 328 934 304 910 q 388 958 353 958 q 445 934 421 958 q 469 875 469 910 q 445 817 469 840 q 388 793 421 793 z "},"h":{"ha":840,"x_min":93,"x_max":757,"o":"m 93 0 l 93 1000 l 260 1000 l 260 592 l 260 592 q 354 683 294 649 q 489 717 414 717 q 635 681 575 717 q 726 577 694 646 q 757 406 757 508 l 757 0 l 592 0 l 592 390 q 553 528 592 481 q 438 575 515 575 q 347 551 388 575 q 283 481 307 526 q 260 371 260 436 l 260 0 l 93 0 z "},"ħ":{"ha":889,"x_min":40,"x_max":806,"o":"m 40 786 l 40 892 l 501 892 l 501 786 l 40 786 m 142 0 l 142 1000 l 308 1000 l 308 592 l 308 592 q 403 683 343 649 q 538 717 463 717 q 683 681 624 717 q 774 577 743 646 q 806 406 806 508 l 806 0 l 640 0 l 640 390 q 602 528 640 481 q 486 575 564 575 q 395 551 436 575 q 331 481 354 526 q 308 371 308 436 l 308 0 l 142 0 z "},"i":{"ha":367,"x_min":78,"x_max":289,"o":"m 100 0 l 100 700 l 267 700 l 267 0 l 100 0 m 183 811 q 108 840 138 811 q 78 910 78 868 q 108 980 78 953 q 183 1007 138 1007 q 259 980 229 1007 q 289 910 289 953 q 259 840 289 868 q 183 811 229 811 z "},"ı":{"ha":353,"x_min":93,"x_max":260,"o":"m 93 0 l 93 700 l 260 700 l 260 0 l 93 0 z "},"í":{"ha":353,"x_min":18,"x_max":335,"o":"m 93 0 l 93 700 l 260 700 l 260 0 l 93 0 m 33 760 l 18 872 l 315 1046 l 315 1046 l 335 917 l 33 760 z "},"ĭ":{"ha":353,"x_min":-35,"x_max":390,"o":"m 93 0 l 93 700 l 260 700 l 260 0 l 93 0 m 176 782 q 64 808 111 782 q -9 879 17 833 q -35 986 -35 925 l -35 1008 l 54 1008 q 82 934 54 961 q 176 907 110 907 q 272 934 244 907 q 299 1008 299 961 l 390 1008 l 390 986 q 364 878 390 925 q 290 807 338 832 q 176 782 243 782 z "},"î":{"ha":353,"x_min":-24,"x_max":378,"o":"m 93 0 l 93 700 l 260 700 l 260 0 l 93 0 m -24 764 l -24 885 l 176 996 l 378 885 l 378 764 l 176 879 l -24 764 z "},"ï":{"ha":353,"x_min":-28,"x_max":382,"o":"m 93 0 l 93 700 l 260 700 l 260 0 l 93 0 m 56 792 q -4 815 19 792 q -28 874 -28 839 q -4 933 -28 908 q 56 957 19 957 q 113 933 89 957 q 138 874 138 908 q 113 815 138 839 q 56 792 89 792 m 300 792 q 242 815 265 792 q 218 874 218 839 q 242 933 218 908 q 300 957 265 957 q 358 933 335 957 q 382 874 382 908 q 358 815 382 839 q 300 792 335 792 z "},"ì":{"ha":353,"x_min":18,"x_max":335,"o":"m 93 0 l 93 700 l 260 700 l 260 0 l 93 0 m 319 760 l 18 917 l 38 1046 l 38 1046 l 335 872 l 319 760 z "},"ī":{"ha":353,"x_min":-81,"x_max":432,"o":"m 93 0 l 93 700 l 260 700 l 260 0 l 93 0 m -81 825 l -81 943 l 432 943 l 432 825 l -81 825 z "},"į":{"ha":353,"x_min":-32,"x_max":267,"o":"m 93 0 l 93 700 l 260 700 l 260 0 l 93 0 m 176 793 q 117 817 142 793 q 93 875 93 840 q 117 934 93 910 q 176 958 142 958 q 234 934 210 958 q 258 875 258 910 q 234 817 258 840 q 176 793 210 793 m 149 -290 q 60 -275 101 -290 q -7 -228 18 -260 q -32 -147 -32 -197 q -15 -77 -32 -110 q 44 -12 3 -44 q 156 51 85 21 l 222 79 l 260 0 l 186 -36 q 116 -84 136 -61 q 96 -132 96 -107 q 116 -175 96 -160 q 169 -190 136 -190 q 216 -185 190 -190 q 267 -169 242 -179 l 267 -271 q 211 -285 242 -279 q 149 -290 181 -290 z "},"ĩ":{"ha":353,"x_min":-61,"x_max":415,"o":"m 93 0 l 93 700 l 260 700 l 260 0 l 93 0 m 257 792 q 191 808 218 792 q 140 840 164 824 q 89 856 117 856 q 49 840 65 856 q 29 793 33 825 l -61 793 q -7 919 -49 879 q 96 960 35 960 q 162 944 135 960 q 213 912 189 928 q 264 896 236 896 q 303 912 288 896 q 324 958 319 928 l 415 958 q 360 833 403 874 q 257 792 318 792 z "},"ĳ":{"ha":688,"x_min":78,"x_max":613,"o":"m 100 0 l 100 700 l 267 700 l 267 0 l 100 0 m 183 811 q 108 840 138 811 q 78 910 78 868 q 108 980 78 953 q 183 1007 138 1007 q 259 980 229 1007 q 289 910 289 953 q 259 840 289 868 q 183 811 229 811 m 281 -306 l 281 -164 l 338 -164 q 404 -145 385 -164 q 424 -81 424 -126 l 424 700 l 590 700 l 590 -82 q 563 -212 590 -162 q 484 -283 535 -261 q 363 -306 433 -306 l 281 -306 m 508 811 q 432 840 461 811 q 403 910 403 868 q 432 980 403 953 q 508 1007 461 1007 q 583 980 554 1007 q 613 910 613 953 q 583 840 613 868 q 508 811 554 811 z "},"j":{"ha":368,"x_min":-40,"x_max":292,"o":"m -40 -306 l -40 -164 l 17 -164 q 83 -145 64 -164 q 103 -81 103 -126 l 103 700 l 269 700 l 269 -82 q 242 -212 269 -162 q 163 -283 214 -261 q 42 -306 113 -306 l -40 -306 m 188 811 q 111 840 140 811 q 82 910 82 868 q 111 980 82 953 q 188 1007 140 1007 q 263 980 233 1007 q 292 910 292 953 q 263 840 292 868 q 188 811 233 811 z "},"ȷ":{"ha":344,"x_min":-40,"x_max":269,"o":"m -40 -306 l -40 -164 l 17 -164 q 83 -145 64 -164 q 103 -81 103 -126 l 103 700 l 269 700 l 269 -82 q 242 -212 269 -162 q 163 -283 214 -261 q 42 -306 113 -306 l -40 -306 z "},"k":{"ha":772,"x_min":93,"x_max":753,"o":"m 544 0 l 235 383 l 513 700 l 711 700 l 365 315 l 365 444 l 753 0 l 544 0 m 93 0 l 93 1000 l 260 1000 l 260 0 l 93 0 z "},"ķ":{"ha":772,"x_min":93,"x_max":753,"o":"m 544 0 l 235 383 l 513 700 l 711 700 l 365 315 l 365 444 l 753 0 l 544 0 m 93 0 l 93 1000 l 260 1000 l 260 0 l 93 0 m 311 -372 l 311 -301 q 362 -281 346 -301 q 378 -218 378 -260 l 378 -197 l 306 -197 l 306 -64 l 450 -64 q 465 -131 461 -97 q 469 -192 469 -164 q 429 -326 469 -279 q 311 -372 389 -372 z "},"l":{"ha":353,"x_min":93,"x_max":260,"o":"m 93 0 l 93 1000 l 260 1000 l 260 0 l 93 0 z "},"ĺ":{"ha":353,"x_min":18,"x_max":335,"o":"m 93 0 l 93 1000 l 260 1000 l 260 0 l 93 0 m 33 1061 l 18 1174 l 315 1347 l 315 1347 l 335 1218 l 33 1061 z "},"ľ":{"ha":489,"x_min":93,"x_max":475,"o":"m 93 0 l 93 1000 l 260 1000 l 260 0 l 93 0 m 319 738 l 319 807 q 369 820 354 807 q 385 860 385 833 l 385 885 l 319 885 l 319 1024 l 458 1024 q 471 955 467 985 q 475 893 475 925 q 435 777 475 817 q 319 738 396 738 z "},"ļ":{"ha":353,"x_min":93,"x_max":260,"o":"m 93 0 l 93 1000 l 260 1000 l 260 0 l 93 0 m 101 -372 l 101 -301 q 152 -281 136 -301 q 168 -218 168 -260 l 168 -197 l 96 -197 l 96 -64 l 240 -64 q 256 -131 251 -97 q 260 -192 260 -164 q 219 -326 260 -279 q 101 -372 179 -372 z "},"ŀ":{"ha":594,"x_min":93,"x_max":553,"o":"m 93 0 l 93 1000 l 260 1000 l 260 0 l 93 0 m 449 360 q 372 389 401 360 q 343 458 343 418 q 372 531 343 503 q 449 560 401 560 q 524 531 494 560 q 553 458 553 503 q 524 389 553 418 q 449 360 494 360 z "},"ł":{"ha":392,"x_min":14,"x_max":378,"o":"m 14 417 l 14 554 l 378 685 l 378 546 l 14 417 m 113 0 l 113 1000 l 279 1000 l 279 0 l 113 0 z "},"m":{"ha":1286,"x_min":93,"x_max":1203,"o":"m 93 0 l 93 700 l 240 700 l 254 604 l 254 604 q 342 687 288 657 q 468 717 397 717 q 563 703 521 717 q 638 661 606 689 q 692 592 671 633 l 692 592 q 793 683 731 650 q 929 717 856 717 q 1078 681 1017 717 q 1171 577 1139 646 q 1203 408 1203 508 l 1203 0 l 1038 0 l 1038 392 q 1001 528 1038 481 q 894 575 965 575 q 809 551 846 575 q 751 483 772 528 q 731 372 731 438 l 731 0 l 565 0 l 565 392 q 529 528 565 481 q 421 575 493 575 q 338 551 375 575 q 281 483 301 528 q 260 372 260 438 l 260 0 l 93 0 z "},"n":{"ha":839,"x_min":93,"x_max":756,"o":"m 93 0 l 93 700 l 240 700 l 253 583 l 253 583 q 344 681 285 644 q 486 717 404 717 q 631 681 571 717 q 723 578 690 646 q 756 408 756 510 l 756 0 l 589 0 l 589 393 q 550 528 589 481 q 435 575 511 575 q 345 551 385 575 q 283 483 306 528 q 260 374 260 438 l 260 0 l 93 0 z "},"ń":{"ha":839,"x_min":93,"x_max":756,"o":"m 93 0 l 93 700 l 240 700 l 253 583 l 253 583 q 344 681 285 644 q 486 717 404 717 q 631 681 571 717 q 723 578 690 646 q 756 408 756 510 l 756 0 l 589 0 l 589 393 q 550 528 589 481 q 435 575 511 575 q 345 551 385 575 q 283 483 306 528 q 260 374 260 438 l 260 0 l 93 0 m 306 760 l 290 872 l 588 1046 l 588 1046 l 607 917 l 306 760 z "},"ň":{"ha":839,"x_min":93,"x_max":756,"o":"m 93 0 l 93 700 l 240 700 l 253 583 l 253 583 q 344 681 285 644 q 486 717 404 717 q 631 681 571 717 q 723 578 690 646 q 756 408 756 510 l 756 0 l 589 0 l 589 393 q 550 528 589 481 q 435 575 511 575 q 345 551 385 575 q 283 483 306 528 q 260 374 260 438 l 260 0 l 93 0 m 449 782 l 249 893 l 249 1014 l 449 896 l 650 1014 l 650 893 l 449 782 z "},"ņ":{"ha":839,"x_min":93,"x_max":756,"o":"m 93 0 l 93 700 l 240 700 l 253 583 l 253 583 q 344 681 285 644 q 486 717 404 717 q 631 681 571 717 q 723 578 690 646 q 756 408 756 510 l 756 0 l 589 0 l 589 393 q 550 528 589 481 q 435 575 511 575 q 345 551 385 575 q 283 483 306 528 q 260 374 260 438 l 260 0 l 93 0 m 346 -372 l 346 -301 q 397 -281 381 -301 q 413 -218 413 -260 l 413 -197 l 340 -197 l 340 -64 l 485 -64 q 500 -131 496 -97 q 504 -192 504 -164 q 464 -326 504 -279 q 346 -372 424 -372 z "},"ñ":{"ha":839,"x_min":93,"x_max":756,"o":"m 93 0 l 93 700 l 240 700 l 253 583 l 253 583 q 344 681 285 644 q 486 717 404 717 q 631 681 571 717 q 723 578 690 646 q 756 408 756 510 l 756 0 l 589 0 l 589 393 q 550 528 589 481 q 435 575 511 575 q 345 551 385 575 q 283 483 306 528 q 260 374 260 438 l 260 0 l 93 0 m 529 792 q 463 808 490 792 q 413 840 436 824 q 361 856 389 856 q 322 840 338 856 q 301 793 306 825 l 211 793 q 265 919 224 879 q 368 960 307 960 q 434 944 407 960 q 485 912 461 928 q 536 896 508 896 q 576 912 560 896 q 596 958 592 928 l 688 958 q 633 833 675 874 q 529 792 590 792 z "},"ŋ":{"ha":831,"x_min":93,"x_max":756,"o":"m 93 0 l 93 700 l 240 700 l 253 583 l 253 583 q 344 681 285 644 q 486 717 404 717 q 631 681 571 717 q 723 578 690 646 q 756 408 756 510 l 756 -82 q 728 -212 756 -162 q 649 -283 700 -261 q 526 -306 597 -306 l 446 -306 l 446 -164 l 501 -164 q 569 -145 549 -164 q 589 -81 589 -126 l 589 393 q 550 528 589 482 q 435 575 511 575 q 345 551 385 575 q 283 483 306 528 q 260 374 260 438 l 260 0 l 93 0 z "},"o":{"ha":840,"x_min":69,"x_max":771,"o":"m 419 -17 q 240 30 319 -17 q 115 159 160 76 q 69 349 69 242 q 115 541 69 458 q 241 670 161 624 q 421 717 321 717 q 601 670 521 717 q 726 542 681 624 q 771 350 771 460 q 725 158 771 240 q 599 30 679 76 q 419 -17 519 -17 m 419 126 q 510 151 469 126 q 576 226 551 176 q 601 350 601 276 q 577 473 601 424 q 512 547 553 522 q 421 572 471 572 q 331 547 372 572 q 264 473 289 522 q 239 350 239 424 q 264 226 239 276 q 330 151 289 176 q 419 126 371 126 z "},"ó":{"ha":840,"x_min":69,"x_max":771,"o":"m 419 -17 q 240 30 319 -17 q 115 159 160 76 q 69 349 69 242 q 115 541 69 458 q 241 670 161 624 q 421 717 321 717 q 601 670 521 717 q 726 542 681 624 q 771 350 771 460 q 725 158 771 240 q 599 30 679 76 q 419 -17 519 -17 m 419 126 q 510 151 469 126 q 576 226 551 176 q 601 350 601 276 q 577 473 601 424 q 512 547 553 522 q 421 572 471 572 q 331 547 372 572 q 264 473 289 522 q 239 350 239 424 q 264 226 239 276 q 330 151 289 176 q 419 126 371 126 m 278 760 l 263 872 l 560 1046 l 560 1046 l 579 917 l 278 760 z "},"ŏ":{"ha":840,"x_min":69,"x_max":771,"o":"m 419 -17 q 240 30 319 -17 q 115 159 160 76 q 69 349 69 242 q 115 541 69 458 q 241 670 161 624 q 421 717 321 717 q 601 670 521 717 q 726 542 681 624 q 771 350 771 460 q 725 158 771 240 q 599 30 679 76 q 419 -17 519 -17 m 419 126 q 510 151 469 126 q 576 226 551 176 q 601 350 601 276 q 577 473 601 424 q 512 547 553 522 q 421 572 471 572 q 331 547 372 572 q 264 473 289 522 q 239 350 239 424 q 264 226 239 276 q 330 151 289 176 q 419 126 371 126 m 421 782 q 308 808 356 782 q 235 879 261 833 q 210 986 210 925 l 210 1008 l 299 1008 q 326 934 299 961 q 421 907 354 907 q 516 934 489 907 q 543 1008 543 961 l 635 1008 l 635 986 q 608 878 635 925 q 535 807 582 832 q 421 782 488 782 z "},"ô":{"ha":840,"x_min":69,"x_max":771,"o":"m 419 -17 q 240 30 319 -17 q 115 159 160 76 q 69 349 69 242 q 115 541 69 458 q 241 670 161 624 q 421 717 321 717 q 601 670 521 717 q 726 542 681 624 q 771 350 771 460 q 725 158 771 240 q 599 30 679 76 q 419 -17 519 -17 m 419 126 q 510 151 469 126 q 576 226 551 176 q 601 350 601 276 q 577 473 601 424 q 512 547 553 522 q 421 572 471 572 q 331 547 372 572 q 264 473 289 522 q 239 350 239 424 q 264 226 239 276 q 330 151 289 176 q 419 126 371 126 m 221 764 l 221 885 l 421 996 l 622 885 l 622 764 l 421 879 l 221 764 z "},"ö":{"ha":840,"x_min":69,"x_max":771,"o":"m 419 -17 q 240 30 319 -17 q 115 159 160 76 q 69 349 69 242 q 115 541 69 458 q 241 670 161 624 q 421 717 321 717 q 601 670 521 717 q 726 542 681 624 q 771 350 771 460 q 725 158 771 240 q 599 30 679 76 q 419 -17 519 -17 m 419 126 q 510 151 469 126 q 576 226 551 176 q 601 350 601 276 q 577 473 601 424 q 512 547 553 522 q 421 572 471 572 q 331 547 372 572 q 264 473 289 522 q 239 350 239 424 q 264 226 239 276 q 330 151 289 176 q 419 126 371 126 m 299 792 q 239 815 263 792 q 215 874 215 839 q 239 933 215 908 q 299 957 263 957 q 356 933 332 957 q 381 874 381 908 q 356 815 381 839 q 299 792 332 792 m 543 792 q 485 815 508 792 q 461 874 461 839 q 485 933 461 908 q 543 957 508 957 q 601 933 578 957 q 625 874 625 908 q 601 815 625 839 q 543 792 578 792 z "},"ò":{"ha":840,"x_min":69,"x_max":771,"o":"m 419 -17 q 240 30 319 -17 q 115 159 160 76 q 69 349 69 242 q 115 541 69 458 q 241 670 161 624 q 421 717 321 717 q 601 670 521 717 q 726 542 681 624 q 771 350 771 460 q 725 158 771 240 q 599 30 679 76 q 419 -17 519 -17 m 419 126 q 510 151 469 126 q 576 226 551 176 q 601 350 601 276 q 577 473 601 424 q 512 547 553 522 q 421 572 471 572 q 331 547 372 572 q 264 473 289 522 q 239 350 239 424 q 264 226 239 276 q 330 151 289 176 q 419 126 371 126 m 564 760 l 263 917 l 282 1046 l 282 1046 l 579 872 l 564 760 z "},"ő":{"ha":840,"x_min":69,"x_max":771,"o":"m 419 -17 q 240 30 319 -17 q 115 159 160 76 q 69 349 69 242 q 115 541 69 458 q 241 670 161 624 q 421 717 321 717 q 601 670 521 717 q 726 542 681 624 q 771 350 771 460 q 725 158 771 240 q 599 30 679 76 q 419 -17 519 -17 m 419 126 q 510 151 469 126 q 576 226 551 176 q 601 350 601 276 q 577 473 601 424 q 512 547 553 522 q 421 572 471 572 q 331 547 372 572 q 264 473 289 522 q 239 350 239 424 q 264 226 239 276 q 330 151 289 176 q 419 126 371 126 m 468 768 l 579 1010 l 717 1010 l 575 768 l 468 768 m 239 768 l 336 1010 l 472 1010 l 346 768 l 239 768 z "},"ō":{"ha":840,"x_min":69,"x_max":771,"o":"m 419 -17 q 240 30 319 -17 q 115 159 160 76 q 69 349 69 242 q 115 541 69 458 q 241 670 161 624 q 421 717 321 717 q 601 670 521 717 q 726 542 681 624 q 771 350 771 460 q 725 158 771 240 q 599 30 679 76 q 419 -17 519 -17 m 419 126 q 510 151 469 126 q 576 226 551 176 q 601 350 601 276 q 577 473 601 424 q 512 547 553 522 q 421 572 471 572 q 331 547 372 572 q 264 473 289 522 q 239 350 239 424 q 264 226 239 276 q 330 151 289 176 q 419 126 371 126 m 164 825 l 164 943 l 676 943 l 676 825 l 164 825 z "},"ø":{"ha":826,"x_min":44,"x_max":782,"o":"m 44 0 l 647 700 l 782 700 l 179 0 l 44 0 m 411 -17 q 233 30 313 -17 q 107 159 153 76 q 61 349 61 242 q 108 541 61 458 q 234 670 154 624 q 414 717 314 717 q 593 670 514 717 q 718 542 672 624 q 764 350 764 460 q 718 158 764 240 q 592 30 672 76 q 411 -17 513 -17 m 413 126 q 503 151 463 126 q 569 226 544 176 q 594 350 594 276 q 570 473 594 424 q 505 547 546 522 q 414 572 464 572 q 324 547 365 572 q 257 473 282 522 q 232 350 232 424 q 257 226 232 276 q 322 151 282 176 q 413 126 363 126 z "},"õ":{"ha":840,"x_min":69,"x_max":771,"o":"m 419 -17 q 240 30 319 -17 q 115 159 160 76 q 69 349 69 242 q 115 541 69 458 q 241 670 161 624 q 421 717 321 717 q 601 670 521 717 q 726 542 681 624 q 771 350 771 460 q 725 158 771 240 q 599 30 679 76 q 419 -17 519 -17 m 419 126 q 510 151 469 126 q 576 226 551 176 q 601 350 601 276 q 577 473 601 424 q 512 547 553 522 q 421 572 471 572 q 331 547 372 572 q 264 473 289 522 q 239 350 239 424 q 264 226 239 276 q 330 151 289 176 q 419 126 371 126 m 501 792 q 435 808 463 792 q 385 840 408 824 q 333 856 361 856 q 294 840 310 856 q 274 793 278 825 l 183 793 q 238 919 196 879 q 340 960 279 960 q 406 944 379 960 q 457 912 433 928 q 508 896 481 896 q 548 912 532 896 q 568 958 564 928 l 660 958 q 605 833 647 874 q 501 792 563 792 z "},"œ":{"ha":1357,"x_min":69,"x_max":1296,"o":"m 419 -17 q 240 30 319 -17 q 115 158 160 76 q 69 350 69 240 q 115 541 69 458 q 241 670 161 624 q 421 717 321 717 q 573 683 506 717 q 682 585 640 649 q 798 682 728 647 q 956 717 868 717 q 1135 671 1060 717 q 1253 548 1211 625 q 1296 375 1296 471 q 1295 344 1296 361 q 1292 310 1294 328 l 768 310 q 797 206 771 249 q 863 142 822 164 q 954 121 904 121 q 1057 150 1017 121 q 1115 226 1097 179 l 1281 226 q 1219 103 1264 158 q 1107 15 1174 47 q 956 -17 1040 -17 q 798 17 868 -17 q 682 113 728 51 q 572 17 639 51 q 419 -17 504 -17 m 419 126 q 510 151 469 126 q 576 226 551 176 q 601 350 601 276 q 577 473 601 424 q 512 547 553 522 q 421 572 471 572 q 331 547 372 572 q 264 473 289 522 q 239 350 239 424 q 264 226 239 276 q 330 151 289 176 q 419 126 371 126 m 772 417 l 1128 417 q 1075 537 1124 493 q 956 581 1026 581 q 871 562 910 581 q 806 507 832 543 q 772 417 779 471 z "},"p":{"ha":897,"x_min":93,"x_max":829,"o":"m 93 -306 l 93 700 l 242 700 l 260 599 l 260 599 q 313 656 282 629 q 390 700 344 683 q 493 717 435 717 q 667 668 592 717 q 786 537 743 619 q 829 349 829 454 q 785 160 829 243 q 666 31 742 78 q 493 -17 590 -17 q 355 13 414 -17 q 260 99 296 43 l 260 -306 l 93 -306 m 458 128 q 563 156 517 128 q 634 233 608 183 q 660 349 660 283 q 634 465 660 415 q 563 543 608 515 q 458 571 517 571 q 353 543 399 571 q 283 465 308 515 q 257 350 257 415 q 283 234 257 283 q 353 156 308 185 q 458 128 399 128 z "},"þ":{"ha":897,"x_min":93,"x_max":829,"o":"m 93 -306 l 93 1000 l 260 1000 l 260 599 q 313 656 282 629 q 389 700 344 683 q 493 717 433 717 q 667 669 592 717 q 786 538 743 621 q 829 349 829 454 q 785 160 829 243 q 666 31 742 78 q 493 -17 590 -17 q 355 13 414 -17 q 260 99 296 43 l 260 -306 l 93 -306 m 458 128 q 563 156 517 128 q 634 233 608 183 q 660 349 660 283 q 634 465 660 415 q 563 543 608 515 q 458 571 517 571 q 353 543 399 571 q 283 465 308 515 q 257 350 257 415 q 283 234 257 283 q 353 156 308 185 q 458 128 399 128 z "},"q":{"ha":897,"x_min":69,"x_max":806,"o":"m 639 -306 l 639 101 q 548 17 606 51 q 407 -17 490 -17 q 232 31 308 -17 q 113 162 156 79 q 69 350 69 244 q 113 538 69 456 q 233 669 156 621 q 407 717 310 717 q 505 702 461 717 q 582 662 549 688 q 639 601 615 636 l 639 601 l 656 700 l 806 700 l 806 -306 l 639 -306 m 439 128 q 544 156 499 128 q 615 235 590 185 q 640 350 640 285 q 615 466 640 417 q 544 543 590 515 q 439 571 499 571 q 336 543 382 571 q 265 465 290 515 q 239 350 239 415 q 265 235 239 285 q 336 156 290 185 q 439 128 382 128 z "},"r":{"ha":551,"x_min":93,"x_max":519,"o":"m 93 0 l 93 700 l 242 700 l 257 569 l 257 569 q 319 648 282 615 q 408 699 357 681 q 519 717 458 717 l 519 540 l 461 540 q 382 530 419 540 q 317 497 344 519 q 275 434 290 474 q 260 335 260 394 l 260 0 l 93 0 z "},"ŕ":{"ha":551,"x_min":93,"x_max":519,"o":"m 93 0 l 93 700 l 242 700 l 257 569 l 257 569 q 319 648 282 615 q 408 699 357 681 q 519 717 458 717 l 519 540 l 461 540 q 382 530 419 540 q 317 497 344 519 q 275 434 290 474 q 260 335 260 394 l 260 0 l 93 0 m 185 760 l 169 872 l 467 1046 l 467 1046 l 486 917 l 185 760 z "},"ř":{"ha":551,"x_min":93,"x_max":529,"o":"m 93 0 l 93 700 l 242 700 l 257 569 l 257 569 q 319 648 282 615 q 408 699 357 681 q 519 717 458 717 l 519 540 l 461 540 q 382 530 419 540 q 317 497 344 519 q 275 434 290 474 q 260 335 260 394 l 260 0 l 93 0 m 328 782 l 128 893 l 128 1014 l 328 896 l 529 1014 l 529 893 l 328 782 z "},"ŗ":{"ha":551,"x_min":93,"x_max":519,"o":"m 93 0 l 93 700 l 242 700 l 257 569 l 257 569 q 319 648 282 615 q 408 699 357 681 q 519 717 458 717 l 519 540 l 461 540 q 382 530 419 540 q 317 497 344 519 q 275 434 290 474 q 260 335 260 394 l 260 0 l 93 0 m 100 -372 l 100 -301 q 151 -281 135 -301 q 167 -218 167 -260 l 167 -197 l 94 -197 l 94 -64 l 239 -64 q 254 -131 250 -97 q 258 -192 258 -164 q 218 -326 258 -279 q 100 -372 178 -372 z "},"s":{"ha":726,"x_min":56,"x_max":660,"o":"m 372 -17 q 210 13 279 -17 q 102 97 142 43 q 56 219 63 150 l 222 219 q 247 166 229 190 q 297 128 265 142 q 371 114 328 114 q 439 126 413 114 q 478 157 465 138 q 490 199 490 176 q 472 250 490 232 q 420 278 454 268 q 339 299 386 289 q 242 323 289 308 q 159 360 196 338 q 101 417 122 382 q 79 501 79 451 q 112 611 79 563 q 206 688 144 660 q 354 717 268 717 q 549 660 476 717 q 635 503 622 604 l 476 503 q 438 563 469 542 q 353 585 406 585 q 270 565 299 585 q 242 511 242 544 q 259 472 242 489 q 310 444 276 456 q 392 421 343 432 q 529 385 469 406 q 624 324 589 364 q 658 210 658 283 q 624 92 660 143 q 525 12 589 40 q 372 -17 461 -17 z "},"ś":{"ha":726,"x_min":56,"x_max":660,"o":"m 372 -17 q 210 13 279 -17 q 102 97 142 43 q 56 219 63 150 l 222 219 q 247 166 229 190 q 297 128 265 142 q 371 114 328 114 q 439 126 413 114 q 478 157 465 138 q 490 199 490 176 q 472 250 490 232 q 420 278 454 268 q 339 299 386 289 q 242 323 289 308 q 159 360 196 338 q 101 417 122 382 q 79 501 79 451 q 112 611 79 563 q 206 688 144 660 q 354 717 268 717 q 549 660 476 717 q 635 503 622 604 l 476 503 q 438 563 469 542 q 353 585 406 585 q 270 565 299 585 q 242 511 242 544 q 259 472 242 489 q 310 444 276 456 q 392 421 343 432 q 529 385 469 406 q 624 324 589 364 q 658 210 658 283 q 624 92 660 143 q 525 12 589 40 q 372 -17 461 -17 m 218 760 l 203 872 l 500 1046 l 500 1046 l 519 917 l 218 760 z "},"š":{"ha":726,"x_min":56,"x_max":660,"o":"m 372 -17 q 210 13 279 -17 q 102 97 142 43 q 56 219 63 150 l 222 219 q 247 166 229 190 q 297 128 265 142 q 371 114 328 114 q 439 126 413 114 q 478 157 465 138 q 490 199 490 176 q 472 250 490 232 q 420 278 454 268 q 339 299 386 289 q 242 323 289 308 q 159 360 196 338 q 101 417 122 382 q 79 501 79 451 q 112 611 79 563 q 206 688 144 660 q 354 717 268 717 q 549 660 476 717 q 635 503 622 604 l 476 503 q 438 563 469 542 q 353 585 406 585 q 270 565 299 585 q 242 511 242 544 q 259 472 242 489 q 310 444 276 456 q 392 421 343 432 q 529 385 469 406 q 624 324 589 364 q 658 210 658 283 q 624 92 660 143 q 525 12 589 40 q 372 -17 461 -17 m 361 782 l 161 893 l 161 1014 l 361 896 l 563 1014 l 563 893 l 361 782 z "},"ş":{"ha":726,"x_min":56,"x_max":660,"o":"m 372 -17 q 210 13 279 -17 q 102 97 142 43 q 56 219 63 150 l 222 219 q 247 166 229 190 q 297 128 265 142 q 371 114 328 114 q 439 126 413 114 q 478 157 465 138 q 490 199 490 176 q 472 250 490 232 q 420 278 454 268 q 339 299 386 289 q 242 323 289 308 q 159 360 196 338 q 101 417 122 382 q 79 501 79 451 q 112 611 79 563 q 206 688 144 660 q 354 717 268 717 q 549 660 476 717 q 635 503 622 604 l 476 503 q 438 563 469 542 q 353 585 406 585 q 270 565 299 585 q 242 511 242 544 q 259 472 242 489 q 310 444 276 456 q 392 421 343 432 q 529 385 469 406 q 624 324 589 364 q 658 210 658 283 q 624 92 660 143 q 525 12 589 40 q 372 -17 461 -17 m 249 -367 l 249 -269 l 399 -269 q 458 -257 439 -269 q 478 -215 478 -244 q 458 -178 478 -190 q 399 -165 439 -165 l 318 -165 l 318 7 l 422 7 l 422 -75 q 512 -90 471 -75 q 578 -137 553 -104 q 603 -219 603 -169 q 578 -301 603 -268 q 513 -350 554 -333 q 424 -367 472 -367 l 249 -367 z "},"ș":{"ha":726,"x_min":56,"x_max":660,"o":"m 372 -17 q 210 13 279 -17 q 102 97 142 43 q 56 219 63 150 l 222 219 q 247 166 229 190 q 297 128 265 142 q 371 114 328 114 q 439 126 413 114 q 478 157 465 138 q 490 199 490 176 q 472 250 490 232 q 420 278 454 268 q 339 299 386 289 q 242 323 289 308 q 159 360 196 338 q 101 417 122 382 q 79 501 79 451 q 112 611 79 563 q 206 688 144 660 q 354 717 268 717 q 549 660 476 717 q 635 503 622 604 l 476 503 q 438 563 469 542 q 353 585 406 585 q 270 565 299 585 q 242 511 242 544 q 259 472 242 489 q 310 444 276 456 q 392 421 343 432 q 529 385 469 406 q 624 324 589 364 q 658 210 658 283 q 624 92 660 143 q 525 12 589 40 q 372 -17 461 -17 m 288 -372 l 288 -301 q 338 -281 322 -301 q 354 -218 354 -260 l 354 -197 l 282 -197 l 282 -64 l 426 -64 q 442 -131 438 -97 q 446 -192 446 -164 q 406 -326 446 -279 q 288 -372 365 -372 z "},"ß":{"ha":967,"x_min":94,"x_max":921,"o":"m 644 -14 q 440 53 519 -14 q 347 242 361 121 l 506 242 q 547 147 511 182 q 642 111 582 111 q 726 137 697 111 q 756 208 756 163 q 728 279 756 251 q 626 332 701 307 q 466 412 515 371 q 417 515 417 453 q 435 581 417 556 q 480 626 453 607 q 533 664 507 646 q 578 705 560 682 q 596 760 596 728 q 553 846 596 814 q 436 878 510 878 q 303 828 346 878 q 260 693 260 779 l 260 0 l 94 0 l 94 708 q 135 868 94 799 q 254 977 176 938 q 443 1017 332 1017 q 616 985 544 1017 q 725 898 688 953 q 763 778 763 843 q 744 701 763 732 q 700 650 726 671 q 647 613 674 629 q 602 579 619 596 q 585 540 585 563 q 596 508 585 524 q 638 478 607 493 q 728 443 669 463 q 876 353 831 406 q 921 219 921 300 q 887 97 921 150 q 791 15 853 44 q 644 -14 729 -14 z "},"t":{"ha":585,"x_min":44,"x_max":521,"o":"m 397 0 q 274 22 326 0 q 193 96 222 44 q 164 235 164 147 l 164 560 l 44 560 l 44 700 l 164 700 l 183 885 l 331 885 l 331 700 l 521 700 l 521 560 l 331 560 l 331 235 q 353 162 331 182 q 431 142 376 142 l 517 142 l 517 0 l 397 0 z "},"ť":{"ha":585,"x_min":44,"x_max":571,"o":"m 397 0 q 274 22 326 0 q 193 96 222 44 q 164 235 164 147 l 164 560 l 44 560 l 44 700 l 164 700 l 183 885 l 331 885 l 331 700 l 521 700 l 521 560 l 331 560 l 331 235 q 353 162 331 182 q 431 142 376 142 l 517 142 l 517 0 l 397 0 m 414 760 l 414 829 q 464 842 449 829 q 479 882 479 856 l 479 907 l 414 907 l 414 1046 l 553 1046 q 565 977 561 1007 q 569 915 569 947 q 530 799 569 839 q 414 760 490 760 z "},"ţ":{"ha":585,"x_min":44,"x_max":617,"o":"m 397 0 q 274 22 326 0 q 193 96 222 44 q 164 235 164 147 l 164 560 l 44 560 l 44 700 l 164 700 l 183 885 l 331 885 l 331 700 l 521 700 l 521 560 l 331 560 l 331 235 q 353 162 331 182 q 431 142 376 142 l 517 142 l 517 0 l 397 0 m 263 -367 l 263 -269 l 413 -269 q 472 -257 453 -269 q 492 -215 492 -244 q 472 -178 492 -190 q 413 -165 453 -165 l 332 -165 l 332 7 l 436 7 l 436 -75 q 526 -90 485 -75 q 592 -137 567 -104 q 617 -219 617 -169 q 592 -301 617 -268 q 527 -350 568 -333 q 438 -367 486 -367 l 263 -367 z "},"ț":{"ha":585,"x_min":44,"x_max":521,"o":"m 397 0 q 274 22 326 0 q 193 96 222 44 q 164 235 164 147 l 164 560 l 44 560 l 44 700 l 164 700 l 183 885 l 331 885 l 331 700 l 521 700 l 521 560 l 331 560 l 331 235 q 353 162 331 182 q 431 142 376 142 l 517 142 l 517 0 l 397 0 m 301 -372 l 301 -301 q 352 -281 336 -301 q 368 -218 368 -260 l 368 -197 l 296 -197 l 296 -64 l 440 -64 q 456 -131 451 -97 q 460 -192 460 -164 q 419 -326 460 -279 q 301 -372 379 -372 z "},"u":{"ha":839,"x_min":83,"x_max":746,"o":"m 353 -17 q 208 17 268 -17 q 115 120 147 51 q 83 290 83 189 l 83 700 l 250 700 l 250 307 q 288 170 250 217 q 404 124 326 124 q 494 147 454 124 q 556 216 533 171 q 579 326 579 261 l 579 700 l 746 700 l 746 0 l 599 0 l 586 117 l 586 117 q 494 19 554 56 q 353 -17 433 -17 z "},"ú":{"ha":839,"x_min":83,"x_max":746,"o":"m 353 -17 q 208 17 268 -17 q 115 120 147 51 q 83 290 83 189 l 83 700 l 250 700 l 250 307 q 288 170 250 217 q 404 124 326 124 q 494 147 454 124 q 556 216 533 171 q 579 326 579 261 l 579 700 l 746 700 l 746 0 l 599 0 l 586 117 l 586 117 q 494 19 554 56 q 353 -17 433 -17 m 269 760 l 254 872 l 551 1046 l 551 1046 l 571 917 l 269 760 z "},"ŭ":{"ha":839,"x_min":83,"x_max":746,"o":"m 353 -17 q 208 17 268 -17 q 115 120 147 51 q 83 290 83 189 l 83 700 l 250 700 l 250 307 q 288 170 250 217 q 404 124 326 124 q 494 147 454 124 q 556 216 533 171 q 579 326 579 261 l 579 700 l 746 700 l 746 0 l 599 0 l 586 117 l 586 117 q 494 19 554 56 q 353 -17 433 -17 m 411 782 q 299 808 346 782 q 226 879 251 833 q 200 986 200 925 l 200 1008 l 289 1008 q 317 934 289 961 q 411 907 344 907 q 506 934 479 907 q 533 1008 533 961 l 625 1008 l 625 986 q 599 878 625 925 q 525 807 572 832 q 411 782 478 782 z "},"û":{"ha":839,"x_min":83,"x_max":746,"o":"m 353 -17 q 208 17 268 -17 q 115 120 147 51 q 83 290 83 189 l 83 700 l 250 700 l 250 307 q 288 170 250 217 q 404 124 326 124 q 494 147 454 124 q 556 216 533 171 q 579 326 579 261 l 579 700 l 746 700 l 746 0 l 599 0 l 586 117 l 586 117 q 494 19 554 56 q 353 -17 433 -17 m 213 764 l 213 885 l 413 996 l 614 885 l 614 764 l 413 879 l 213 764 z "},"ü":{"ha":839,"x_min":83,"x_max":746,"o":"m 353 -17 q 208 17 268 -17 q 115 120 147 51 q 83 290 83 189 l 83 700 l 250 700 l 250 307 q 288 170 250 217 q 404 124 326 124 q 494 147 454 124 q 556 216 533 171 q 579 326 579 261 l 579 700 l 746 700 l 746 0 l 599 0 l 586 117 l 586 117 q 494 19 554 56 q 353 -17 433 -17 m 290 792 q 231 815 254 792 q 207 874 207 839 q 231 933 207 908 q 290 957 254 957 q 348 933 324 957 q 372 874 372 908 q 348 815 372 839 q 290 792 324 792 m 535 792 q 476 815 500 792 q 453 874 453 839 q 476 933 453 908 q 535 957 500 957 q 593 933 569 957 q 617 874 617 908 q 593 815 617 839 q 535 792 569 792 z "},"ù":{"ha":839,"x_min":83,"x_max":746,"o":"m 353 -17 q 208 17 268 -17 q 115 120 147 51 q 83 290 83 189 l 83 700 l 250 700 l 250 307 q 288 170 250 217 q 404 124 326 124 q 494 147 454 124 q 556 216 533 171 q 579 326 579 261 l 579 700 l 746 700 l 746 0 l 599 0 l 586 117 l 586 117 q 494 19 554 56 q 353 -17 433 -17 m 556 760 l 254 917 l 274 1046 l 274 1046 l 571 872 l 556 760 z "},"ű":{"ha":839,"x_min":83,"x_max":746,"o":"m 353 -17 q 208 17 268 -17 q 115 120 147 51 q 83 290 83 189 l 83 700 l 250 700 l 250 307 q 288 170 250 217 q 404 124 326 124 q 494 147 454 124 q 556 216 533 171 q 579 326 579 261 l 579 700 l 746 700 l 746 0 l 599 0 l 586 117 l 586 117 q 494 19 554 56 q 353 -17 433 -17 m 458 768 l 569 1010 l 707 1010 l 565 768 l 458 768 m 229 768 l 326 1010 l 463 1010 l 336 768 l 229 768 z "},"ū":{"ha":839,"x_min":83,"x_max":746,"o":"m 353 -17 q 208 17 268 -17 q 115 120 147 51 q 83 290 83 189 l 83 700 l 250 700 l 250 307 q 288 170 250 217 q 404 124 326 124 q 494 147 454 124 q 556 216 533 171 q 579 326 579 261 l 579 700 l 746 700 l 746 0 l 599 0 l 586 117 l 586 117 q 494 19 554 56 q 353 -17 433 -17 m 156 825 l 156 943 l 668 943 l 668 825 l 156 825 z "},"ų":{"ha":839,"x_min":83,"x_max":753,"o":"m 353 -17 q 208 17 268 -17 q 115 120 147 51 q 83 290 83 189 l 83 700 l 250 700 l 250 307 q 288 170 250 217 q 404 124 326 124 q 494 147 454 124 q 556 216 533 171 q 579 326 579 261 l 579 700 l 746 700 l 746 0 l 599 0 l 586 117 l 586 117 q 494 19 554 56 q 353 -17 433 -17 m 635 -290 q 546 -275 588 -290 q 479 -228 504 -260 q 454 -147 454 -197 q 472 -77 454 -110 q 530 -12 489 -44 q 642 51 571 21 l 708 79 l 746 0 l 672 -36 q 602 -84 622 -61 q 582 -132 582 -107 q 602 -175 582 -160 q 656 -190 622 -190 q 702 -185 676 -190 q 753 -169 728 -179 l 753 -271 q 697 -285 728 -279 q 635 -290 667 -290 z "},"ů":{"ha":839,"x_min":83,"x_max":746,"o":"m 353 -17 q 208 17 268 -17 q 115 120 147 51 q 83 290 83 189 l 83 700 l 250 700 l 250 307 q 288 170 250 217 q 404 124 326 124 q 494 147 454 124 q 556 216 533 171 q 579 326 579 261 l 579 700 l 746 700 l 746 0 l 599 0 l 586 117 l 586 117 q 494 19 554 56 q 353 -17 433 -17 m 413 792 q 303 832 349 792 q 257 944 257 872 q 303 1056 257 1015 q 413 1097 349 1097 q 523 1056 478 1097 q 568 944 568 1015 q 523 832 568 872 q 413 792 478 792 m 413 868 q 465 889 443 868 q 486 944 486 910 q 465 1001 486 981 q 413 1021 444 1021 q 361 1001 383 1021 q 339 944 339 981 q 361 889 339 910 q 413 868 383 868 z "},"ũ":{"ha":839,"x_min":83,"x_max":746,"o":"m 353 -17 q 208 17 268 -17 q 115 120 147 51 q 83 290 83 189 l 83 700 l 250 700 l 250 307 q 288 170 250 217 q 404 124 326 124 q 494 147 454 124 q 556 216 533 171 q 579 326 579 261 l 579 700 l 746 700 l 746 0 l 599 0 l 586 117 l 586 117 q 494 19 554 56 q 353 -17 433 -17 m 493 792 q 427 808 454 792 q 376 840 400 824 q 325 856 353 856 q 285 840 301 856 q 265 793 269 825 l 175 793 q 229 919 188 879 q 332 960 271 960 q 398 944 371 960 q 449 912 425 928 q 500 896 472 896 q 540 912 524 896 q 560 958 556 928 l 651 958 q 597 833 639 874 q 493 792 554 792 z "},"v":{"ha":769,"x_min":26,"x_max":743,"o":"m 285 0 l 26 700 l 201 700 l 386 158 l 386 158 l 571 700 l 743 700 l 485 0 l 285 0 z "},"w":{"ha":1115,"x_min":26,"x_max":1089,"o":"m 232 0 l 26 700 l 192 700 l 335 125 l 304 126 l 464 700 l 650 700 l 811 126 l 781 126 l 924 700 l 1089 700 l 883 0 l 711 0 l 540 593 l 575 593 l 404 0 l 232 0 z "},"ẃ":{"ha":1115,"x_min":26,"x_max":1089,"o":"m 232 0 l 26 700 l 192 700 l 335 125 l 304 126 l 464 700 l 650 700 l 811 126 l 781 126 l 924 700 l 1089 700 l 883 0 l 711 0 l 540 593 l 575 593 l 404 0 l 232 0 m 414 760 l 399 872 l 696 1046 l 696 1046 l 715 917 l 414 760 z "},"ŵ":{"ha":1115,"x_min":26,"x_max":1089,"o":"m 232 0 l 26 700 l 192 700 l 335 125 l 304 126 l 464 700 l 650 700 l 811 126 l 781 126 l 924 700 l 1089 700 l 883 0 l 711 0 l 540 593 l 575 593 l 404 0 l 232 0 m 357 764 l 357 885 l 557 996 l 758 885 l 758 764 l 557 879 l 357 764 z "},"ẅ":{"ha":1115,"x_min":26,"x_max":1089,"o":"m 232 0 l 26 700 l 192 700 l 335 125 l 304 126 l 464 700 l 650 700 l 811 126 l 781 126 l 924 700 l 1089 700 l 883 0 l 711 0 l 540 593 l 575 593 l 404 0 l 232 0 m 436 792 q 376 815 400 792 q 353 874 353 839 q 376 933 353 908 q 436 957 400 957 q 494 933 469 957 q 518 874 518 908 q 494 815 518 839 q 436 792 469 792 m 681 792 q 622 815 646 792 q 599 874 599 839 q 622 933 599 908 q 681 957 646 957 q 739 933 715 957 q 763 874 763 908 q 739 815 763 839 q 681 792 715 792 z "},"ẁ":{"ha":1115,"x_min":26,"x_max":1089,"o":"m 232 0 l 26 700 l 192 700 l 335 125 l 304 126 l 464 700 l 650 700 l 811 126 l 781 126 l 924 700 l 1089 700 l 883 0 l 711 0 l 540 593 l 575 593 l 404 0 l 232 0 m 700 760 l 399 917 l 418 1046 l 418 1046 l 715 872 l 700 760 z "},"x":{"ha":763,"x_min":28,"x_max":736,"o":"m 28 0 l 275 350 l 28 700 l 207 700 l 382 446 l 382 446 l 557 700 l 736 700 l 489 350 l 736 0 l 557 0 l 382 254 l 382 254 l 207 0 l 28 0 z "},"y":{"ha":819,"x_min":28,"x_max":792,"o":"m 178 -306 l 349 78 l 307 78 l 28 700 l 210 700 l 418 225 l 418 225 l 615 700 l 792 700 l 354 -306 l 178 -306 z "},"ý":{"ha":819,"x_min":28,"x_max":792,"o":"m 178 -306 l 349 78 l 307 78 l 28 700 l 210 700 l 418 225 l 418 225 l 615 700 l 792 700 l 354 -306 l 178 -306 m 267 760 l 251 872 l 549 1046 l 549 1046 l 568 917 l 267 760 z "},"ŷ":{"ha":819,"x_min":28,"x_max":792,"o":"m 178 -306 l 349 78 l 307 78 l 28 700 l 210 700 l 418 225 l 418 225 l 615 700 l 792 700 l 354 -306 l 178 -306 m 210 764 l 210 885 l 410 996 l 611 885 l 611 764 l 410 879 l 210 764 z "},"ÿ":{"ha":819,"x_min":28,"x_max":792,"o":"m 178 -306 l 349 78 l 307 78 l 28 700 l 210 700 l 418 225 l 418 225 l 615 700 l 792 700 l 354 -306 l 178 -306 m 289 792 q 229 815 253 792 q 206 874 206 839 q 229 933 206 908 q 289 957 253 957 q 347 933 322 957 q 371 874 371 908 q 347 815 371 839 q 289 792 322 792 m 533 792 q 475 815 499 792 q 451 874 451 839 q 475 933 451 908 q 533 957 499 957 q 592 933 568 957 q 615 874 615 908 q 592 815 615 839 q 533 792 568 792 z "},"ỳ":{"ha":819,"x_min":28,"x_max":792,"o":"m 178 -306 l 349 78 l 307 78 l 28 700 l 210 700 l 418 225 l 418 225 l 615 700 l 792 700 l 354 -306 l 178 -306 m 553 760 l 251 917 l 271 1046 l 271 1046 l 568 872 l 553 760 z "},"ỹ":{"ha":819,"x_min":28,"x_max":792,"o":"m 178 -306 l 349 78 l 307 78 l 28 700 l 210 700 l 418 225 l 418 225 l 615 700 l 792 700 l 354 -306 l 178 -306 m 490 792 q 424 808 451 792 q 374 840 397 824 q 322 856 350 856 q 283 840 299 856 q 263 793 267 825 l 172 793 q 226 919 185 879 q 329 960 268 960 q 395 944 368 960 q 446 912 422 928 q 497 896 469 896 q 537 912 521 896 q 557 958 553 928 l 649 958 q 594 833 636 874 q 490 792 551 792 z "},"z":{"ha":668,"x_min":47,"x_max":608,"o":"m 47 0 l 47 135 l 410 561 l 53 561 l 53 700 l 601 700 l 601 565 l 235 138 l 608 138 l 608 0 l 47 0 z "},"ź":{"ha":668,"x_min":47,"x_max":608,"o":"m 47 0 l 47 135 l 410 561 l 53 561 l 53 700 l 601 700 l 601 565 l 235 138 l 608 138 l 608 0 l 47 0 m 189 760 l 174 872 l 471 1046 l 471 1046 l 490 917 l 189 760 z "},"ž":{"ha":668,"x_min":47,"x_max":608,"o":"m 47 0 l 47 135 l 410 561 l 53 561 l 53 700 l 601 700 l 601 565 l 235 138 l 608 138 l 608 0 l 47 0 m 332 782 l 132 893 l 132 1014 l 332 896 l 533 1014 l 533 893 l 332 782 z "},"ż":{"ha":668,"x_min":47,"x_max":608,"o":"m 47 0 l 47 135 l 410 561 l 53 561 l 53 700 l 601 700 l 601 565 l 235 138 l 608 138 l 608 0 l 47 0 m 332 793 q 273 817 297 793 q 249 875 249 840 q 273 934 249 910 q 332 958 297 958 q 390 934 365 958 q 414 875 414 910 q 390 817 414 840 q 332 793 365 793 z "},"ﬁ":{"ha":828,"x_min":28,"x_max":751,"o":"m 126 0 l 126 560 l 28 560 l 28 700 l 126 700 l 126 776 q 154 906 126 857 q 233 978 182 956 q 356 1000 285 1000 l 429 1000 l 429 858 l 381 858 q 314 840 335 858 q 293 775 293 821 l 293 700 l 728 700 l 728 0 l 561 0 l 561 560 l 293 560 l 293 0 l 126 0 m 646 806 q 570 834 600 806 q 540 904 540 863 q 570 974 540 947 q 646 1001 600 1001 q 722 974 693 1001 q 751 904 751 947 q 722 834 751 863 q 646 806 693 806 z "},"ﬂ":{"ha":856,"x_min":28,"x_max":763,"o":"m 128 0 l 128 776 q 155 906 128 857 q 233 978 182 956 q 356 1000 285 1000 l 439 1000 l 439 858 l 381 858 q 315 840 335 858 q 294 775 294 821 l 294 0 l 128 0 m 28 560 l 28 700 l 453 700 l 453 560 l 28 560 m 596 0 l 596 1000 l 763 1000 l 763 0 l 596 0 z "},"ª":{"ha":692,"x_min":71,"x_max":608,"o":"m 306 483 q 185 515 239 483 q 101 603 132 546 q 71 735 71 660 q 101 867 71 811 q 184 955 132 924 q 301 986 236 986 q 413 961 368 986 q 479 897 457 936 l 490 978 l 608 978 l 608 490 l 490 490 l 479 571 l 479 571 q 414 508 458 532 q 306 483 369 483 m 340 585 q 410 602 379 585 q 460 653 442 619 q 479 735 479 688 q 439 846 479 807 q 340 885 399 885 q 244 845 285 885 q 204 735 204 806 q 244 624 204 663 q 340 585 285 585 z "},"º":{"ha":664,"x_min":69,"x_max":594,"o":"m 331 483 q 194 515 253 483 q 102 605 135 547 q 69 738 69 663 q 103 869 69 813 q 195 958 136 926 q 332 989 254 989 q 469 958 410 989 q 562 869 529 926 q 594 738 594 813 q 561 605 594 663 q 468 515 528 547 q 331 483 408 483 m 331 586 q 397 603 367 586 q 444 654 426 621 q 463 736 463 688 q 444 821 463 788 q 397 872 426 854 q 331 889 367 889 q 265 872 294 889 q 219 821 236 854 q 201 736 201 788 q 219 654 201 688 q 265 603 236 621 q 331 586 294 586 z "},"π":{"ha":897,"x_min":49,"x_max":849,"o":"m 154 0 l 154 571 l 49 571 l 49 700 l 849 700 l 849 571 l 744 571 l 744 0 l 578 0 l 578 571 l 321 571 l 321 0 l 154 0 z "},"⁄":{"ha":679,"x_min":-14,"x_max":701,"o":"m -14 0 l 538 972 l 701 972 l 150 0 l -14 0 z "},"½":{"ha":1161,"x_min":35,"x_max":1108,"o":"m 131 489 l 131 856 l 35 833 l 35 913 l 183 978 l 258 978 l 258 489 l 131 489 m 164 0 l 715 972 l 879 972 l 328 0 l 164 0 m 724 0 l 724 94 l 885 211 q 948 272 924 242 q 972 342 972 303 q 955 389 972 372 q 913 406 938 406 q 868 388 885 406 q 847 336 851 369 l 718 336 q 776 453 724 406 q 924 500 828 500 q 1026 478 985 500 q 1088 423 1067 457 q 1108 349 1108 389 q 1072 254 1108 294 q 963 168 1036 214 l 861 101 l 1108 101 l 1108 0 l 724 0 z "},"¼":{"ha":1110,"x_min":35,"x_max":1082,"o":"m 131 489 l 131 856 l 35 833 l 35 913 l 183 978 l 258 978 l 258 489 l 131 489 m 164 0 l 715 972 l 879 972 l 328 0 l 164 0 m 903 0 l 903 86 l 671 86 l 671 174 l 889 483 l 1028 483 l 1028 176 l 1083 176 l 1083 86 l 1028 86 l 1028 0 l 903 0 m 799 176 l 911 176 l 911 347 l 911 347 l 799 176 z "},"¾":{"ha":1238,"x_min":29,"x_max":1211,"o":"m 240 482 q 88 524 139 482 q 29 640 36 565 l 161 640 q 174 602 164 617 q 199 582 183 588 q 235 576 215 576 q 286 593 267 576 q 306 639 306 610 q 283 688 306 671 q 228 704 261 704 l 171 704 l 171 769 l 224 769 q 278 785 257 769 q 299 833 299 801 q 281 878 299 861 q 231 894 263 894 q 181 880 199 894 q 158 838 163 865 l 36 838 q 63 913 39 879 q 131 968 86 947 q 243 989 176 989 q 382 948 328 989 q 436 844 436 907 q 411 774 436 801 q 343 738 386 747 l 343 733 q 415 693 388 721 q 442 619 442 665 q 387 522 442 561 q 240 482 332 482 m 292 0 l 843 972 l 1007 972 l 456 0 l 292 0 m 1031 0 l 1031 86 l 799 86 l 799 174 l 1017 483 l 1156 483 l 1156 176 l 1211 176 l 1211 86 l 1156 86 l 1156 0 l 1031 0 m 926 176 l 1039 176 l 1039 347 l 1039 347 l 926 176 z "},"¹":{"ha":317,"x_min":35,"x_max":258,"o":"m 131 489 l 131 856 l 35 833 l 35 913 l 183 978 l 258 978 l 258 489 l 131 489 z "},"²":{"ha":489,"x_min":46,"x_max":436,"o":"m 51 489 l 51 583 l 213 700 q 276 761 251 731 q 300 831 300 792 q 283 878 300 861 q 240 894 265 894 q 196 876 213 894 q 175 825 179 858 l 46 825 q 103 942 51 894 q 251 989 156 989 q 353 967 313 989 q 415 912 394 946 q 436 838 436 878 q 400 743 436 783 q 290 657 364 703 l 189 590 l 436 590 l 436 489 l 51 489 z "},"³":{"ha":483,"x_min":29,"x_max":442,"o":"m 240 482 q 88 524 139 482 q 29 640 36 565 l 161 640 q 174 602 164 617 q 199 582 183 588 q 235 576 215 576 q 286 593 267 576 q 306 639 306 610 q 283 688 306 671 q 228 704 261 704 l 171 704 l 171 769 l 224 769 q 278 785 257 769 q 299 833 299 801 q 281 878 299 861 q 231 894 263 894 q 181 880 199 894 q 158 838 163 865 l 36 838 q 63 913 39 879 q 131 968 86 947 q 243 989 176 989 q 382 948 328 989 q 436 844 436 907 q 411 774 436 801 q 343 738 386 747 l 343 733 q 415 693 388 721 q 442 619 442 665 q 387 522 442 561 q 240 482 332 482 z "},"⁴":{"ha":474,"x_min":35,"x_max":447,"o":"m 267 489 l 267 575 l 35 575 l 35 663 l 253 972 l 392 972 l 392 665 l 447 665 l 447 575 l 392 575 l 392 489 l 267 489 m 163 665 l 275 665 l 275 836 l 275 836 l 163 665 z "}," ":{"ha":339,"x_min":0,"x_max":0,"o":""}," ":{"ha":339,"x_min":0,"x_max":0,"o":""},"\r":{"ha":833,"x_min":0,"x_max":0,"o":""},".":{"ha":328,"x_min":60,"x_max":269,"o":"m 165 -7 q 89 22 118 -7 q 60 92 60 51 q 89 164 60 135 q 165 193 118 193 q 240 164 211 193 q 269 92 269 135 q 240 22 269 51 q 165 -7 211 -7 z "},",":{"ha":315,"x_min":24,"x_max":265,"o":"m 24 -171 l 103 168 l 265 168 l 133 -171 l 24 -171 z "},":":{"ha":332,"x_min":60,"x_max":269,"o":"m 165 -7 q 89 22 118 -7 q 60 92 60 51 q 89 164 60 135 q 165 193 118 193 q 240 164 211 193 q 269 92 269 135 q 240 22 269 51 q 165 -7 211 -7 m 165 518 q 89 547 118 518 q 60 617 60 576 q 89 689 60 660 q 165 718 118 718 q 240 689 211 718 q 269 617 269 660 q 240 547 269 576 q 165 518 211 518 z "},";":{"ha":365,"x_min":40,"x_max":303,"o":"m 199 518 q 122 547 151 518 q 93 617 93 576 q 122 689 93 660 q 199 718 151 718 q 274 689 244 718 q 303 617 303 660 q 274 547 303 576 q 199 518 244 518 m 40 -171 l 119 168 l 282 168 l 150 -171 l 40 -171 z "},"…":{"ha":906,"x_min":60,"x_max":846,"o":"m 454 -7 q 378 22 407 -7 q 349 92 349 51 q 378 164 349 135 q 454 193 407 193 q 529 164 500 193 q 558 92 558 135 q 529 22 558 51 q 454 -7 500 -7 m 742 -7 q 665 22 694 -7 q 636 92 636 51 q 665 164 636 135 q 742 193 694 193 q 817 164 788 193 q 846 92 846 135 q 817 22 846 51 q 742 -7 788 -7 m 165 -7 q 89 22 118 -7 q 60 92 60 51 q 89 164 60 135 q 165 193 118 193 q 240 164 211 193 q 269 92 269 135 q 240 22 269 51 q 165 -7 211 -7 z "},"!":{"ha":404,"x_min":97,"x_max":307,"o":"m 132 306 l 113 972 l 292 972 l 274 306 l 132 306 m 203 -7 q 127 22 157 -7 q 97 92 97 51 q 127 164 97 135 q 203 193 157 193 q 278 164 250 193 q 307 92 307 135 q 278 22 307 51 q 203 -7 250 -7 z "},"¡":{"ha":404,"x_min":97,"x_max":307,"o":"m 132 404 l 274 404 l 292 -262 l 113 -262 l 132 404 m 203 717 q 278 688 250 717 q 307 617 307 658 q 278 545 307 574 q 203 517 250 517 q 127 545 157 517 q 97 617 97 574 q 127 688 97 658 q 203 717 157 717 z "},"?":{"ha":742,"x_min":46,"x_max":683,"o":"m 204 304 l 199 526 l 258 526 q 360 533 313 526 q 444 558 408 539 q 501 610 481 576 q 522 699 522 644 q 503 781 522 747 q 448 832 483 814 q 364 850 413 850 q 279 832 315 850 q 224 781 243 814 q 204 701 204 747 l 46 701 q 85 850 46 785 q 196 952 124 915 q 365 989 268 989 q 531 954 458 989 q 643 855 603 919 q 683 699 683 790 q 642 539 683 601 q 526 446 600 476 q 356 415 451 415 l 351 304 l 204 304 m 278 -7 q 202 22 232 -7 q 172 92 172 51 q 202 164 172 135 q 278 193 232 193 q 354 164 325 193 q 383 92 383 135 q 354 22 383 51 q 278 -7 325 -7 z "},"¿":{"ha":742,"x_min":58,"x_max":697,"o":"m 538 404 l 543 183 l 483 183 q 381 176 429 183 q 297 151 333 169 q 240 99 261 133 q 219 10 219 65 q 239 -71 219 -36 q 294 -124 258 -106 q 378 -142 331 -142 q 463 -123 428 -142 q 518 -71 499 -104 q 538 7 538 -37 l 696 7 q 658 -141 697 -76 q 547 -242 618 -206 q 376 -279 475 -279 q 211 -245 283 -279 q 99 -146 139 -211 q 58 10 58 -81 q 100 171 58 108 q 217 264 142 233 q 386 294 292 294 l 390 404 l 538 404 m 464 717 q 540 688 510 717 q 569 617 569 658 q 540 545 569 574 q 464 517 510 517 q 388 545 417 517 q 358 617 358 574 q 388 688 358 658 q 464 717 417 717 z "},"·":{"ha":328,"x_min":60,"x_max":269,"o":"m 165 360 q 89 389 118 360 q 60 458 60 418 q 89 531 60 503 q 165 560 118 560 q 240 531 211 560 q 269 458 269 503 q 240 389 269 418 q 165 360 211 360 z "},"•":{"ha":526,"x_min":79,"x_max":447,"o":"m 263 279 q 170 303 213 279 q 103 369 128 328 q 79 463 79 411 q 103 557 79 515 q 169 623 128 599 q 263 647 211 647 q 356 623 314 647 q 423 557 399 599 q 447 463 447 515 q 423 369 447 411 q 356 303 399 328 q 263 279 314 279 z "},"*":{"ha":699,"x_min":94,"x_max":608,"o":"m 292 500 l 315 699 l 158 578 l 94 689 l 278 764 l 94 835 l 154 943 l 317 822 l 290 1022 l 415 1022 l 388 822 l 549 943 l 607 836 l 424 761 l 608 688 l 547 579 l 388 699 l 413 500 l 292 500 z "},"#":{"ha":1168,"x_min":50,"x_max":1110,"o":"m 615 0 l 825 1000 l 982 1000 l 772 0 l 615 0 m 194 0 l 403 1000 l 560 1000 l 351 0 l 194 0 m 50 249 l 50 397 l 1039 397 l 1039 249 l 50 249 m 119 606 l 119 754 l 1110 754 l 1110 606 l 119 606 z "},"/":{"ha":579,"x_min":33,"x_max":544,"o":"m 33 -150 l 382 1076 l 544 1076 l 196 -150 l 33 -150 z "},"\\":{"ha":579,"x_min":33,"x_max":544,"o":"m 544 -150 l 382 -150 l 33 1076 l 196 1076 l 544 -150 z "},"-":{"ha":785,"x_min":106,"x_max":681,"o":"m 104 340 l 104 479 l 679 479 l 679 340 l 104 340 z "},"–":{"ha":956,"x_min":106,"x_max":850,"o":"m 106 340 l 106 479 l 850 479 l 850 340 l 106 340 z "},"—":{"ha":1257,"x_min":106,"x_max":1151,"o":"m 106 340 l 106 479 l 1151 479 l 1151 340 l 106 340 z "},"_":{"ha":981,"x_min":106,"x_max":876,"o":"m 106 -211 l 106 -53 l 876 -53 l 876 -211 l 106 -211 z "},"(":{"ha":549,"x_min":64,"x_max":503,"o":"m 335 -201 q 197 -23 258 -125 q 100 201 136 79 q 64 463 64 324 q 100 724 64 601 q 197 949 136 846 q 335 1126 258 1051 l 503 1126 l 503 1111 q 358 920 419 1024 q 263 701 296 817 q 229 463 229 586 q 263 224 229 339 q 358 5 296 108 q 503 -186 419 -99 l 503 -201 l 335 -201 z "},")":{"ha":549,"x_min":46,"x_max":485,"o":"m 214 -201 l 46 -201 l 46 -186 q 192 5 131 -99 q 287 224 253 108 q 321 463 321 339 q 287 701 321 586 q 192 920 253 817 q 46 1111 131 1024 l 46 1126 l 214 1126 q 353 949 292 1051 q 449 724 414 846 q 485 463 485 601 q 449 201 485 324 q 353 -23 414 79 q 214 -201 292 -125 z "},"{":{"ha":636,"x_min":119,"x_max":553,"o":"m 467 -235 q 298 -178 363 -235 q 233 -10 233 -121 q 240 76 233 38 q 255 156 247 115 q 263 244 263 196 q 249 306 263 278 q 206 353 236 335 q 119 379 175 372 l 119 513 q 206 539 175 521 q 249 585 236 557 q 263 649 263 614 q 255 738 263 699 q 240 815 247 776 q 233 901 233 854 q 298 1069 233 1013 q 467 1126 363 1126 l 553 1126 l 553 988 l 497 988 q 419 963 446 988 q 393 885 393 939 q 401 813 393 849 q 415 735 408 776 q 421 642 421 694 q 385 517 421 569 q 268 447 349 464 l 268 444 q 385 376 349 428 q 421 249 421 324 q 415 156 421 197 q 401 79 408 115 q 393 7 393 43 q 419 -72 393 -47 q 497 -96 446 -96 l 553 -96 l 553 -235 l 467 -235 z "},"}":{"ha":636,"x_min":83,"x_max":515,"o":"m 169 -235 l 83 -235 l 83 -96 l 139 -96 q 216 -72 190 -96 q 242 7 242 -47 q 235 79 242 43 q 222 156 229 115 q 215 249 215 197 q 251 376 215 324 q 367 444 288 428 l 367 447 q 251 517 288 464 q 215 642 215 569 q 222 735 215 694 q 235 813 229 776 q 242 885 242 849 q 216 963 242 939 q 139 988 190 988 l 83 988 l 83 1126 l 169 1126 q 338 1069 274 1126 q 403 901 403 1013 q 396 815 403 854 q 381 738 389 776 q 374 649 374 699 q 387 585 374 614 q 431 539 400 557 q 515 513 463 521 l 515 379 q 431 353 463 372 q 387 306 400 335 q 374 244 374 278 q 381 156 374 196 q 396 76 389 115 q 403 -10 403 38 q 338 -178 403 -121 q 169 -235 274 -235 z "},"[":{"ha":497,"x_min":99,"x_max":419,"o":"m 99 -232 l 99 1126 l 419 1126 l 419 990 l 254 990 l 254 -94 l 419 -94 l 419 -232 l 99 -232 z "},"]":{"ha":497,"x_min":78,"x_max":400,"o":"m 400 -232 l 78 -232 l 78 -94 l 243 -94 l 243 990 l 78 990 l 78 1126 l 400 1126 l 400 -232 z "},"‚":{"ha":326,"x_min":24,"x_max":276,"o":"m 24 -158 l 100 182 l 276 182 l 139 -158 l 24 -158 z "},"„":{"ha":588,"x_min":24,"x_max":538,"o":"m 24 -158 l 100 182 l 276 182 l 139 -158 l 24 -158 m 286 -158 l 361 182 l 538 182 l 400 -158 l 286 -158 z "},"“":{"ha":594,"x_min":42,"x_max":553,"o":"m 300 626 l 438 972 l 553 972 l 476 626 l 300 626 m 42 626 l 179 972 l 294 972 l 219 626 l 42 626 z "},"”":{"ha":594,"x_min":42,"x_max":553,"o":"m 294 972 l 156 626 l 42 626 l 118 972 l 294 972 m 553 972 l 415 626 l 300 626 l 375 972 l 553 972 z "},"‘":{"ha":336,"x_min":42,"x_max":294,"o":"m 42 626 l 179 972 l 294 972 l 219 626 l 42 626 z "},"’":{"ha":336,"x_min":42,"x_max":294,"o":"m 294 972 l 157 626 l 42 626 l 117 972 l 294 972 z "},"«":{"ha":688,"x_min":58,"x_max":618,"o":"m 460 167 l 333 410 l 460 653 l 618 653 l 488 410 l 618 167 l 460 167 m 186 167 l 58 410 l 186 653 l 344 653 l 213 410 l 344 167 l 186 167 z "},"»":{"ha":688,"x_min":69,"x_max":629,"o":"m 228 167 l 69 167 l 201 410 l 69 653 l 228 653 l 356 410 l 228 167 m 501 167 l 343 167 l 475 410 l 343 653 l 501 653 l 629 410 l 501 167 z "},"‹":{"ha":418,"x_min":61,"x_max":346,"o":"m 188 167 l 61 410 l 188 653 l 346 653 l 215 410 l 346 167 l 188 167 z "},"›":{"ha":418,"x_min":72,"x_max":357,"o":"m 231 167 l 72 167 l 203 410 l 72 653 l 231 653 l 357 410 l 231 167 z "},"\"":{"ha":478,"x_min":54,"x_max":424,"o":"m 294 751 l 278 1049 l 424 1049 l 408 751 l 294 751 m 71 751 l 54 1049 l 201 1049 l 185 751 l 71 751 z "},"'":{"ha":258,"x_min":54,"x_max":203,"o":"m 72 751 l 54 1049 l 203 1049 l 186 751 l 72 751 z "},"ƒ":{"ha":464,"x_min":-72,"x_max":471,"o":"m -72 -308 l -60 -168 l -25 -168 q 26 -151 8 -168 q 49 -92 44 -133 l 144 818 q 239 1013 158 951 q 471 1074 319 1074 l 458 932 q 353 906 388 932 q 311 818 318 881 l 215 -92 q 175 -219 207 -171 q 90 -287 143 -267 q -36 -308 36 -308 l -72 -308 m 36 628 l 49 767 l 450 767 l 438 628 l 36 628 z "},"@":{"ha":1436,"x_min":106,"x_max":1332,"o":"m 611 -292 q 346 -232 460 -292 q 169 -63 232 -172 q 106 194 106 46 q 157 475 106 346 q 303 701 208 604 q 526 851 397 797 q 813 906 656 906 q 1086 844 969 906 q 1267 676 1203 783 q 1332 426 1332 568 q 1311 266 1332 343 q 1250 127 1290 189 q 1151 28 1210 65 q 1017 -8 1093 -8 q 881 47 924 -8 q 851 189 839 101 l 854 235 l 882 169 q 774 40 847 88 q 614 -8 701 -8 q 453 55 511 -8 q 394 226 394 118 q 418 372 394 303 q 485 497 442 442 q 588 583 528 551 q 719 615 647 615 q 848 574 801 615 q 904 454 894 532 l 875 433 l 906 601 l 1042 601 l 976 224 q 980 136 967 169 q 1040 103 993 103 q 1110 132 1081 103 q 1160 208 1140 161 q 1191 311 1181 256 q 1201 421 1201 367 q 1152 619 1201 536 q 1012 746 1103 701 q 794 790 921 790 q 569 746 671 790 q 392 622 467 701 q 276 435 317 542 q 235 207 235 329 q 283 0 235 86 q 420 -131 331 -86 q 633 -176 510 -176 q 757 -164 696 -176 q 869 -128 818 -151 l 896 -236 q 760 -278 832 -265 q 611 -292 688 -292 m 665 114 q 758 142 717 114 q 827 220 800 171 q 858 332 854 269 q 849 414 863 378 q 806 472 835 450 q 732 493 778 493 q 653 472 688 493 q 593 418 618 451 q 555 342 568 385 q 542 253 542 299 q 573 152 542 190 q 665 114 604 114 z "},"&":{"ha":1065,"x_min":57,"x_max":1032,"o":"m 831 0 l 303 529 q 212 646 239 593 q 185 757 185 699 q 217 876 185 824 q 312 958 250 928 q 461 989 374 989 q 608 957 549 989 q 700 872 668 925 q 731 753 732 819 l 569 753 q 538 833 569 806 q 460 860 506 860 q 376 832 407 860 q 346 758 346 804 q 368 684 346 722 q 433 599 390 646 l 1032 0 l 831 0 m 400 -17 q 219 20 296 -17 q 99 124 142 57 q 57 282 57 192 q 85 411 57 351 q 172 517 114 471 q 315 590 229 563 l 378 611 l 454 507 l 393 486 q 263 407 306 457 q 219 290 219 357 q 242 205 219 243 q 308 144 265 167 q 408 122 351 122 q 546 156 485 122 q 664 265 607 190 q 717 342 690 299 q 772 440 744 386 l 806 504 l 976 504 l 925 404 q 853 274 889 333 q 778 169 817 215 q 607 28 699 72 q 400 -17 515 -17 z "},"¶":{"ha":879,"x_min":46,"x_max":782,"o":"m 397 -139 l 397 396 l 375 396 q 188 435 261 396 q 81 540 115 474 q 46 683 46 606 q 81 828 46 763 q 188 933 115 893 q 375 972 261 972 l 782 972 l 782 -139 l 640 -139 l 640 844 l 538 844 l 538 -139 l 397 -139 z "},"§":{"ha":844,"x_min":63,"x_max":781,"o":"m 417 -322 q 247 -287 321 -322 q 133 -190 174 -253 q 89 -43 92 -128 l 267 -43 q 285 -110 268 -79 q 337 -161 303 -142 q 419 -182 371 -181 q 524 -151 483 -183 q 565 -60 565 -118 q 547 5 565 -19 q 496 45 529 29 q 419 76 463 61 q 322 107 375 90 q 191 167 250 132 q 97 256 132 201 q 63 393 63 311 q 82 495 63 447 q 139 582 101 543 q 111 642 121 610 q 101 714 101 674 q 142 860 101 799 q 256 955 183 921 q 425 989 329 989 q 595 954 522 989 q 710 858 668 919 q 754 710 753 796 l 576 710 q 557 777 575 746 q 505 828 539 808 q 422 849 471 849 q 319 817 360 850 q 278 726 278 785 q 295 663 278 688 q 346 622 313 638 q 424 591 379 606 q 521 558 468 576 q 652 500 593 535 q 746 411 711 465 q 781 274 781 357 q 761 172 781 221 q 701 85 742 124 q 730 26 721 58 q 739 -46 739 -7 q 699 -192 740 -129 q 585 -288 658 -254 q 417 -322 513 -322 m 572 178 q 596 217 588 196 q 604 263 604 238 q 585 333 604 304 q 533 381 567 361 q 455 417 500 400 q 356 451 410 433 q 308 470 329 461 q 269 489 288 479 q 246 451 254 472 q 238 404 238 429 q 249 348 238 372 q 283 306 261 324 q 336 272 306 288 q 405 244 367 257 q 485 215 443 231 q 531 197 510 207 q 572 178 553 188 z "},"©":{"ha":1094,"x_min":64,"x_max":1032,"o":"m 547 -7 q 294 56 404 -7 q 124 231 185 119 q 64 488 64 343 q 124 744 64 633 q 294 919 185 856 q 547 982 404 982 q 800 919 692 982 q 970 744 908 856 q 1032 488 1032 633 q 970 231 1032 343 q 800 56 908 119 q 547 -7 692 -7 m 547 171 q 394 209 463 171 q 284 318 325 247 q 243 489 243 389 q 284 659 243 588 q 394 769 325 731 q 547 807 463 807 q 732 750 654 807 q 835 588 810 693 l 688 588 q 634 665 672 638 q 544 692 596 692 q 463 669 499 692 q 405 601 426 646 q 383 488 383 556 q 405 376 383 422 q 463 308 426 331 q 544 285 499 285 q 635 313 599 285 q 688 388 672 340 l 835 388 q 732 229 810 288 q 547 171 654 171 m 547 56 q 770 110 676 56 q 915 263 864 165 q 965 488 965 360 q 915 715 965 618 q 770 867 864 813 q 547 921 676 921 q 326 867 419 921 q 181 716 232 813 q 129 488 129 619 q 181 263 129 360 q 326 110 232 165 q 547 56 419 56 z "},"®":{"ha":706,"x_min":65,"x_max":640,"o":"m 354 411 q 204 448 269 411 q 102 551 139 485 q 65 700 65 617 q 102 849 65 785 q 204 951 139 914 q 354 989 269 989 q 502 951 438 989 q 603 849 567 914 q 640 700 640 785 q 603 551 640 617 q 502 448 567 485 q 354 411 438 411 m 401 554 l 322 689 l 407 689 l 494 554 l 401 554 m 354 472 q 470 501 421 472 q 547 582 519 531 q 575 700 575 633 q 547 817 575 767 q 470 897 519 868 q 354 926 421 926 q 236 897 286 926 q 158 817 186 868 q 131 700 131 767 q 158 582 131 633 q 236 501 186 531 q 354 472 286 472 m 236 554 l 236 851 l 378 851 q 453 826 425 851 q 481 757 481 801 q 453 690 481 715 q 378 665 425 665 l 315 665 l 315 554 l 236 554 m 315 724 l 367 724 q 392 731 382 724 q 401 754 401 738 q 392 776 401 769 q 367 782 382 782 l 315 782 l 315 724 z "},"™":{"ha":1136,"x_min":38,"x_max":1069,"o":"m 38 872 l 38 972 l 403 972 l 403 872 l 283 872 l 283 483 l 157 483 l 157 872 l 38 872 m 476 483 l 476 972 l 640 972 l 774 635 l 917 972 l 1069 972 l 1069 483 l 954 483 l 954 817 l 813 483 l 725 483 l 588 819 l 588 483 l 476 483 z "},"°":{"ha":496,"x_min":53,"x_max":443,"o":"m 247 596 q 150 620 194 596 q 79 688 106 644 q 53 792 53 732 q 80 897 53 853 q 151 965 107 940 q 249 989 196 989 q 345 965 301 989 q 416 897 389 940 q 443 792 443 853 q 416 688 443 732 q 344 620 389 644 q 247 596 300 596 m 247 704 q 303 726 276 704 q 329 793 329 749 q 303 858 329 836 q 249 881 278 881 q 192 858 218 881 q 167 793 167 836 q 192 726 167 749 q 247 704 217 704 z "},"|":{"ha":363,"x_min":99,"x_max":265,"o":"m 99 -139 l 99 1000 l 265 1000 l 265 -139 l 99 -139 z "},"¦":{"ha":363,"x_min":99,"x_max":265,"o":"m 99 544 l 99 1000 l 265 1000 l 265 544 l 99 544 m 99 -139 l 99 317 l 265 317 l 265 -139 l 99 -139 z "},"ℓ":{"ha":363,"x_min":99,"x_max":265,"o":"m 99 -139 l 99 1000 l 265 1000 l 265 -139 l 99 -139 z "},"†":{"ha":808,"x_min":63,"x_max":746,"o":"m 321 -364 l 338 651 l 63 638 l 63 767 l 338 753 l 321 1089 l 486 1089 l 471 753 l 746 767 l 746 638 l 471 651 l 486 -364 l 321 -364 z "},"‡":{"ha":808,"x_min":63,"x_max":746,"o":"m 321 -364 l 338 -28 l 63 -42 l 63 88 l 338 74 l 338 651 l 63 638 l 63 767 l 338 753 l 321 1089 l 486 1089 l 471 753 l 746 767 l 746 638 l 471 651 l 471 74 l 746 88 l 746 -42 l 471 -28 l 486 -364 l 321 -364 z "},"℮":{"ha":1050,"x_min":60,"x_max":992,"o":"m 538 -10 q 292 45 401 -10 q 122 206 183 100 q 60 461 60 311 q 113 724 60 607 q 271 910 167 840 q 525 979 375 979 q 724 941 638 979 q 871 840 811 903 q 961 695 931 776 q 992 525 992 614 l 992 439 l 274 439 l 274 203 q 388 121 325 149 q 538 93 451 93 q 666 113 607 93 q 778 172 725 133 q 886 263 832 210 l 951 189 q 762 43 865 96 q 538 -10 658 -10 m 274 540 l 767 540 l 767 781 q 663 853 725 828 q 525 878 601 878 q 383 851 447 878 q 274 767 319 824 l 274 540 z "},"¢":{"ha":828,"x_min":69,"x_max":760,"o":"m 349 -144 l 349 82 l 503 82 l 503 -144 l 349 -144 m 349 617 l 349 844 l 503 844 l 503 617 l 349 617 m 425 -17 q 241 30 322 -17 q 115 159 160 76 q 69 347 69 242 q 115 540 69 457 q 241 669 160 622 q 426 717 322 717 q 646 648 557 717 q 760 460 735 579 l 585 460 q 527 543 571 513 q 424 574 483 574 q 330 547 372 574 q 263 471 288 521 q 239 350 239 421 q 253 254 239 296 q 292 184 267 213 q 351 140 318 156 q 424 125 385 125 q 497 138 464 125 q 552 178 529 151 q 585 240 575 204 l 760 240 q 646 53 735 124 q 425 -17 557 -17 z "},"¤":{"ha":767,"x_min":88,"x_max":679,"o":"m 383 165 q 249 196 307 165 q 157 282 190 226 q 124 413 124 338 q 158 544 124 489 q 251 630 192 600 q 385 660 310 660 q 519 630 460 660 q 612 544 578 600 q 646 413 646 489 q 611 282 646 338 q 517 196 576 226 q 383 165 458 165 m 158 114 l 88 186 l 213 310 l 294 249 l 158 114 m 608 114 l 488 236 l 560 304 l 679 186 l 608 114 m 383 275 q 441 290 414 275 q 486 335 468 304 q 504 413 504 365 q 486 492 504 461 q 441 537 468 522 q 383 551 414 551 q 326 537 353 551 q 281 492 299 522 q 264 413 264 461 q 281 335 264 365 q 325 290 297 304 q 383 275 353 275 m 210 524 l 88 643 l 158 715 l 286 588 l 210 524 m 549 513 l 482 586 l 608 715 l 679 643 l 549 513 z "},"$":{"ha":829,"x_min":63,"x_max":765,"o":"m 367 -121 l 367 1099 l 460 1099 l 460 -121 l 367 -121 m 425 -17 q 238 21 319 -17 q 110 128 156 58 q 63 293 64 197 l 239 293 q 262 206 239 244 q 326 146 285 168 q 425 124 367 124 q 512 140 475 124 q 569 185 549 156 q 589 256 589 215 q 567 331 589 301 q 508 382 546 361 q 422 419 471 403 q 319 453 374 435 q 146 552 204 492 q 88 714 88 613 q 128 860 88 799 q 241 955 168 921 q 410 989 314 989 q 580 954 507 989 q 695 858 653 919 q 739 710 738 796 l 561 710 q 542 777 560 746 q 490 828 524 808 q 407 849 456 849 q 333 835 365 850 q 281 794 300 821 q 263 726 263 767 q 280 662 263 688 q 331 619 297 636 q 408 586 364 601 q 506 553 453 571 q 637 495 578 529 q 731 407 696 461 q 765 267 765 353 q 726 127 765 192 q 613 23 688 63 q 425 -17 538 -17 z "},"€":{"ha":1089,"x_min":31,"x_max":1025,"o":"m 31 331 l 31 433 l 631 433 l 631 331 l 31 331 m 31 539 l 31 642 l 631 642 l 631 539 l 31 539 m 603 -17 q 354 47 458 -17 q 193 223 250 110 q 136 485 136 336 q 193 748 136 635 q 354 925 250 861 q 603 989 458 989 q 887 903 776 989 q 1025 663 997 818 l 843 663 q 763 792 824 744 q 601 839 703 839 q 444 797 511 839 q 342 674 378 754 q 307 485 307 594 q 342 297 307 375 q 444 176 378 218 q 601 133 511 133 q 763 177 703 133 q 842 299 822 221 l 1025 299 q 887 67 997 151 q 603 -17 776 -17 z "},"₺":{"ha":1143,"x_min":32,"x_max":1032,"o":"m 519 -17 q 387 -8 457 -17 q 240 17 317 0 l 240 972 l 411 972 l 411 150 q 467 142 440 144 q 519 139 493 139 q 684 172 618 139 q 790 265 750 204 q 846 410 829 325 q 863 601 863 496 l 1032 601 q 980 256 1032 393 q 815 51 928 118 q 519 -17 703 -17 m 35 296 l 35 406 l 635 536 l 635 426 l 35 296 m 32 524 l 32 629 l 636 767 l 636 657 l 32 524 z "},"₽":{"ha":896,"x_min":43,"x_max":849,"o":"m 43 150 l 43 279 l 168 279 l 168 396 l 43 396 l 43 528 l 168 528 l 168 972 l 506 972 q 699 934 622 972 q 812 831 775 896 q 849 683 849 767 q 813 540 849 606 q 702 435 778 474 q 506 396 626 396 l 335 396 l 335 279 l 606 279 l 606 150 l 335 150 l 335 0 l 168 0 l 168 150 l 43 150 m 335 528 l 501 528 q 638 570 596 528 q 679 683 679 613 q 638 801 679 757 q 501 844 596 844 l 335 844 l 335 528 z "},"₨":{"ha":1532,"x_min":99,"x_max":1465,"o":"m 99 0 l 99 972 l 447 972 q 638 933 563 972 q 751 827 714 893 q 788 678 788 761 q 751 533 788 600 q 639 426 715 467 q 443 386 563 386 l 265 386 l 265 0 l 99 0 m 606 0 l 401 429 l 582 429 l 796 0 l 606 0 m 265 510 l 436 510 q 573 555 529 510 q 617 674 617 600 q 574 790 617 746 q 436 833 531 833 l 265 833 l 265 510 m 1178 -17 q 1016 13 1085 -17 q 908 97 947 43 q 861 219 868 150 l 1028 219 q 1053 166 1035 190 q 1102 128 1071 142 q 1176 114 1133 114 q 1244 126 1218 114 q 1283 157 1271 138 q 1296 199 1296 176 q 1278 250 1296 232 q 1226 278 1260 268 q 1144 299 1192 289 q 1048 323 1094 308 q 965 360 1001 338 q 906 417 928 382 q 885 501 885 451 q 917 611 885 563 q 1012 688 950 660 q 1160 717 1074 717 q 1355 660 1282 717 q 1440 503 1428 604 l 1282 503 q 1243 563 1275 542 q 1158 585 1211 585 q 1076 565 1104 585 q 1047 511 1047 544 q 1065 472 1047 489 q 1115 444 1082 456 q 1197 421 1149 432 q 1335 385 1275 406 q 1429 324 1394 364 q 1464 210 1464 283 q 1430 92 1465 143 q 1331 12 1394 40 q 1178 -17 1267 -17 z "},"₹":{"ha":864,"x_min":65,"x_max":810,"o":"m 408 -17 q 188 62 264 -17 q 111 289 111 140 l 111 482 q 319 489 242 482 q 435 520 397 496 q 485 592 474 544 q 497 721 497 639 l 497 910 l 653 910 l 653 722 q 634 563 653 629 q 571 453 615 496 q 452 390 526 410 q 268 369 378 369 l 268 274 q 299 156 268 201 q 407 111 329 111 q 509 153 478 111 q 540 269 540 194 l 696 269 q 619 58 692 132 q 408 -17 546 -17 m 65 621 l 65 729 l 810 729 l 810 621 l 65 621 m 65 857 l 65 972 l 810 972 l 810 857 l 65 857 z "},"£":{"ha":861,"x_min":58,"x_max":779,"o":"m 110 0 l 110 100 q 171 173 146 136 q 210 253 196 210 q 224 357 224 297 q 212 438 224 399 q 185 517 200 476 q 158 601 169 557 q 146 696 146 646 q 186 852 146 786 q 297 953 226 918 q 458 989 367 989 q 632 949 564 989 q 736 841 700 908 q 776 692 772 774 l 622 692 q 579 806 619 761 q 461 851 539 851 q 383 834 419 851 q 326 781 347 817 q 304 689 304 744 q 316 610 304 650 q 343 529 328 571 q 369 445 358 488 q 381 360 381 403 q 358 241 381 299 q 283 133 336 183 l 779 133 l 779 0 l 110 0 m 58 417 l 58 532 l 603 532 l 603 417 l 58 417 z "},"¥":{"ha":883,"x_min":35,"x_max":850,"o":"m 81 218 l 81 333 l 803 333 l 803 218 l 81 218 m 389 444 l 81 444 l 81 560 l 381 560 l 389 444 m 529 444 l 538 560 l 803 560 l 803 444 l 529 444 m 358 0 l 358 350 l 35 972 l 222 972 l 461 478 l 425 478 l 663 972 l 850 972 l 525 350 l 525 0 l 358 0 z "},"∕":{"ha":576,"x_min":33,"x_max":544,"o":"m 33 -150 l 382 1076 l 544 1076 l 196 -150 l 33 -150 z "},"+":{"ha":793,"x_min":63,"x_max":729,"o":"m 324 90 l 324 715 l 467 715 l 467 90 l 324 90 m 63 333 l 63 472 l 729 472 l 729 333 l 63 333 z "},"−":{"ha":793,"x_min":108,"x_max":683,"o":"m 108 340 l 108 479 l 683 479 l 683 340 l 108 340 z "},"×":{"ha":793,"x_min":122,"x_max":671,"o":"m 219 128 l 122 226 l 297 403 l 126 575 l 225 672 l 396 501 l 572 678 l 671 579 l 494 403 l 667 232 l 567 133 l 396 304 l 219 128 z "},"÷":{"ha":793,"x_min":103,"x_max":690,"o":"m 103 333 l 103 472 l 690 472 l 690 333 l 103 333 m 397 67 q 322 96 351 67 q 292 167 292 125 q 322 238 292 208 q 397 267 351 267 q 473 238 444 267 q 501 167 501 208 q 473 96 501 125 q 397 67 444 67 m 397 543 q 322 572 351 543 q 292 642 292 601 q 322 714 292 685 q 397 743 351 743 q 473 714 444 743 q 501 642 501 685 q 473 572 501 601 q 397 543 444 543 z "},"=":{"ha":793,"x_min":104,"x_max":688,"o":"m 104 482 l 104 628 l 688 628 l 688 482 l 104 482 m 104 178 l 104 324 l 688 324 l 688 178 l 104 178 z "},"≠":{"ha":793,"x_min":106,"x_max":689,"o":"m 140 85 l 476 721 l 610 721 l 275 85 l 140 85 m 106 482 l 106 628 l 689 628 l 689 482 l 106 482 m 106 178 l 106 322 l 689 322 l 689 178 l 106 178 z "},">":{"ha":793,"x_min":133,"x_max":660,"o":"m 133 69 l 450 385 l 133 700 l 344 700 l 660 385 l 660 385 l 344 69 l 133 69 z "},"<":{"ha":793,"x_min":133,"x_max":660,"o":"m 660 69 l 449 69 l 133 385 l 133 385 l 449 700 l 660 700 l 343 385 l 660 69 z "},"≥":{"ha":793,"x_min":132,"x_max":661,"o":"m 132 217 l 446 481 l 132 743 l 344 743 l 661 479 l 661 479 l 344 217 l 132 217 m 132 0 l 132 128 l 646 128 l 646 0 l 132 0 z "},"≤":{"ha":793,"x_min":132,"x_max":661,"o":"m 661 217 l 449 217 l 132 479 l 132 479 l 449 743 l 661 743 l 347 481 l 661 217 m 660 0 l 147 0 l 147 128 l 660 128 l 660 0 z "},"±":{"ha":793,"x_min":56,"x_max":736,"o":"m 56 0 l 56 128 l 736 128 l 736 0 l 56 0 m 325 217 l 325 717 l 467 717 l 467 217 l 325 217 m 56 397 l 56 536 l 736 536 l 736 397 l 56 397 z "},"≈":{"ha":793,"x_min":53,"x_max":740,"o":"m 515 125 q 440 140 472 125 q 378 173 407 154 q 324 206 350 192 q 265 219 297 219 q 206 195 229 219 q 176 128 183 171 l 53 128 q 96 264 65 211 q 172 342 126 317 q 274 368 218 368 q 351 353 318 368 q 413 321 385 339 q 469 288 442 303 q 525 274 496 274 q 585 298 563 274 q 614 367 608 322 l 740 367 q 698 230 729 283 q 620 151 667 176 q 515 125 574 125 m 515 438 q 440 452 472 438 q 378 485 407 467 q 324 518 350 504 q 265 532 297 532 q 206 508 229 532 q 176 440 183 483 l 53 440 q 96 576 65 524 q 172 655 126 629 q 274 681 218 681 q 351 666 318 681 q 413 633 385 651 q 469 601 442 615 q 525 586 496 586 q 585 610 563 586 q 614 679 608 635 l 740 679 q 698 542 729 596 q 620 463 667 489 q 515 438 574 438 z "},"~":{"ha":793,"x_min":53,"x_max":740,"o":"m 515 321 q 440 335 472 321 q 378 369 407 350 q 324 401 350 388 q 265 415 297 415 q 206 391 229 415 q 176 324 183 367 l 53 324 q 96 460 65 407 q 172 538 126 513 q 274 564 218 564 q 351 549 318 564 q 413 517 385 535 q 469 484 442 499 q 525 469 496 469 q 585 494 563 469 q 614 563 608 518 l 740 563 q 698 426 729 479 q 620 347 667 372 q 515 321 574 321 z "},"¬":{"ha":793,"x_min":-12,"x_max":806,"o":"m 639 285 l 639 476 l -12 476 l -12 606 l 806 606 l 806 285 l 639 285 z "},"^":{"ha":918,"x_min":50,"x_max":868,"o":"m 50 281 l 381 972 l 539 972 l 868 281 l 700 281 l 460 782 l 460 782 l 218 281 l 50 281 z "},"∞":{"ha":1008,"x_min":47,"x_max":961,"o":"m 267 181 q 110 238 172 181 q 47 397 47 294 q 77 516 47 467 q 158 592 107 565 q 271 618 208 618 q 380 594 333 618 q 462 534 426 571 q 527 456 497 497 q 586 378 557 415 q 649 319 615 342 q 724 296 682 296 q 799 324 771 296 q 828 400 828 351 q 801 476 828 449 q 729 503 774 503 q 626 463 674 503 q 553 357 578 422 l 471 399 q 524 506 488 456 q 615 587 560 556 q 740 618 669 618 q 899 561 836 618 q 961 401 961 504 q 931 283 961 332 q 850 207 901 233 q 735 181 799 181 q 626 204 674 181 q 540 265 578 228 q 471 342 503 301 q 410 420 439 383 q 349 480 381 457 q 278 503 317 503 q 208 475 236 503 q 181 397 181 447 q 208 323 181 350 q 281 296 236 296 q 384 336 336 296 q 456 442 432 376 l 538 400 q 485 294 522 344 q 394 213 449 244 q 267 181 340 181 z "},"∫":{"ha":378,"x_min":-60,"x_max":444,"o":"m -60 -308 l -46 -168 l -19 -168 q 28 -151 14 -168 q 46 -92 42 -133 l 172 1072 q 213 1200 181 1153 q 297 1267 244 1247 q 417 1286 350 1286 l 444 1286 l 431 1146 l 406 1146 q 360 1129 376 1146 q 339 1072 343 1113 l 213 -92 q 174 -219 206 -171 q 90 -287 142 -267 q -31 -308 39 -308 l -60 -308 z "},"Ω":{"ha":1096,"x_min":56,"x_max":1040,"o":"m 68 0 l 68 128 l 339 128 l 311 89 q 167 189 224 126 q 83 332 110 251 q 56 503 56 413 q 93 702 56 613 q 198 856 131 792 q 355 955 265 921 q 547 989 444 989 q 740 955 650 989 q 897 856 829 921 q 1003 702 965 792 q 1040 503 1040 613 q 1013 332 1040 413 q 929 189 986 251 q 783 89 872 126 l 756 128 l 1026 128 l 1026 0 l 647 0 l 647 133 q 763 209 713 160 q 843 329 814 258 q 872 488 872 400 q 848 633 872 568 q 780 744 824 699 q 677 813 736 789 q 547 836 618 836 q 417 812 476 836 q 315 742 358 788 q 247 632 271 696 q 224 488 224 568 q 253 329 224 400 q 333 209 282 258 q 447 133 383 160 l 447 0 l 68 0 z "},"∆":{"ha":985,"x_min":35,"x_max":951,"o":"m 35 0 l 35 128 l 424 972 l 561 972 l 951 128 l 951 0 l 35 0 m 204 128 l 781 128 l 493 782 l 204 128 z "},"∏":{"ha":1019,"x_min":42,"x_max":978,"o":"m 147 0 l 147 844 l 42 844 l 42 972 l 978 972 l 978 844 l 874 844 l 874 0 l 707 0 l 707 844 l 314 844 l 314 0 l 147 0 z "},"∑":{"ha":675,"x_min":60,"x_max":640,"o":"m 60 -68 l 60 124 l 408 457 l 61 779 l 61 972 l 640 972 l 640 844 l 200 844 l 564 519 l 564 397 l 204 58 l 640 58 l 640 -68 l 60 -68 z "},"√":{"ha":1068,"x_min":26,"x_max":1140,"o":"m 26 293 l 271 436 l 439 136 l 1032 1224 l 1140 1224 l 440 -60 l 360 -60 l 174 268 l 75 211 l 26 293 z "},"µ":{"ha":851,"x_min":93,"x_max":758,"o":"m 93 -306 l 93 689 l 260 689 l 260 314 q 297 173 260 222 q 414 124 335 124 q 506 149 467 124 q 569 220 546 174 q 592 333 592 267 l 592 689 l 758 689 l 758 0 l 610 0 l 599 117 l 599 117 q 504 20 565 57 q 363 -17 443 -17 q 307 -10 333 -17 q 260 10 281 -4 l 260 -306 l 93 -306 z "},"∂":{"ha":815,"x_min":51,"x_max":764,"o":"m 344 -12 q 198 24 265 -12 q 91 134 131 60 q 51 324 51 208 q 79 499 51 417 q 158 643 107 581 q 276 741 208 706 q 425 776 344 776 q 497 765 464 776 q 558 729 531 754 q 601 660 585 704 q 573 799 596 738 q 504 896 550 861 q 383 931 458 931 q 334 927 360 931 q 281 915 308 924 l 281 1007 q 355 1023 319 1018 q 425 1028 390 1028 q 609 974 533 1028 q 724 817 685 919 q 764 569 764 714 q 710 260 764 390 q 561 58 656 129 q 344 -12 467 -12 m 361 131 q 451 156 410 131 q 520 224 492 181 q 564 326 549 268 q 579 447 579 383 q 540 590 579 543 q 438 636 501 636 q 348 613 388 636 q 280 546 308 589 q 235 447 251 503 q 219 324 219 390 q 260 177 219 224 q 361 131 301 131 z "},"%":{"ha":1206,"x_min":58,"x_max":1147,"o":"m 242 0 l 793 972 l 957 972 l 406 0 l 242 0 m 913 -17 q 794 13 847 -17 q 708 98 740 43 q 676 228 676 153 q 708 358 676 304 q 794 442 740 413 q 913 472 847 472 q 1033 442 981 472 q 1116 358 1085 413 q 1147 228 1147 304 q 1116 98 1147 153 q 1032 13 1085 43 q 913 -17 979 -17 m 911 100 q 964 115 940 100 q 1001 158 988 129 q 1015 228 1015 186 q 1001 299 1015 271 q 965 341 988 326 q 913 356 942 356 q 861 341 885 356 q 824 299 838 326 q 810 228 810 271 q 824 158 810 186 q 860 115 838 129 q 911 100 883 100 m 294 500 q 174 529 228 500 q 90 614 121 558 q 58 744 58 669 q 90 874 58 819 q 175 958 121 929 q 294 988 229 988 q 414 958 361 988 q 498 874 467 929 q 529 744 529 819 q 498 614 529 669 q 414 529 467 558 q 294 500 361 500 m 293 617 q 346 631 322 617 q 383 674 369 646 q 396 744 396 703 q 383 815 396 786 q 346 859 369 844 q 294 874 322 874 q 242 859 267 874 q 204 815 218 844 q 190 744 190 786 q 204 674 190 703 q 242 631 218 646 q 293 617 265 617 z "},"‰":{"ha":1718,"x_min":58,"x_max":1661,"o":"m 1425 -17 q 1306 13 1360 -17 q 1221 98 1253 43 q 1189 228 1189 153 q 1221 358 1189 304 q 1306 442 1253 413 q 1426 472 1360 472 q 1546 442 1493 472 q 1630 358 1599 413 q 1661 228 1661 304 q 1630 98 1661 153 q 1545 13 1599 43 q 1425 -17 1492 -17 m 1425 99 q 1478 114 1454 99 q 1515 158 1501 129 q 1529 228 1529 186 q 1515 300 1529 271 q 1478 343 1501 329 q 1426 357 1454 357 q 1373 343 1397 357 q 1335 300 1349 329 q 1321 228 1321 271 q 1335 158 1321 186 q 1373 114 1349 129 q 1425 99 1397 99 m 242 0 l 793 972 l 957 972 l 406 0 l 242 0 m 913 -17 q 794 13 847 -17 q 708 98 740 43 q 676 228 676 153 q 708 358 676 304 q 794 442 740 413 q 913 472 847 472 q 1033 442 981 472 q 1116 358 1085 413 q 1147 228 1147 304 q 1116 98 1147 153 q 1032 13 1085 43 q 913 -17 979 -17 m 911 100 q 964 115 940 100 q 1001 158 988 129 q 1015 228 1015 186 q 1001 299 1015 271 q 965 341 988 326 q 913 356 942 356 q 861 341 885 356 q 824 299 838 326 q 810 228 810 271 q 824 158 810 186 q 860 115 838 129 q 911 100 883 100 m 294 500 q 174 529 228 500 q 90 614 121 558 q 58 744 58 669 q 90 874 58 819 q 175 958 121 929 q 294 988 229 988 q 414 958 361 988 q 498 874 467 929 q 529 744 529 819 q 498 614 529 669 q 414 529 467 558 q 294 500 361 500 m 293 617 q 346 631 322 617 q 383 674 369 646 q 396 744 396 703 q 383 815 396 786 q 346 859 369 844 q 294 874 322 874 q 242 859 267 874 q 204 815 218 844 q 190 744 190 786 q 204 674 190 703 q 242 631 218 646 q 293 617 265 617 z "},"↑":{"ha":1211,"x_min":50,"x_max":1161,"o":"m 50 478 l 557 972 l 654 972 l 1161 478 l 1056 372 l 685 738 l 685 0 l 526 0 l 526 739 l 156 374 l 50 478 z "},"↗":{"ha":897,"x_min":61,"x_max":842,"o":"m 172 86 l 61 196 l 588 722 l 61 722 l 61 868 l 772 868 l 842 800 l 842 88 l 694 88 l 694 608 l 172 86 z "},"→":{"ha":1083,"x_min":58,"x_max":1031,"o":"m 58 404 l 58 556 l 796 556 l 432 889 l 536 994 l 1031 529 l 1031 432 l 536 -33 l 431 74 l 793 404 l 58 404 z "},"↘":{"ha":903,"x_min":61,"x_max":842,"o":"m 172 864 l 694 342 l 694 863 l 842 863 l 842 150 l 772 82 l 61 82 l 61 228 l 588 228 l 61 754 l 172 864 z "},"↓":{"ha":1222,"x_min":56,"x_max":1167,"o":"m 56 494 l 161 599 l 532 233 l 532 972 l 690 972 l 690 235 l 1061 600 l 1167 494 l 660 0 l 563 0 l 56 494 z "},"↙":{"ha":903,"x_min":61,"x_max":842,"o":"m 731 864 l 842 754 l 315 228 l 842 228 l 842 82 l 131 82 l 61 150 l 61 863 l 207 863 l 207 342 l 731 864 z "},"←":{"ha":1083,"x_min":53,"x_max":1025,"o":"m 1025 404 l 290 404 l 653 74 l 547 -33 l 53 432 l 53 529 l 547 994 l 651 889 l 288 556 l 1025 556 l 1025 404 z "},"↖":{"ha":903,"x_min":61,"x_max":842,"o":"m 731 69 l 207 592 l 207 71 l 61 71 l 61 783 l 131 851 l 842 851 l 842 706 l 315 706 l 842 179 l 731 69 z "},"↔":{"ha":1342,"x_min":56,"x_max":1286,"o":"m 56 431 l 56 528 l 482 981 l 589 890 l 268 554 l 1074 554 l 753 890 l 860 981 l 1286 528 l 1286 431 l 860 -22 l 753 68 l 1076 407 l 265 407 l 589 68 l 482 -22 l 56 431 z "},"↕":{"ha":1143,"x_min":58,"x_max":1086,"o":"m 58 311 l 146 417 l 496 188 l 496 788 l 146 557 l 58 664 l 524 974 l 619 974 l 1086 664 l 997 557 l 649 786 l 649 188 l 997 417 l 1086 311 l 619 0 l 524 0 l 58 311 z "},"◊":{"ha":775,"x_min":42,"x_max":733,"o":"m 388 142 l 42 488 l 388 833 l 733 488 l 388 142 m 388 308 l 565 488 l 388 665 l 211 488 l 388 308 z "},"̈":{"ha":0,"x_min":0,"x_max":410,"o":"m 83 792 q 24 815 47 792 q 0 874 0 839 q 24 933 0 908 q 83 957 47 957 q 141 933 117 957 q 165 874 165 908 q 141 815 165 839 q 83 792 117 792 m 328 792 q 269 815 293 792 q 246 874 246 839 q 269 933 246 908 q 328 957 293 957 q 386 933 363 957 q 410 874 410 908 q 386 815 410 839 q 328 792 363 792 z "},"̇":{"ha":0,"x_min":0,"x_max":165,"o":"m 83 793 q 24 817 49 793 q 0 875 0 840 q 24 934 0 910 q 83 958 49 958 q 141 934 117 958 q 165 875 165 910 q 141 817 165 840 q 83 793 117 793 z "},"̀":{"ha":0,"x_min":0,"x_max":317,"o":"m 301 760 l 0 917 l 19 1046 l 19 1046 l 317 872 l 301 760 z "},"́":{"ha":0,"x_min":0,"x_max":317,"o":"m 15 760 l 0 872 l 297 1046 l 297 1046 l 317 917 l 15 760 z "},"̋":{"ha":0,"x_min":0,"x_max":478,"o":"m 229 757 l 340 999 l 478 999 l 336 757 l 229 757 m 0 757 l 97 999 l 233 999 l 107 757 l 0 757 z "},"̂":{"ha":0,"x_min":0,"x_max":401,"o":"m 0 764 l 0 885 l 200 996 l 401 885 l 401 764 l 200 879 l 0 764 z "},"̌":{"ha":0,"x_min":0,"x_max":401,"o":"m 200 782 l 0 893 l 0 1014 l 200 896 l 401 1014 l 401 893 l 200 782 z "},"̆":{"ha":0,"x_min":0,"x_max":425,"o":"m 211 782 q 99 808 146 782 q 26 879 51 833 q 0 986 0 925 l 0 1008 l 89 1008 q 117 934 89 961 q 211 907 144 907 q 306 934 279 907 q 333 1008 333 961 l 425 1008 l 425 986 q 399 878 425 925 q 325 807 372 832 q 211 782 278 782 z "},"̊":{"ha":0,"x_min":0,"x_max":311,"o":"m 156 792 q 46 832 92 792 q 0 944 0 872 q 46 1056 0 1015 q 156 1097 92 1097 q 266 1056 221 1097 q 311 944 311 1015 q 266 832 311 872 q 156 792 221 792 m 156 868 q 208 889 186 868 q 229 944 229 910 q 208 1001 229 981 q 156 1021 188 1021 q 104 1001 126 1021 q 82 944 82 981 q 104 889 82 910 q 156 868 126 868 z "},"̃":{"ha":0,"x_min":0,"x_max":476,"o":"m 318 792 q 252 808 279 792 q 201 840 225 824 q 150 856 178 856 q 110 840 126 856 q 90 793 94 825 l 0 793 q 54 919 13 879 q 157 960 96 960 q 223 944 196 960 q 274 912 250 928 q 325 896 297 896 q 365 912 349 896 q 385 958 381 928 l 476 958 q 422 833 464 874 q 318 792 379 792 z "},"̄":{"ha":0,"x_min":0,"x_max":513,"o":"m 0 825 l 0 943 l 513 943 l 513 825 l 0 825 z "},"̒":{"ha":0,"x_min":0,"x_max":156,"o":"m 156 1072 l 156 1001 q 106 989 122 1001 q 90 950 90 976 l 90 924 l 156 924 l 156 786 l 17 786 q 4 855 8 825 q 0 915 0 885 q 40 1033 0 993 q 156 1072 79 1072 z "},"̦":{"ha":0,"x_min":1,"x_max":165,"o":"m 7 -372 l 7 -301 q 58 -281 42 -301 q 74 -218 74 -260 l 74 -197 l 1 -197 l 1 -64 l 146 -64 q 161 -131 157 -97 q 165 -192 165 -164 q 125 -326 165 -279 q 7 -372 85 -372 z "},"̧":{"ha":0,"x_min":0,"x_max":354,"o":"m 0 -364 l 0 -267 l 150 -267 q 210 -254 190 -267 q 229 -212 229 -242 q 210 -175 229 -187 q 150 -162 190 -162 l 69 -162 l 69 10 l 174 10 l 174 -72 q 263 -87 222 -72 q 329 -134 304 -101 q 354 -217 354 -167 q 330 -298 354 -265 q 265 -347 306 -331 q 175 -364 224 -364 l 0 -364 z "},"̨":{"ha":0,"x_min":0,"x_max":299,"o":"m 181 -290 q 92 -275 133 -290 q 25 -228 50 -260 q 0 -147 0 -197 q 17 -77 0 -110 q 76 -12 35 -44 q 188 51 117 21 l 254 79 l 292 0 l 218 -36 q 148 -84 168 -61 q 128 -132 128 -107 q 148 -175 128 -160 q 201 -190 168 -190 q 248 -185 222 -190 q 299 -169 274 -179 l 299 -271 q 243 -285 274 -279 q 181 -290 213 -290 z "},"¨":{"ha":457,"x_min":24,"x_max":435,"o":"m 351 786 q 293 810 317 786 q 269 868 269 833 q 293 927 269 903 q 351 951 317 951 q 410 927 386 951 q 435 868 435 903 q 410 810 435 833 q 351 786 386 786 m 106 786 q 47 810 71 786 q 24 868 24 833 q 47 927 24 903 q 106 951 71 951 q 165 927 142 951 q 189 868 189 903 q 165 810 189 833 q 106 786 142 786 z "},"˙":{"ha":206,"x_min":21,"x_max":186,"o":"m 103 778 q 44 802 68 778 q 21 861 21 826 q 44 920 21 896 q 103 944 68 944 q 162 920 138 944 q 186 861 186 896 q 162 802 186 826 q 103 778 138 778 z "},"`":{"ha":317,"x_min":0,"x_max":317,"o":"m 301 760 l 0 917 l 19 1046 l 19 1046 l 317 872 l 301 760 z "},"´":{"ha":317,"x_min":0,"x_max":317,"o":"m 15 760 l 0 872 l 297 1046 l 297 1046 l 317 917 l 15 760 z "},"˝":{"ha":518,"x_min":18,"x_max":496,"o":"m 247 757 l 358 999 l 496 999 l 354 757 l 247 757 m 18 757 l 115 999 l 251 999 l 125 757 l 18 757 z "},"ˆ":{"ha":436,"x_min":18,"x_max":419,"o":"m 18 756 l 18 876 l 218 989 l 419 876 l 419 756 l 218 871 l 18 756 z "},"ˇ":{"ha":436,"x_min":18,"x_max":419,"o":"m 218 754 l 18 867 l 18 988 l 218 869 l 419 988 l 419 867 l 218 754 z "},"˘":{"ha":460,"x_min":18,"x_max":443,"o":"m 229 758 q 116 784 164 758 q 43 856 68 810 q 18 964 18 903 l 18 986 l 107 986 q 135 912 107 939 q 229 885 163 885 q 324 912 297 885 q 351 986 351 939 l 443 986 l 443 964 q 417 856 443 901 q 343 784 390 810 q 229 758 296 758 z "},"˚":{"ha":343,"x_min":17,"x_max":328,"o":"m 172 763 q 63 803 108 763 q 17 915 17 844 q 63 1028 17 988 q 172 1069 108 1069 q 283 1028 238 1069 q 328 915 328 988 q 283 803 328 844 q 172 763 238 763 m 172 839 q 224 860 203 839 q 246 915 246 881 q 224 972 246 951 q 172 992 203 992 q 120 972 142 992 q 99 915 99 951 q 120 860 99 881 q 172 839 142 839 z "},"˜":{"ha":507,"x_min":15,"x_max":490,"o":"m 333 761 q 267 777 294 761 q 217 809 240 793 q 165 825 193 825 q 126 810 142 825 q 106 763 110 794 l 15 763 q 70 890 29 849 q 172 931 111 931 q 238 915 211 931 q 289 883 265 899 q 340 867 313 867 q 381 882 364 867 q 401 929 397 897 l 490 929 q 437 802 479 843 q 333 761 394 761 z "},"¯":{"ha":549,"x_min":18,"x_max":531,"o":"m 18 807 l 18 926 l 531 926 l 531 807 l 18 807 z "},"¸":{"ha":354,"x_min":0,"x_max":354,"o":"m 0 -364 l 0 -267 l 150 -267 q 210 -254 190 -267 q 229 -212 229 -242 q 210 -175 229 -187 q 150 -162 190 -162 l 69 -162 l 69 10 l 174 10 l 174 -72 q 263 -87 222 -72 q 329 -134 304 -101 q 354 -217 354 -167 q 330 -298 354 -265 q 265 -347 306 -331 q 176 -364 225 -364 l 0 -364 z "},"˛":{"ha":299,"x_min":0,"x_max":299,"o":"m 181 -290 q 92 -275 133 -290 q 25 -228 50 -260 q 0 -147 0 -197 q 17 -77 0 -110 q 76 -12 35 -44 q 188 51 117 21 l 254 79 l 292 0 l 218 -36 q 148 -84 168 -61 q 128 -132 128 -107 q 148 -175 128 -160 q 201 -190 168 -190 q 248 -185 222 -190 q 299 -169 274 -179 l 299 -271 q 243 -285 274 -279 q 181 -290 213 -290 z "}}}
